<ttFont>
<head>
    <!-- Most of this table will be recalculated by the compiler -->
    <tableVersion value="1.0"/>
    <fontRevision value="2.201"/>
    <checkSumAdjustment value="0xec12d3b2"/>
    <magicNumber value="0x5f0f3cf5"/>
    <flags value="00000000 00011011"/>
    <unitsPerEm value="1000"/>
    <created value="Sat Jan 23 04:20:48 2016"/>
    <modified value="Thu Mar 10 20:57:28 2016"/>
    <xMin value="-118"/>
    <yMin value="-245"/>
    <xMax value="933"/>
    <yMax value="1045"/>
    <macStyle value="00000000 00000010"/>
    <lowestRecPPEM value="5"/>
    <fontDirectionHint value="2"/>
    <indexToLocFormat value="0"/>
    <glyphDataFormat value="0"/>
  </head>
    <TTGlyph name=".notdef" xMin="0" yMin="-200" xMax="500" yMax="800">
      <contour>
        <pt x="0" y="800" on="1"/>
        <pt x="500" y="800" on="1"/>
        <pt x="500" y="-200" on="1"/>
        <pt x="0" y="-200" on="1"/>
      </contour>
      <contour>
        <pt x="250" y="360" on="1"/>
        <pt x="429" y="750" on="1"/>
        <pt x="71" y="750" on="1"/>
      </contour>
      <contour>
        <pt x="222" y="300" on="1"/>
        <pt x="50" y="676" on="1"/>
        <pt x="50" y="-76" on="1"/>
      </contour>
      <contour>
        <pt x="278" y="300" on="1"/>
        <pt x="450" y="-76" on="1"/>
        <pt x="450" y="676" on="1"/>
      </contour>
      <contour>
        <pt x="71" y="-150" on="1"/>
        <pt x="429" y="-150" on="1"/>
        <pt x="250" y="240" on="1"/>
      </contour>
    </TTGlyph>
    <TTGlyph name="A" xMin="6" yMin="-6" xMax="528" yMax="729">
      <contour>
        <pt x="436" y="247" on="1"/>
        <pt x="177" y="247" on="1"/>
        <pt x="63" y="0" on="1"/>
        <pt x="6" y="0" on="1"/>
        <pt x="352" y="729" on="1"/>
        <pt x="402" y="729" on="1"/>
        <pt x="528" y="6" on="1"/>
        <pt x="477" y="-6" on="1"/>
      </contour>
      <contour>
        <pt x="198" y="292" on="1"/>
        <pt x="429" y="292" on="1"/>
        <pt x="368" y="657" on="1"/>
      </contour>
    </TTGlyph>
    <TTGlyph name="A.flat" xMin="6" yMin="0" xMax="529" yMax="729">
      <contour>
        <pt x="436" y="247" on="1"/>
        <pt x="177" y="247" on="1"/>
        <pt x="63" y="0" on="1"/>
        <pt x="6" y="0" on="1"/>
        <pt x="352" y="729" on="1"/>
        <pt x="402" y="729" on="1"/>
        <pt x="529" y="0" on="1"/>
        <pt x="476" y="0" on="1"/>
      </contour>
      <contour>
        <pt x="198" y="292" on="1"/>
        <pt x="429" y="292" on="1"/>
        <pt x="368" y="657" on="1"/>
      </contour>
    </TTGlyph>
    <TTGlyph name="AE" xMin="-8" yMin="0" xMax="826" yMax="725">
      <contour>
        <pt x="-8" y="0" on="1"/>
        <pt x="473" y="725" on="1"/>
        <pt x="826" y="725" on="1"/>
        <pt x="819" y="678" on="1"/>
        <pt x="550" y="678" on="1"/>
        <pt x="510" y="403" on="1"/>
        <pt x="722" y="403" on="1"/>
        <pt x="722" y="356" on="1"/>
        <pt x="502" y="356" on="1"/>
        <pt x="455" y="46" on="1"/>
        <pt x="736" y="46" on="1"/>
        <pt x="728" y="0" on="1"/>
        <pt x="398" y="0" on="1"/>
        <pt x="435" y="247" on="1"/>
        <pt x="211" y="247" on="1"/>
        <pt x="47" y="0" on="1"/>
      </contour>
      <contour>
        <pt x="441" y="292" on="1"/>
        <pt x="500" y="686" on="1"/>
        <pt x="241" y="292" on="1"/>
      </contour>
    </TTGlyph>
    <TTGlyph name="AE.flat" xMin="-8" yMin="0" xMax="826" yMax="725">
      <contour>
        <pt x="-8" y="0" on="1"/>
        <pt x="473" y="725" on="1"/>
        <pt x="826" y="725" on="1"/>
        <pt x="819" y="678" on="1"/>
        <pt x="550" y="678" on="1"/>
        <pt x="510" y="403" on="1"/>
        <pt x="725" y="403" on="1"/>
        <pt x="718" y="356" on="1"/>
        <pt x="502" y="356" on="1"/>
        <pt x="455" y="46" on="1"/>
        <pt x="736" y="46" on="1"/>
        <pt x="728" y="0" on="1"/>
        <pt x="398" y="0" on="1"/>
        <pt x="435" y="247" on="1"/>
        <pt x="211" y="247" on="1"/>
        <pt x="47" y="0" on="1"/>
      </contour>
      <contour>
        <pt x="441" y="292" on="1"/>
        <pt x="500" y="686" on="1"/>
        <pt x="241" y="292" on="1"/>
      </contour>
    </TTGlyph>
    <TTGlyph name="AEacute" xMin="-8" yMin="0" xMax="826" yMax="926">
      <component glyphName="acute.cap" x="375" y="215" flags="0x4"/>
      <component glyphName="AE" x="0" y="0" flags="0x4"/>
    </TTGlyph>
    <TTGlyph name="AEacute.flat" xMin="-8" yMin="0" xMax="826" yMax="926">
      <component glyphName="acute.cap" x="375" y="215" flags="0x4"/>
      <component glyphName="AE.flat" x="0" y="0" flags="0x4"/>
    </TTGlyph>
    <TTGlyph name="Aacute" xMin="6" yMin="-6" xMax="546" yMax="937">
      <component glyphName="A" x="0" y="0" flags="0x204"/>
      <component glyphName="acute.cap" x="171" y="226" flags="0x4"/>
    </TTGlyph>
    <TTGlyph name="Aacute.flat" xMin="6" yMin="0" xMax="546" yMax="937">
      <component glyphName="acute.cap" x="171" y="226" flags="0x4"/>
      <component glyphName="A.flat" x="0" y="0" flags="0x4"/>
    </TTGlyph>
    <TTGlyph name="Abreve" xMin="6" yMin="-6" xMax="528" yMax="912">
      <component glyphName="A" x="0" y="0" flags="0x204"/>
      <component glyphName="breve.cap" x="111" y="226" flags="0x4"/>
    </TTGlyph>
    <TTGlyph name="Abreve.flat" xMin="6" yMin="0" xMax="529" yMax="912">
      <component glyphName="breve.cap" x="112" y="226" flags="0x4"/>
      <component glyphName="A.flat" x="0" y="0" flags="0x4"/>
    </TTGlyph>
    <TTGlyph name="Acircumflex" xMin="6" yMin="-6" xMax="528" yMax="927">
      <component glyphName="A" x="0" y="0" flags="0x204"/>
      <component glyphName="circumflex.cap" x="114" y="218" flags="0x4"/>
    </TTGlyph>
    <TTGlyph name="Acircumflex.flat" xMin="6" yMin="0" xMax="529" yMax="927">
      <component glyphName="A.flat" x="0" y="0" flags="0x204"/>
      <component glyphName="circumflex.cap" x="114" y="218" flags="0x4"/>
    </TTGlyph>
    <TTGlyph name="Adieresis" xMin="6" yMin="-6" xMax="528" yMax="880">
      <component glyphName="A" x="0" y="0" flags="0x204"/>
      <component glyphName="dieresis.cap" x="114" y="226" flags="0x4"/>
    </TTGlyph>
    <TTGlyph name="Adieresis.flat" xMin="6" yMin="0" xMax="529" yMax="880">
      <component glyphName="dieresis.cap" x="114" y="226" flags="0x4"/>
      <component glyphName="A.flat" x="0" y="0" flags="0x4"/>
    </TTGlyph>
    <TTGlyph name="Agrave" xMin="6" yMin="-6" xMax="528" yMax="938">
      <component glyphName="A" x="0" y="0" flags="0x204"/>
      <component glyphName="grave.cap" x="56" y="226" flags="0x4"/>
    </TTGlyph>
    <TTGlyph name="Agrave.flat" xMin="6" yMin="0" xMax="529" yMax="938">
      <component glyphName="grave.cap" x="56" y="226" flags="0x4"/>
      <component glyphName="A.flat" x="0" y="0" flags="0x4"/>
    </TTGlyph>
    <TTGlyph name="Amacron" xMin="6" yMin="-6" xMax="528" yMax="867">
      <component glyphName="A" x="0" y="0" flags="0x204"/>
      <component glyphName="macron.cap" x="114" y="226" flags="0x4"/>
    </TTGlyph>
    <TTGlyph name="Amacron.flat" xMin="6" yMin="0" xMax="529" yMax="867">
      <component glyphName="macron.cap" x="114" y="226" flags="0x4"/>
      <component glyphName="A.flat" x="0" y="0" flags="0x4"/>
    </TTGlyph>
    <TTGlyph name="Aogonek" xMin="6" yMin="-171" xMax="528" yMax="729">
      <contour>
        <pt x="516" y="3" on="1"/>
        <pt x="489" y="-25" on="1"/>
        <pt x="464" y="-50" on="0"/>
        <pt x="444" y="-87" on="0"/>
        <pt x="444" y="-103" on="1"/>
        <pt x="444" y="-117" on="0"/>
        <pt x="460" y="-134" on="0"/>
        <pt x="480" y="-134" on="1"/>
        <pt x="499" y="-134" on="0"/>
        <pt x="521" y="-126" on="1"/>
        <pt x="520" y="-161" on="1"/>
        <pt x="506" y="-166" on="0"/>
        <pt x="478" y="-171" on="0"/>
        <pt x="464" y="-171" on="1"/>
        <pt x="431" y="-171" on="0"/>
        <pt x="396" y="-141" on="0"/>
        <pt x="396" y="-114" on="1"/>
        <pt x="396" y="-68" on="0"/>
        <pt x="460" y="-8" on="1"/>
        <pt x="475" y="7" on="1"/>
        <pt x="436" y="247" on="1"/>
        <pt x="177" y="247" on="1"/>
        <pt x="63" y="0" on="1"/>
        <pt x="6" y="0" on="1"/>
        <pt x="352" y="729" on="1"/>
        <pt x="402" y="729" on="1"/>
        <pt x="528" y="6" on="1"/>
      </contour>
      <contour>
        <pt x="198" y="292" on="1"/>
        <pt x="429" y="292" on="1"/>
        <pt x="368" y="657" on="1"/>
      </contour>
    </TTGlyph>
    <TTGlyph name="Aogonek.flat" xMin="6" yMin="-171" xMax="529" yMax="729">
      <contour>
        <pt x="395" y="-114" on="1"/>
        <pt x="395" y="-68" on="0"/>
        <pt x="459" y="-8" on="1"/>
        <pt x="468" y="0" on="1"/>
        <pt x="475" y="7" on="1"/>
        <pt x="436" y="247" on="1"/>
        <pt x="177" y="247" on="1"/>
        <pt x="63" y="0" on="1"/>
        <pt x="6" y="0" on="1"/>
        <pt x="352" y="729" on="1"/>
        <pt x="402" y="729" on="1"/>
        <pt x="529" y="0" on="1"/>
        <pt x="512" y="0" on="1"/>
        <pt x="488" y="-25" on="1"/>
        <pt x="463" y="-50" on="0"/>
        <pt x="443" y="-87" on="0"/>
        <pt x="443" y="-103" on="1"/>
        <pt x="443" y="-117" on="0"/>
        <pt x="459" y="-134" on="0"/>
        <pt x="479" y="-134" on="1"/>
        <pt x="498" y="-134" on="0"/>
        <pt x="520" y="-126" on="1"/>
        <pt x="519" y="-161" on="1"/>
        <pt x="505" y="-166" on="0"/>
        <pt x="477" y="-171" on="0"/>
        <pt x="463" y="-171" on="1"/>
        <pt x="430" y="-171" on="0"/>
        <pt x="395" y="-141" on="0"/>
      </contour>
      <contour>
        <pt x="198" y="292" on="1"/>
        <pt x="429" y="292" on="1"/>
        <pt x="368" y="657" on="1"/>
      </contour>
    </TTGlyph>
    <TTGlyph name="Aring" xMin="6" yMin="-6" xMax="528" yMax="874">
      <contour>
        <pt x="436" y="247" on="1"/>
        <pt x="177" y="247" on="1"/>
        <pt x="63" y="0" on="1"/>
        <pt x="6" y="0" on="1"/>
        <pt x="337" y="700" on="1"/>
        <pt x="315" y="711" on="0"/>
        <pt x="288" y="754" on="0"/>
        <pt x="288" y="781" on="1"/>
        <pt x="288" y="820" on="0"/>
        <pt x="343" y="874" on="0"/>
        <pt x="383" y="874" on="1"/>
        <pt x="423" y="874" on="0"/>
        <pt x="476" y="820" on="0"/>
        <pt x="476" y="781" on="1"/>
        <pt x="476" y="748" on="0"/>
        <pt x="439" y="700" on="0"/>
        <pt x="409" y="692" on="1"/>
        <pt x="528" y="6" on="1"/>
        <pt x="477" y="-6" on="1"/>
      </contour>
      <contour>
        <pt x="198" y="292" on="1"/>
        <pt x="429" y="292" on="1"/>
        <pt x="368" y="657" on="1"/>
      </contour>
      <contour>
        <pt x="383" y="722" on="1"/>
        <pt x="407" y="722" on="0"/>
        <pt x="438" y="755" on="0"/>
        <pt x="438" y="781" on="1"/>
        <pt x="438" y="806" on="0"/>
        <pt x="407" y="840" on="0"/>
        <pt x="383" y="840" on="1"/>
        <pt x="358" y="840" on="0"/>
        <pt x="326" y="806" on="0"/>
        <pt x="326" y="781" on="1"/>
        <pt x="326" y="755" on="0"/>
        <pt x="358" y="722" on="0"/>
      </contour>
    </TTGlyph>
    <TTGlyph name="Aring.flat" xMin="6" yMin="0" xMax="529" yMax="874">
      <contour>
        <pt x="436" y="247" on="1"/>
        <pt x="177" y="247" on="1"/>
        <pt x="63" y="0" on="1"/>
        <pt x="6" y="0" on="1"/>
        <pt x="337" y="700" on="1"/>
        <pt x="315" y="711" on="0"/>
        <pt x="288" y="754" on="0"/>
        <pt x="288" y="781" on="1"/>
        <pt x="288" y="820" on="0"/>
        <pt x="343" y="874" on="0"/>
        <pt x="383" y="874" on="1"/>
        <pt x="423" y="874" on="0"/>
        <pt x="476" y="820" on="0"/>
        <pt x="476" y="781" on="1"/>
        <pt x="476" y="748" on="0"/>
        <pt x="439" y="700" on="0"/>
        <pt x="409" y="692" on="1"/>
        <pt x="529" y="0" on="1"/>
        <pt x="476" y="0" on="1"/>
      </contour>
      <contour>
        <pt x="198" y="292" on="1"/>
        <pt x="429" y="292" on="1"/>
        <pt x="368" y="657" on="1"/>
      </contour>
      <contour>
        <pt x="383" y="722" on="1"/>
        <pt x="407" y="722" on="0"/>
        <pt x="438" y="755" on="0"/>
        <pt x="438" y="781" on="1"/>
        <pt x="438" y="806" on="0"/>
        <pt x="407" y="840" on="0"/>
        <pt x="383" y="840" on="1"/>
        <pt x="358" y="840" on="0"/>
        <pt x="326" y="806" on="0"/>
        <pt x="326" y="781" on="1"/>
        <pt x="326" y="755" on="0"/>
        <pt x="358" y="722" on="0"/>
      </contour>
    </TTGlyph>
    <TTGlyph name="Aringacute" xMin="6" yMin="-6" xMax="554" yMax="1045">
      <contour>
        <pt x="436" y="247" on="1"/>
        <pt x="177" y="247" on="1"/>
        <pt x="63" y="0" on="1"/>
        <pt x="6" y="0" on="1"/>
        <pt x="337" y="700" on="1"/>
        <pt x="315" y="711" on="0"/>
        <pt x="288" y="754" on="0"/>
        <pt x="288" y="781" on="1"/>
        <pt x="288" y="820" on="0"/>
        <pt x="343" y="874" on="0"/>
        <pt x="383" y="874" on="1"/>
        <pt x="423" y="874" on="0"/>
        <pt x="476" y="820" on="0"/>
        <pt x="476" y="781" on="1"/>
        <pt x="476" y="748" on="0"/>
        <pt x="439" y="700" on="0"/>
        <pt x="409" y="692" on="1"/>
        <pt x="528" y="6" on="1"/>
        <pt x="477" y="-6" on="1"/>
      </contour>
      <contour>
        <pt x="198" y="292" on="1"/>
        <pt x="429" y="292" on="1"/>
        <pt x="368" y="657" on="1"/>
      </contour>
      <contour>
        <pt x="383" y="722" on="1"/>
        <pt x="407" y="722" on="0"/>
        <pt x="438" y="755" on="0"/>
        <pt x="438" y="781" on="1"/>
        <pt x="438" y="806" on="0"/>
        <pt x="407" y="840" on="0"/>
        <pt x="383" y="840" on="1"/>
        <pt x="358" y="840" on="0"/>
        <pt x="326" y="806" on="0"/>
        <pt x="326" y="781" on="1"/>
        <pt x="326" y="755" on="0"/>
        <pt x="358" y="722" on="0"/>
      </contour>
      <contour>
        <pt x="411" y="898" on="1"/>
        <pt x="369" y="898" on="1"/>
        <pt x="485" y="1045" on="1"/>
        <pt x="554" y="1027" on="1"/>
      </contour>
    </TTGlyph>
    <TTGlyph name="Aringacute.flat" xMin="6" yMin="0" xMax="554" yMax="1045">
      <contour>
        <pt x="436" y="247" on="1"/>
        <pt x="177" y="247" on="1"/>
        <pt x="63" y="0" on="1"/>
        <pt x="6" y="0" on="1"/>
        <pt x="337" y="700" on="1"/>
        <pt x="315" y="711" on="0"/>
        <pt x="288" y="754" on="0"/>
        <pt x="288" y="781" on="1"/>
        <pt x="288" y="820" on="0"/>
        <pt x="343" y="874" on="0"/>
        <pt x="383" y="874" on="1"/>
        <pt x="423" y="874" on="0"/>
        <pt x="476" y="820" on="0"/>
        <pt x="476" y="781" on="1"/>
        <pt x="476" y="748" on="0"/>
        <pt x="439" y="700" on="0"/>
        <pt x="409" y="692" on="1"/>
        <pt x="529" y="0" on="1"/>
        <pt x="476" y="0" on="1"/>
      </contour>
      <contour>
        <pt x="198" y="292" on="1"/>
        <pt x="429" y="292" on="1"/>
        <pt x="368" y="657" on="1"/>
      </contour>
      <contour>
        <pt x="383" y="722" on="1"/>
        <pt x="407" y="722" on="0"/>
        <pt x="438" y="755" on="0"/>
        <pt x="438" y="781" on="1"/>
        <pt x="438" y="806" on="0"/>
        <pt x="407" y="840" on="0"/>
        <pt x="383" y="840" on="1"/>
        <pt x="358" y="840" on="0"/>
        <pt x="326" y="806" on="0"/>
        <pt x="326" y="781" on="1"/>
        <pt x="326" y="755" on="0"/>
        <pt x="358" y="722" on="0"/>
      </contour>
      <contour>
        <pt x="411" y="898" on="1"/>
        <pt x="369" y="898" on="1"/>
        <pt x="485" y="1045" on="1"/>
        <pt x="554" y="1027" on="1"/>
      </contour>
    </TTGlyph>
    <TTGlyph name="Atilde" xMin="6" yMin="-6" xMax="542" yMax="903">
      <component glyphName="A" x="0" y="0" flags="0x204"/>
      <component glyphName="tilde.cap" x="117" y="226" flags="0x4"/>
    </TTGlyph>
    <TTGlyph name="Atilde.flat" xMin="6" yMin="0" xMax="542" yMax="903">
      <component glyphName="tilde.cap" x="117" y="226" flags="0x4"/>
      <component glyphName="A.flat" x="0" y="0" flags="0x4"/>
    </TTGlyph>
    <TTGlyph name="B" xMin="55" yMin="1" xMax="487" yMax="725">
      <contour>
        <pt x="487" y="561" on="1"/>
        <pt x="487" y="526" on="0"/>
        <pt x="463" y="468" on="0"/>
        <pt x="422" y="422" on="0"/>
        <pt x="369" y="390" on="0"/>
        <pt x="341" y="381" on="1"/>
        <pt x="395" y="363" on="0"/>
        <pt x="466" y="281" on="0"/>
        <pt x="466" y="216" on="1"/>
        <pt x="466" y="164" on="0"/>
        <pt x="427" y="84" on="0"/>
        <pt x="357" y="29" on="0"/>
        <pt x="262" y="1" on="0"/>
        <pt x="205" y="1" on="1"/>
        <pt x="55" y="1" on="1"/>
        <pt x="163" y="725" on="1"/>
        <pt x="295" y="725" on="1"/>
        <pt x="383" y="725" on="0"/>
        <pt x="487" y="639" on="0"/>
      </contour>
      <contour>
        <pt x="433" y="560" on="1"/>
        <pt x="433" y="616" on="0"/>
        <pt x="359" y="680" on="0"/>
        <pt x="288" y="680" on="1"/>
        <pt x="208" y="680" on="1"/>
        <pt x="168" y="403" on="1"/>
        <pt x="246" y="403" on="1"/>
        <pt x="284" y="403" on="0"/>
        <pt x="352" y="427" on="0"/>
        <pt x="403" y="469" on="0"/>
        <pt x="433" y="526" on="0"/>
      </contour>
      <contour>
        <pt x="413" y="216" on="1"/>
        <pt x="413" y="282" on="0"/>
        <pt x="318" y="359" on="0"/>
        <pt x="238" y="359" on="1"/>
        <pt x="160" y="359" on="1"/>
        <pt x="113" y="47" on="1"/>
        <pt x="209" y="47" on="1"/>
        <pt x="255" y="47" on="0"/>
        <pt x="330" y="69" on="0"/>
        <pt x="384" y="113" on="0"/>
        <pt x="413" y="175" on="0"/>
      </contour>
    </TTGlyph>
    <TTGlyph name="C" xMin="69" yMin="-11" xMax="558" yMax="736">
      <contour>
        <pt x="545" y="626" on="1"/>
        <pt x="514" y="655" on="0"/>
        <pt x="442" y="689" on="0"/>
        <pt x="398" y="689" on="1"/>
        <pt x="338" y="689" on="0"/>
        <pt x="238" y="623" on="0"/>
        <pt x="164" y="512" on="0"/>
        <pt x="123" y="366" on="0"/>
        <pt x="123" y="285" on="1"/>
        <pt x="123" y="230" on="0"/>
        <pt x="149" y="139" on="0"/>
        <pt x="197" y="73" on="0"/>
        <pt x="265" y="37" on="0"/>
        <pt x="307" y="37" on="1"/>
        <pt x="389" y="37" on="0"/>
        <pt x="470" y="96" on="1"/>
        <pt x="470" y="41" on="1"/>
        <pt x="434" y="18" on="0"/>
        <pt x="353" y="-11" on="0"/>
        <pt x="302" y="-11" on="1"/>
        <pt x="250" y="-11" on="0"/>
        <pt x="164" y="31" on="0"/>
        <pt x="103" y="108" on="0"/>
        <pt x="69" y="217" on="0"/>
        <pt x="69" y="284" on="1"/>
        <pt x="69" y="374" on="0"/>
        <pt x="119" y="538" on="0"/>
        <pt x="208" y="662" on="0"/>
        <pt x="328" y="736" on="0"/>
        <pt x="398" y="736" on="1"/>
        <pt x="451" y="736" on="0"/>
        <pt x="529" y="704" on="0"/>
        <pt x="558" y="681" on="1"/>
      </contour>
    </TTGlyph>
    <TTGlyph name="Cacute" xMin="69" yMin="-11" xMax="569" yMax="937">
      <component glyphName="C" x="0" y="0" flags="0x204"/>
      <component glyphName="acute.cap" x="194" y="226" flags="0x4"/>
    </TTGlyph>
    <TTGlyph name="Ccaron" xMin="69" yMin="-11" xMax="558" yMax="935">
      <component glyphName="C" x="0" y="0" flags="0x204"/>
      <component glyphName="caron.cap" x="140" y="226" flags="0x4"/>
    </TTGlyph>
    <TTGlyph name="Ccedilla" xMin="69" yMin="-194" xMax="558" yMax="736">
      <component glyphName="C" x="0" y="0" flags="0x204"/>
      <component glyphName="cedilla.cap" x="92" y="0" flags="0x4"/>
    </TTGlyph>
    <TTGlyph name="Cdotaccent" xMin="69" yMin="-11" xMax="558" yMax="880">
      <component glyphName="dotaccent.cap" x="139" y="226" flags="0x4"/>
      <component glyphName="C" x="0" y="0" flags="0x4"/>
    </TTGlyph>
    <TTGlyph name="D" xMin="55" yMin="0" xMax="572" yMax="725">
      <contour>
        <pt x="572" y="430" on="1"/>
        <pt x="572" y="332" on="0"/>
        <pt x="510" y="164" on="0"/>
        <pt x="450" y="104" on="1"/>
        <pt x="402" y="56" on="0"/>
        <pt x="277" y="0" on="0"/>
        <pt x="189" y="0" on="1"/>
        <pt x="55" y="0" on="1"/>
        <pt x="163" y="725" on="1"/>
        <pt x="293" y="725" on="1"/>
        <pt x="361" y="725" on="0"/>
        <pt x="465" y="683" on="0"/>
        <pt x="536" y="606" on="0"/>
        <pt x="572" y="497" on="0"/>
      </contour>
      <contour>
        <pt x="517" y="430" on="1"/>
        <pt x="517" y="548" on="0"/>
        <pt x="400" y="679" on="0"/>
        <pt x="286" y="679" on="1"/>
        <pt x="209" y="679" on="1"/>
        <pt x="115" y="46" on="1"/>
        <pt x="191" y="46" on="1"/>
        <pt x="264" y="46" on="0"/>
        <pt x="368" y="92" on="0"/>
        <pt x="409" y="134" on="1"/>
        <pt x="463" y="187" on="0"/>
        <pt x="517" y="340" on="0"/>
      </contour>
    </TTGlyph>
    <TTGlyph name="Dcaron" xMin="55" yMin="0" xMax="572" yMax="924">
      <component glyphName="caron.cap" x="86" y="215" flags="0x4"/>
      <component glyphName="D" x="0" y="0" flags="0x4"/>
    </TTGlyph>
    <TTGlyph name="Dcroat" xMin="43" yMin="0" xMax="581" yMax="725">
      <component glyphName="Eth" x="0" y="0" flags="0x4"/>
    </TTGlyph>
    <TTGlyph name="Dcroat.flat" xMin="39" yMin="0" xMax="581" yMax="725">
      <component glyphName="Eth.flat" x="0" y="0" flags="0x4"/>
    </TTGlyph>
    <TTGlyph name="E" xMin="55" yMin="0" xMax="489" yMax="725">
      <contour>
        <pt x="482" y="678" on="1"/>
        <pt x="208" y="678" on="1"/>
        <pt x="168" y="404" on="1"/>
        <pt x="385" y="404" on="1"/>
        <pt x="385" y="356" on="1"/>
        <pt x="160" y="356" on="1"/>
        <pt x="114" y="47" on="1"/>
        <pt x="398" y="47" on="1"/>
        <pt x="391" y="0" on="1"/>
        <pt x="55" y="0" on="1"/>
        <pt x="163" y="725" on="1"/>
        <pt x="489" y="725" on="1"/>
      </contour>
    </TTGlyph>
    <TTGlyph name="E.flat" xMin="55" yMin="0" xMax="489" yMax="725">
      <contour>
        <pt x="482" y="678" on="1"/>
        <pt x="208" y="678" on="1"/>
        <pt x="168" y="404" on="1"/>
        <pt x="388" y="404" on="1"/>
        <pt x="381" y="356" on="1"/>
        <pt x="160" y="356" on="1"/>
        <pt x="114" y="47" on="1"/>
        <pt x="398" y="47" on="1"/>
        <pt x="391" y="0" on="1"/>
        <pt x="55" y="0" on="1"/>
        <pt x="163" y="725" on="1"/>
        <pt x="489" y="725" on="1"/>
      </contour>
    </TTGlyph>
    <TTGlyph name="Eacute" xMin="55" yMin="0" xMax="493" yMax="926">
      <component glyphName="acute.cap" x="118" y="215" flags="0x4"/>
      <component glyphName="E" x="0" y="0" flags="0x4"/>
    </TTGlyph>
    <TTGlyph name="Eacute.flat" xMin="55" yMin="0" xMax="493" yMax="926">
      <component glyphName="E.flat" x="0" y="0" flags="0x204"/>
      <component glyphName="acute.cap" x="118" y="215" flags="0x4"/>
    </TTGlyph>
    <TTGlyph name="Ebreve" xMin="55" yMin="0" xMax="489" yMax="901">
      <component glyphName="breve.cap" x="59" y="215" flags="0x4"/>
      <component glyphName="E" x="0" y="0" flags="0x4"/>
    </TTGlyph>
    <TTGlyph name="Ebreve.flat" xMin="55" yMin="0" xMax="489" yMax="901">
      <component glyphName="breve.cap" x="59" y="215" flags="0x4"/>
      <component glyphName="E.flat" x="0" y="0" flags="0x4"/>
    </TTGlyph>
    <TTGlyph name="Ecaron" xMin="55" yMin="0" xMax="489" yMax="924">
      <component glyphName="caron.cap" x="62" y="215" flags="0x4"/>
      <component glyphName="E" x="0" y="0" flags="0x4"/>
    </TTGlyph>
    <TTGlyph name="Ecaron.flat" xMin="55" yMin="0" xMax="489" yMax="924">
      <component glyphName="E.flat" x="0" y="0" flags="0x204"/>
      <component glyphName="caron.cap" x="62" y="215" flags="0x4"/>
    </TTGlyph>
    <TTGlyph name="Ecircumflex" xMin="55" yMin="0" xMax="489" yMax="924">
      <component glyphName="E" x="0" y="0" flags="0x204"/>
      <component glyphName="circumflex.cap" x="62" y="215" flags="0x4"/>
    </TTGlyph>
    <TTGlyph name="Ecircumflex.flat" xMin="55" yMin="0" xMax="489" yMax="924">
      <component glyphName="E.flat" x="0" y="0" flags="0x204"/>
      <component glyphName="circumflex.cap" x="62" y="215" flags="0x4"/>
    </TTGlyph>
    <TTGlyph name="Edieresis" xMin="55" yMin="0" xMax="489" yMax="869">
      <component glyphName="dieresis.cap" x="61" y="215" flags="0x4"/>
      <component glyphName="E" x="0" y="0" flags="0x4"/>
    </TTGlyph>
    <TTGlyph name="Edieresis.flat" xMin="55" yMin="0" xMax="489" yMax="869">
      <component glyphName="E.flat" x="0" y="0" flags="0x204"/>
      <component glyphName="dieresis.cap" x="61" y="215" flags="0x4"/>
    </TTGlyph>
    <TTGlyph name="Edotaccent" xMin="55" yMin="0" xMax="489" yMax="869">
      <component glyphName="dotaccent.cap" x="62" y="215" flags="0x4"/>
      <component glyphName="E" x="0" y="0" flags="0x4"/>
    </TTGlyph>
    <TTGlyph name="Edotaccent.flat" xMin="55" yMin="0" xMax="489" yMax="869">
      <component glyphName="dotaccent.cap" x="62" y="215" flags="0x4"/>
      <component glyphName="E.flat" x="0" y="0" flags="0x4"/>
    </TTGlyph>
    <TTGlyph name="Egrave" xMin="55" yMin="0" xMax="489" yMax="927">
      <component glyphName="grave.cap" x="3" y="215" flags="0x4"/>
      <component glyphName="E" x="0" y="0" flags="0x4"/>
    </TTGlyph>
    <TTGlyph name="Egrave.flat" xMin="55" yMin="0" xMax="489" yMax="927">
      <component glyphName="grave.cap" x="3" y="215" flags="0x4"/>
      <component glyphName="E.flat" x="0" y="0" flags="0x4"/>
    </TTGlyph>
    <TTGlyph name="Emacron" xMin="55" yMin="0" xMax="489" yMax="856">
      <component glyphName="macron.cap" x="61" y="215" flags="0x4"/>
      <component glyphName="E" x="0" y="0" flags="0x4"/>
    </TTGlyph>
    <TTGlyph name="Emacron.flat" xMin="55" yMin="0" xMax="489" yMax="856">
      <component glyphName="E.flat" x="0" y="0" flags="0x204"/>
      <component glyphName="macron.cap" x="61" y="215" flags="0x4"/>
    </TTGlyph>
    <TTGlyph name="Eogonek" xMin="55" yMin="-171" xMax="489" yMax="725">
      <contour>
        <pt x="482" y="678" on="1"/>
        <pt x="208" y="678" on="1"/>
        <pt x="168" y="404" on="1"/>
        <pt x="385" y="404" on="1"/>
        <pt x="385" y="356" on="1"/>
        <pt x="160" y="356" on="1"/>
        <pt x="114" y="47" on="1"/>
        <pt x="398" y="47" on="1"/>
        <pt x="391" y="0" on="1"/>
        <pt x="371" y="0" on="1"/>
        <pt x="347" y="-25" on="1"/>
        <pt x="322" y="-50" on="0"/>
        <pt x="302" y="-87" on="0"/>
        <pt x="302" y="-103" on="1"/>
        <pt x="302" y="-117" on="0"/>
        <pt x="318" y="-134" on="0"/>
        <pt x="338" y="-134" on="1"/>
        <pt x="357" y="-134" on="0"/>
        <pt x="379" y="-126" on="1"/>
        <pt x="378" y="-161" on="1"/>
        <pt x="364" y="-166" on="0"/>
        <pt x="336" y="-171" on="0"/>
        <pt x="322" y="-171" on="1"/>
        <pt x="289" y="-171" on="0"/>
        <pt x="254" y="-141" on="0"/>
        <pt x="254" y="-114" on="1"/>
        <pt x="254" y="-68" on="0"/>
        <pt x="318" y="-8" on="1"/>
        <pt x="326" y="0" on="1"/>
        <pt x="55" y="0" on="1"/>
        <pt x="163" y="725" on="1"/>
        <pt x="489" y="725" on="1"/>
      </contour>
    </TTGlyph>
    <TTGlyph name="Eogonek.flat" xMin="55" yMin="-171" xMax="489" yMax="725">
      <contour>
        <pt x="482" y="678" on="1"/>
        <pt x="208" y="678" on="1"/>
        <pt x="168" y="404" on="1"/>
        <pt x="388" y="404" on="1"/>
        <pt x="381" y="356" on="1"/>
        <pt x="160" y="356" on="1"/>
        <pt x="114" y="47" on="1"/>
        <pt x="398" y="47" on="1"/>
        <pt x="391" y="0" on="1"/>
        <pt x="371" y="0" on="1"/>
        <pt x="347" y="-25" on="1"/>
        <pt x="322" y="-50" on="0"/>
        <pt x="302" y="-87" on="0"/>
        <pt x="302" y="-103" on="1"/>
        <pt x="302" y="-117" on="0"/>
        <pt x="318" y="-134" on="0"/>
        <pt x="338" y="-134" on="1"/>
        <pt x="357" y="-134" on="0"/>
        <pt x="379" y="-126" on="1"/>
        <pt x="378" y="-161" on="1"/>
        <pt x="364" y="-166" on="0"/>
        <pt x="336" y="-171" on="0"/>
        <pt x="322" y="-171" on="1"/>
        <pt x="289" y="-171" on="0"/>
        <pt x="254" y="-141" on="0"/>
        <pt x="254" y="-114" on="1"/>
        <pt x="254" y="-68" on="0"/>
        <pt x="318" y="-8" on="1"/>
        <pt x="326" y="0" on="1"/>
        <pt x="55" y="0" on="1"/>
        <pt x="163" y="725" on="1"/>
        <pt x="489" y="725" on="1"/>
      </contour>
    </TTGlyph>
    <TTGlyph name="Eth" xMin="43" yMin="0" xMax="581" yMax="725">
      <contour>
        <pt x="581" y="430" on="1"/>
        <pt x="581" y="332" on="0"/>
        <pt x="519" y="164" on="0"/>
        <pt x="460" y="104" on="1"/>
        <pt x="411" y="56" on="0"/>
        <pt x="286" y="0" on="0"/>
        <pt x="199" y="0" on="1"/>
        <pt x="65" y="0" on="1"/>
        <pt x="118" y="357" on="1"/>
        <pt x="44" y="357" on="1"/>
        <pt x="43" y="402" on="1"/>
        <pt x="125" y="402" on="1"/>
        <pt x="173" y="725" on="1"/>
        <pt x="302" y="725" on="1"/>
        <pt x="370" y="725" on="0"/>
        <pt x="474" y="683" on="0"/>
        <pt x="545" y="606" on="0"/>
        <pt x="581" y="497" on="0"/>
      </contour>
      <contour>
        <pt x="171" y="357" on="1"/>
        <pt x="124" y="46" on="1"/>
        <pt x="201" y="46" on="1"/>
        <pt x="273" y="46" on="0"/>
        <pt x="377" y="92" on="0"/>
        <pt x="419" y="134" on="1"/>
        <pt x="472" y="187" on="0"/>
        <pt x="527" y="340" on="0"/>
        <pt x="527" y="430" on="1"/>
        <pt x="527" y="548" on="0"/>
        <pt x="409" y="679" on="0"/>
        <pt x="296" y="679" on="1"/>
        <pt x="219" y="679" on="1"/>
        <pt x="177" y="402" on="1"/>
        <pt x="331" y="402" on="1"/>
        <pt x="324" y="357" on="1"/>
      </contour>
    </TTGlyph>
    <TTGlyph name="Eth.flat" xMin="39" yMin="0" xMax="581" yMax="725">
      <contour>
        <pt x="581" y="430" on="1"/>
        <pt x="581" y="332" on="0"/>
        <pt x="519" y="164" on="0"/>
        <pt x="460" y="104" on="1"/>
        <pt x="411" y="56" on="0"/>
        <pt x="286" y="0" on="0"/>
        <pt x="199" y="0" on="1"/>
        <pt x="65" y="0" on="1"/>
        <pt x="118" y="357" on="1"/>
        <pt x="39" y="357" on="1"/>
        <pt x="46" y="402" on="1"/>
        <pt x="125" y="402" on="1"/>
        <pt x="173" y="725" on="1"/>
        <pt x="302" y="725" on="1"/>
        <pt x="370" y="725" on="0"/>
        <pt x="474" y="683" on="0"/>
        <pt x="545" y="606" on="0"/>
        <pt x="581" y="497" on="0"/>
      </contour>
      <contour>
        <pt x="171" y="357" on="1"/>
        <pt x="124" y="46" on="1"/>
        <pt x="201" y="46" on="1"/>
        <pt x="273" y="46" on="0"/>
        <pt x="377" y="92" on="0"/>
        <pt x="419" y="134" on="1"/>
        <pt x="472" y="187" on="0"/>
        <pt x="527" y="340" on="0"/>
        <pt x="527" y="430" on="1"/>
        <pt x="527" y="548" on="0"/>
        <pt x="409" y="679" on="0"/>
        <pt x="296" y="679" on="1"/>
        <pt x="219" y="679" on="1"/>
        <pt x="177" y="402" on="1"/>
        <pt x="331" y="402" on="1"/>
        <pt x="324" y="357" on="1"/>
      </contour>
    </TTGlyph>
    <TTGlyph name="Euro" xMin="44" yMin="-11" xMax="570" yMax="729">
      <contour>
        <pt x="411" y="261" on="1"/>
        <pt x="178" y="261" on="1"/>
        <pt x="182" y="156" on="0"/>
        <pt x="269" y="33" on="0"/>
        <pt x="344" y="33" on="1"/>
        <pt x="379" y="33" on="0"/>
        <pt x="445" y="57" on="0"/>
        <pt x="487" y="89" on="1"/>
        <pt x="487" y="40" on="1"/>
        <pt x="455" y="17" on="0"/>
        <pt x="383" y="-11" on="0"/>
        <pt x="341" y="-11" on="1"/>
        <pt x="294" y="-11" on="0"/>
        <pt x="218" y="26" on="0"/>
        <pt x="162" y="97" on="0"/>
        <pt x="130" y="198" on="0"/>
        <pt x="128" y="261" on="1"/>
        <pt x="44" y="261" on="1"/>
        <pt x="44" y="303" on="1"/>
        <pt x="128" y="303" on="1"/>
        <pt x="131" y="371" on="0"/>
        <pt x="148" y="438" on="1"/>
        <pt x="65" y="438" on="1"/>
        <pt x="72" y="480" on="1"/>
        <pt x="160" y="480" on="1"/>
        <pt x="178" y="534" on="0"/>
        <pt x="233" y="625" on="0"/>
        <pt x="301" y="692" on="0"/>
        <pt x="381" y="729" on="0"/>
        <pt x="425" y="729" on="1"/>
        <pt x="472" y="729" on="0"/>
        <pt x="543" y="700" on="0"/>
        <pt x="570" y="676" on="1"/>
        <pt x="558" y="627" on="1"/>
        <pt x="528" y="654" on="0"/>
        <pt x="463" y="685" on="0"/>
        <pt x="423" y="685" on="1"/>
        <pt x="389" y="685" on="0"/>
        <pt x="326" y="654" on="0"/>
        <pt x="272" y="600" on="0"/>
        <pt x="227" y="525" on="0"/>
        <pt x="211" y="480" on="1"/>
        <pt x="438" y="480" on="1"/>
        <pt x="438" y="438" on="1"/>
        <pt x="198" y="438" on="1"/>
        <pt x="181" y="371" on="0"/>
        <pt x="178" y="303" on="1"/>
        <pt x="417" y="303" on="1"/>
      </contour>
    </TTGlyph>
    <TTGlyph name="Euro.flat" xMin="38" yMin="-11" xMax="570" yMax="729">
      <contour>
        <pt x="411" y="261" on="1"/>
        <pt x="178" y="261" on="1"/>
        <pt x="182" y="156" on="0"/>
        <pt x="269" y="33" on="0"/>
        <pt x="344" y="33" on="1"/>
        <pt x="379" y="33" on="0"/>
        <pt x="445" y="57" on="0"/>
        <pt x="487" y="89" on="1"/>
        <pt x="487" y="40" on="1"/>
        <pt x="455" y="17" on="0"/>
        <pt x="383" y="-11" on="0"/>
        <pt x="341" y="-11" on="1"/>
        <pt x="294" y="-11" on="0"/>
        <pt x="218" y="26" on="0"/>
        <pt x="162" y="97" on="0"/>
        <pt x="130" y="198" on="0"/>
        <pt x="128" y="261" on="1"/>
        <pt x="38" y="261" on="1"/>
        <pt x="45" y="303" on="1"/>
        <pt x="128" y="303" on="1"/>
        <pt x="131" y="371" on="0"/>
        <pt x="148" y="438" on="1"/>
        <pt x="65" y="438" on="1"/>
        <pt x="72" y="480" on="1"/>
        <pt x="160" y="480" on="1"/>
        <pt x="178" y="534" on="0"/>
        <pt x="233" y="625" on="0"/>
        <pt x="301" y="692" on="0"/>
        <pt x="381" y="729" on="0"/>
        <pt x="425" y="729" on="1"/>
        <pt x="472" y="729" on="0"/>
        <pt x="543" y="700" on="0"/>
        <pt x="570" y="676" on="1"/>
        <pt x="558" y="627" on="1"/>
        <pt x="528" y="654" on="0"/>
        <pt x="463" y="685" on="0"/>
        <pt x="423" y="685" on="1"/>
        <pt x="389" y="685" on="0"/>
        <pt x="326" y="654" on="0"/>
        <pt x="272" y="600" on="0"/>
        <pt x="227" y="525" on="0"/>
        <pt x="211" y="480" on="1"/>
        <pt x="443" y="480" on="1"/>
        <pt x="436" y="438" on="1"/>
        <pt x="198" y="438" on="1"/>
        <pt x="181" y="371" on="0"/>
        <pt x="178" y="303" on="1"/>
        <pt x="417" y="303" on="1"/>
      </contour>
    </TTGlyph>
    <TTGlyph name="Euro.tab" xMin="48" yMin="-10" xMax="550" yMax="728">
      <contour>
        <pt x="188" y="437" on="1"/>
        <pt x="180" y="405" on="0"/>
        <pt x="173" y="339" on="0"/>
        <pt x="171" y="304" on="1"/>
        <pt x="411" y="304" on="1"/>
        <pt x="404" y="262" on="1"/>
        <pt x="171" y="262" on="1"/>
        <pt x="176" y="153" on="0"/>
        <pt x="260" y="34" on="0"/>
        <pt x="328" y="34" on="1"/>
        <pt x="364" y="34" on="0"/>
        <pt x="435" y="61" on="0"/>
        <pt x="473" y="91" on="1"/>
        <pt x="473" y="42" on="1"/>
        <pt x="444" y="19" on="0"/>
        <pt x="368" y="-10" on="0"/>
        <pt x="323" y="-10" on="1"/>
        <pt x="238" y="-10" on="0"/>
        <pt x="127" y="127" on="0"/>
        <pt x="122" y="262" on="1"/>
        <pt x="48" y="262" on="1"/>
        <pt x="48" y="304" on="1"/>
        <pt x="122" y="304" on="1"/>
        <pt x="124" y="339" on="0"/>
        <pt x="131" y="405" on="0"/>
        <pt x="139" y="437" on="1"/>
        <pt x="70" y="437" on="1"/>
        <pt x="77" y="479" on="1"/>
        <pt x="150" y="479" on="1"/>
        <pt x="166" y="534" on="0"/>
        <pt x="217" y="626" on="0"/>
        <pt x="281" y="692" on="0"/>
        <pt x="358" y="728" on="0"/>
        <pt x="401" y="728" on="1"/>
        <pt x="446" y="728" on="0"/>
        <pt x="524" y="696" on="0"/>
        <pt x="550" y="674" on="1"/>
        <pt x="534" y="625" on="1"/>
        <pt x="506" y="651" on="0"/>
        <pt x="439" y="684" on="0"/>
        <pt x="401" y="684" on="1"/>
        <pt x="367" y="684" on="0"/>
        <pt x="306" y="654" on="0"/>
        <pt x="255" y="599" on="0"/>
        <pt x="214" y="524" on="0"/>
        <pt x="200" y="479" on="1"/>
        <pt x="434" y="479" on="1"/>
        <pt x="434" y="437" on="1"/>
      </contour>
    </TTGlyph>
    <TTGlyph name="Euro.tab_flat" xMin="44" yMin="-10" xMax="550" yMax="730">
      <contour>
        <pt x="188" y="437" on="1"/>
        <pt x="180" y="405" on="0"/>
        <pt x="173" y="339" on="0"/>
        <pt x="171" y="304" on="1"/>
        <pt x="411" y="304" on="1"/>
        <pt x="404" y="262" on="1"/>
        <pt x="171" y="262" on="1"/>
        <pt x="176" y="153" on="0"/>
        <pt x="260" y="34" on="0"/>
        <pt x="328" y="34" on="1"/>
        <pt x="364" y="34" on="0"/>
        <pt x="435" y="61" on="0"/>
        <pt x="473" y="91" on="1"/>
        <pt x="473" y="42" on="1"/>
        <pt x="444" y="19" on="0"/>
        <pt x="368" y="-10" on="0"/>
        <pt x="323" y="-10" on="1"/>
        <pt x="238" y="-10" on="0"/>
        <pt x="127" y="127" on="0"/>
        <pt x="122" y="262" on="1"/>
        <pt x="44" y="262" on="1"/>
        <pt x="51" y="304" on="1"/>
        <pt x="122" y="304" on="1"/>
        <pt x="124" y="339" on="0"/>
        <pt x="131" y="405" on="0"/>
        <pt x="139" y="437" on="1"/>
        <pt x="70" y="437" on="1"/>
        <pt x="77" y="479" on="1"/>
        <pt x="150" y="479" on="1"/>
        <pt x="166" y="534" on="0"/>
        <pt x="216" y="626" on="0"/>
        <pt x="281" y="693" on="0"/>
        <pt x="358" y="730" on="0"/>
        <pt x="401" y="730" on="1"/>
        <pt x="446" y="730" on="0"/>
        <pt x="524" y="697" on="0"/>
        <pt x="550" y="675" on="1"/>
        <pt x="534" y="627" on="1"/>
        <pt x="506" y="653" on="0"/>
        <pt x="439" y="685" on="0"/>
        <pt x="401" y="685" on="1"/>
        <pt x="367" y="685" on="0"/>
        <pt x="306" y="655" on="0"/>
        <pt x="255" y="600" on="0"/>
        <pt x="214" y="524" on="0"/>
        <pt x="200" y="479" on="1"/>
        <pt x="437" y="479" on="1"/>
        <pt x="431" y="437" on="1"/>
      </contour>
    </TTGlyph>
    <TTGlyph name="F" xMin="55" yMin="0" xMax="477" yMax="725">
      <contour>
        <pt x="470" y="678" on="1"/>
        <pt x="208" y="678" on="1"/>
        <pt x="166" y="392" on="1"/>
        <pt x="375" y="392" on="1"/>
        <pt x="375" y="345" on="1"/>
        <pt x="159" y="345" on="1"/>
        <pt x="107" y="0" on="1"/>
        <pt x="55" y="0" on="1"/>
        <pt x="163" y="725" on="1"/>
        <pt x="477" y="725" on="1"/>
      </contour>
    </TTGlyph>
    <TTGlyph name="F.flat" xMin="55" yMin="0" xMax="477" yMax="725">
      <contour>
        <pt x="470" y="678" on="1"/>
        <pt x="208" y="678" on="1"/>
        <pt x="166" y="392" on="1"/>
        <pt x="378" y="392" on="1"/>
        <pt x="370" y="345" on="1"/>
        <pt x="159" y="345" on="1"/>
        <pt x="107" y="0" on="1"/>
        <pt x="55" y="0" on="1"/>
        <pt x="163" y="725" on="1"/>
        <pt x="477" y="725" on="1"/>
      </contour>
    </TTGlyph>
    <TTGlyph name="G" xMin="69" yMin="-11" xMax="567" yMax="736">
      <contour>
        <pt x="493" y="52" on="1"/>
        <pt x="451" y="23" on="0"/>
        <pt x="363" y="-11" on="0"/>
        <pt x="309" y="-11" on="1"/>
        <pt x="254" y="-11" on="0"/>
        <pt x="165" y="33" on="0"/>
        <pt x="103" y="111" on="0"/>
        <pt x="69" y="219" on="0"/>
        <pt x="69" y="283" on="1"/>
        <pt x="69" y="373" on="0"/>
        <pt x="118" y="537" on="0"/>
        <pt x="206" y="662" on="0"/>
        <pt x="326" y="736" on="0"/>
        <pt x="397" y="736" on="1"/>
        <pt x="454" y="736" on="0"/>
        <pt x="538" y="699" on="0"/>
        <pt x="567" y="673" on="1"/>
        <pt x="553" y="617" on="1"/>
        <pt x="520" y="651" on="0"/>
        <pt x="446" y="689" on="0"/>
        <pt x="397" y="689" on="1"/>
        <pt x="337" y="689" on="0"/>
        <pt x="237" y="623" on="0"/>
        <pt x="164" y="512" on="0"/>
        <pt x="123" y="365" on="0"/>
        <pt x="123" y="284" on="1"/>
        <pt x="123" y="229" on="0"/>
        <pt x="150" y="138" on="0"/>
        <pt x="199" y="72" on="0"/>
        <pt x="269" y="36" on="0"/>
        <pt x="311" y="36" on="1"/>
        <pt x="355" y="36" on="0"/>
        <pt x="422" y="60" on="0"/>
        <pt x="447" y="77" on="1"/>
        <pt x="484" y="326" on="1"/>
        <pt x="332" y="326" on="1"/>
        <pt x="332" y="372" on="1"/>
        <pt x="543" y="372" on="1"/>
      </contour>
    </TTGlyph>
    <TTGlyph name="G.flat" xMin="69" yMin="-11" xMax="567" yMax="736">
      <contour>
        <pt x="493" y="52" on="1"/>
        <pt x="451" y="23" on="0"/>
        <pt x="363" y="-11" on="0"/>
        <pt x="309" y="-11" on="1"/>
        <pt x="254" y="-11" on="0"/>
        <pt x="165" y="33" on="0"/>
        <pt x="103" y="111" on="0"/>
        <pt x="69" y="219" on="0"/>
        <pt x="69" y="283" on="1"/>
        <pt x="69" y="373" on="0"/>
        <pt x="118" y="537" on="0"/>
        <pt x="206" y="662" on="0"/>
        <pt x="326" y="736" on="0"/>
        <pt x="397" y="736" on="1"/>
        <pt x="454" y="736" on="0"/>
        <pt x="538" y="699" on="0"/>
        <pt x="567" y="673" on="1"/>
        <pt x="553" y="617" on="1"/>
        <pt x="520" y="651" on="0"/>
        <pt x="446" y="689" on="0"/>
        <pt x="397" y="689" on="1"/>
        <pt x="337" y="689" on="0"/>
        <pt x="237" y="623" on="0"/>
        <pt x="164" y="512" on="0"/>
        <pt x="123" y="365" on="0"/>
        <pt x="123" y="284" on="1"/>
        <pt x="123" y="229" on="0"/>
        <pt x="150" y="138" on="0"/>
        <pt x="199" y="72" on="0"/>
        <pt x="269" y="36" on="0"/>
        <pt x="311" y="36" on="1"/>
        <pt x="355" y="36" on="0"/>
        <pt x="422" y="60" on="0"/>
        <pt x="447" y="77" on="1"/>
        <pt x="484" y="326" on="1"/>
        <pt x="328" y="326" on="1"/>
        <pt x="336" y="372" on="1"/>
        <pt x="543" y="372" on="1"/>
      </contour>
    </TTGlyph>
    <TTGlyph name="Gbreve" xMin="69" yMin="-11" xMax="567" yMax="912">
      <component glyphName="breve.cap" x="130" y="226" flags="0x4"/>
      <component glyphName="G" x="0" y="0" flags="0x4"/>
    </TTGlyph>
    <TTGlyph name="Gbreve.flat" xMin="69" yMin="-11" xMax="567" yMax="912">
      <component glyphName="breve.cap" x="130" y="226" flags="0x4"/>
      <component glyphName="G.flat" x="0" y="0" flags="0x4"/>
    </TTGlyph>
    <TTGlyph name="Gcommaaccent" xMin="69" yMin="-232" xMax="567" yMax="736">
      <component glyphName="G" x="0" y="0" flags="0x204"/>
      <component glyphName="commaaccent.cap" x="92" y="-1" flags="0x4"/>
    </TTGlyph>
    <TTGlyph name="Gcommaaccent.flat" xMin="69" yMin="-232" xMax="567" yMax="736">
      <component glyphName="G.flat" x="0" y="0" flags="0x204"/>
      <component glyphName="commaaccent.cap" x="92" y="-1" flags="0x4"/>
    </TTGlyph>
    <TTGlyph name="Gdotaccent" xMin="69" yMin="-11" xMax="567" yMax="880">
      <component glyphName="dotaccent.cap" x="132" y="226" flags="0x4"/>
      <component glyphName="G" x="0" y="0" flags="0x4"/>
    </TTGlyph>
    <TTGlyph name="Gdotaccent.flat" xMin="69" yMin="-11" xMax="567" yMax="880">
      <component glyphName="dotaccent.cap" x="132" y="226" flags="0x4"/>
      <component glyphName="G.flat" x="0" y="0" flags="0x4"/>
    </TTGlyph>
    <TTGlyph name="H" xMin="55" yMin="0" xMax="605" yMax="725">
      <contour>
        <pt x="496" y="0" on="1"/>
        <pt x="444" y="0" on="1"/>
        <pt x="498" y="356" on="1"/>
        <pt x="160" y="356" on="1"/>
        <pt x="107" y="0" on="1"/>
        <pt x="55" y="0" on="1"/>
        <pt x="163" y="725" on="1"/>
        <pt x="216" y="725" on="1"/>
        <pt x="168" y="403" on="1"/>
        <pt x="505" y="403" on="1"/>
        <pt x="553" y="725" on="1"/>
        <pt x="605" y="725" on="1"/>
      </contour>
    </TTGlyph>
    <TTGlyph name="Hbar" xMin="65" yMin="0" xMax="676" yMax="725">
      <contour>
        <pt x="590" y="556" on="1"/>
        <pt x="506" y="0" on="1"/>
        <pt x="454" y="0" on="1"/>
        <pt x="507" y="356" on="1"/>
        <pt x="170" y="356" on="1"/>
        <pt x="116" y="0" on="1"/>
        <pt x="65" y="0" on="1"/>
        <pt x="148" y="556" on="1"/>
        <pt x="73" y="556" on="1"/>
        <pt x="72" y="600" on="1"/>
        <pt x="154" y="600" on="1"/>
        <pt x="173" y="725" on="1"/>
        <pt x="225" y="725" on="1"/>
        <pt x="206" y="600" on="1"/>
        <pt x="543" y="600" on="1"/>
        <pt x="562" y="725" on="1"/>
        <pt x="615" y="725" on="1"/>
        <pt x="596" y="600" on="1"/>
        <pt x="676" y="600" on="1"/>
        <pt x="669" y="556" on="1"/>
      </contour>
      <contour>
        <pt x="514" y="402" on="1"/>
        <pt x="537" y="557" on="1"/>
        <pt x="200" y="557" on="1"/>
        <pt x="177" y="402" on="1"/>
      </contour>
    </TTGlyph>
    <TTGlyph name="Hbar.flat" xMin="65" yMin="0" xMax="676" yMax="725">
      <contour>
        <pt x="590" y="556" on="1"/>
        <pt x="506" y="0" on="1"/>
        <pt x="454" y="0" on="1"/>
        <pt x="507" y="356" on="1"/>
        <pt x="170" y="356" on="1"/>
        <pt x="116" y="0" on="1"/>
        <pt x="65" y="0" on="1"/>
        <pt x="148" y="556" on="1"/>
        <pt x="68" y="556" on="1"/>
        <pt x="76" y="600" on="1"/>
        <pt x="154" y="600" on="1"/>
        <pt x="173" y="725" on="1"/>
        <pt x="225" y="725" on="1"/>
        <pt x="206" y="600" on="1"/>
        <pt x="543" y="600" on="1"/>
        <pt x="562" y="725" on="1"/>
        <pt x="615" y="725" on="1"/>
        <pt x="596" y="600" on="1"/>
        <pt x="676" y="600" on="1"/>
        <pt x="669" y="556" on="1"/>
      </contour>
      <contour>
        <pt x="514" y="402" on="1"/>
        <pt x="537" y="557" on="1"/>
        <pt x="200" y="557" on="1"/>
        <pt x="177" y="402" on="1"/>
      </contour>
    </TTGlyph>
    <TTGlyph name="I" xMin="63" yMin="0" xMax="224" yMax="725">
      <contour>
        <pt x="116" y="0" on="1"/>
        <pt x="63" y="0" on="1"/>
        <pt x="173" y="725" on="1"/>
        <pt x="224" y="725" on="1"/>
      </contour>
    </TTGlyph>
    <TTGlyph name="Iacute" xMin="63" yMin="0" xMax="366" yMax="926">
      <component glyphName="I" x="0" y="0" flags="0x204"/>
      <component glyphName="acute.cap" x="-9" y="215" flags="0x4"/>
    </TTGlyph>
    <TTGlyph name="Ibreve" xMin="63" yMin="0" xMax="336" yMax="901">
      <component glyphName="I" x="0" y="0" flags="0x204"/>
      <component glyphName="breve.cap" x="-69" y="215" flags="0x4"/>
    </TTGlyph>
    <TTGlyph name="Icircumflex" xMin="63" yMin="0" xMax="321" yMax="924">
      <component glyphName="I" x="0" y="0" flags="0x204"/>
      <component glyphName="circumflex.cap" x="-65" y="215" flags="0x4"/>
    </TTGlyph>
    <TTGlyph name="Idieresis" xMin="63" yMin="0" xMax="328" yMax="869">
      <component glyphName="I" x="0" y="0" flags="0x204"/>
      <component glyphName="dieresis.cap" x="-66" y="215" flags="0x4"/>
    </TTGlyph>
    <TTGlyph name="Idotaccent" xMin="63" yMin="0" xMax="255" yMax="869">
      <component glyphName="I" x="0" y="0" flags="0x204"/>
      <component glyphName="dotaccent.cap" x="-65" y="215" flags="0x4"/>
    </TTGlyph>
    <TTGlyph name="Igrave" xMin="63" yMin="0" xMax="227" yMax="927">
      <component glyphName="I" x="0" y="0" flags="0x204"/>
      <component glyphName="grave.cap" x="-124" y="215" flags="0x4"/>
    </TTGlyph>
    <TTGlyph name="Imacron" xMin="63" yMin="0" xMax="336" yMax="856">
      <component glyphName="I" x="0" y="0" flags="0x204"/>
      <component glyphName="macron.cap" x="-66" y="215" flags="0x4"/>
    </TTGlyph>
    <TTGlyph name="Iogonek" xMin="-5" yMin="-171" xMax="224" yMax="725">
      <contour>
        <pt x="116" y="0" on="1"/>
        <pt x="112" y="0" on="1"/>
        <pt x="88" y="-25" on="1"/>
        <pt x="63" y="-50" on="0"/>
        <pt x="43" y="-87" on="0"/>
        <pt x="43" y="-103" on="1"/>
        <pt x="43" y="-117" on="0"/>
        <pt x="59" y="-134" on="0"/>
        <pt x="79" y="-134" on="1"/>
        <pt x="98" y="-134" on="0"/>
        <pt x="120" y="-126" on="1"/>
        <pt x="119" y="-161" on="1"/>
        <pt x="105" y="-166" on="0"/>
        <pt x="77" y="-171" on="0"/>
        <pt x="63" y="-171" on="1"/>
        <pt x="30" y="-171" on="0"/>
        <pt x="-5" y="-141" on="0"/>
        <pt x="-5" y="-114" on="1"/>
        <pt x="-5" y="-68" on="0"/>
        <pt x="59" y="-8" on="1"/>
        <pt x="67" y="0" on="1"/>
        <pt x="63" y="0" on="1"/>
        <pt x="173" y="725" on="1"/>
        <pt x="224" y="725" on="1"/>
      </contour>
    </TTGlyph>
    <TTGlyph name="J" xMin="3" yMin="-6" xMax="311" yMax="725">
      <contour>
        <pt x="227" y="159" on="1"/>
        <pt x="215" y="72" on="0"/>
        <pt x="129" y="-6" on="0"/>
        <pt x="67" y="-6" on="1"/>
        <pt x="48" y="-6" on="0"/>
        <pt x="16" y="-1" on="0"/>
        <pt x="3" y="3" on="1"/>
        <pt x="3" y="52" on="1"/>
        <pt x="17" y="47" on="0"/>
        <pt x="49" y="41" on="0"/>
        <pt x="68" y="41" on="1"/>
        <pt x="113" y="41" on="0"/>
        <pt x="166" y="99" on="0"/>
        <pt x="176" y="164" on="1"/>
        <pt x="260" y="725" on="1"/>
        <pt x="311" y="725" on="1"/>
      </contour>
    </TTGlyph>
    <TTGlyph name="K" xMin="55" yMin="-7" xMax="574" yMax="725">
      <contour>
        <pt x="219" y="383" on="1"/>
        <pt x="478" y="5" on="1"/>
        <pt x="423" y="-7" on="1"/>
        <pt x="163" y="374" on="1"/>
        <pt x="107" y="0" on="1"/>
        <pt x="55" y="0" on="1"/>
        <pt x="163" y="725" on="1"/>
        <pt x="216" y="725" on="1"/>
        <pt x="166" y="393" on="1"/>
        <pt x="506" y="725" on="1"/>
        <pt x="574" y="725" on="1"/>
      </contour>
    </TTGlyph>
    <TTGlyph name="K.flat" xMin="55" yMin="0" xMax="574" yMax="725">
      <contour>
        <pt x="219" y="383" on="1"/>
        <pt x="481" y="0" on="1"/>
        <pt x="418" y="0" on="1"/>
        <pt x="163" y="374" on="1"/>
        <pt x="107" y="0" on="1"/>
        <pt x="55" y="0" on="1"/>
        <pt x="163" y="725" on="1"/>
        <pt x="216" y="725" on="1"/>
        <pt x="166" y="393" on="1"/>
        <pt x="506" y="725" on="1"/>
        <pt x="574" y="725" on="1"/>
      </contour>
    </TTGlyph>
    <TTGlyph name="Kcommaaccent" xMin="55" yMin="-230" xMax="574" yMax="725">
      <component glyphName="K" x="0" y="0" flags="0x204"/>
      <component glyphName="commaaccent.cap" x="50" y="1" flags="0x4"/>
    </TTGlyph>
    <TTGlyph name="Kcommaaccent.flat" xMin="55" yMin="-230" xMax="574" yMax="725">
      <component glyphName="K.flat" x="0" y="0" flags="0x204"/>
      <component glyphName="commaaccent.cap" x="49" y="1" flags="0x4"/>
    </TTGlyph>
    <TTGlyph name="L" xMin="55" yMin="0" xMax="367" yMax="725">
      <contour>
        <pt x="55" y="0" on="1"/>
        <pt x="163" y="725" on="1"/>
        <pt x="216" y="725" on="1"/>
        <pt x="114" y="47" on="1"/>
        <pt x="367" y="47" on="1"/>
        <pt x="367" y="0" on="1"/>
      </contour>
    </TTGlyph>
    <TTGlyph name="L.flat" xMin="55" yMin="0" xMax="371" yMax="725">
      <contour>
        <pt x="55" y="0" on="1"/>
        <pt x="163" y="725" on="1"/>
        <pt x="216" y="725" on="1"/>
        <pt x="114" y="47" on="1"/>
        <pt x="371" y="47" on="1"/>
        <pt x="364" y="0" on="1"/>
      </contour>
    </TTGlyph>
    <TTGlyph name="Lacute" xMin="55" yMin="0" xMax="367" yMax="921">
      <component glyphName="acute.cap" x="-12" y="210" flags="0x4"/>
      <component glyphName="L" x="0" y="0" flags="0x4"/>
    </TTGlyph>
    <TTGlyph name="Lacute.flat" xMin="55" yMin="0" xMax="371" yMax="921">
      <component glyphName="acute.cap" x="-12" y="210" flags="0x4"/>
      <component glyphName="L.flat" x="0" y="0" flags="0x4"/>
    </TTGlyph>
    <TTGlyph name="Lcaron" xMin="55" yMin="0" xMax="367" yMax="729">
      <component glyphName="L" x="0" y="0" flags="0x204"/>
      <component glyphName="caron.alt.cap" x="56" y="-20" flags="0x4"/>
    </TTGlyph>
    <TTGlyph name="Lcaron.flat" xMin="55" yMin="0" xMax="371" yMax="729">
      <component glyphName="L.flat" x="0" y="0" flags="0x204"/>
      <component glyphName="caron.alt.cap" x="56" y="-20" flags="0x4"/>
    </TTGlyph>
    <TTGlyph name="Lcommaaccent" xMin="55" yMin="-231" xMax="367" yMax="725">
      <component glyphName="L" x="0" y="0" flags="0x204"/>
      <component glyphName="commaaccent.cap" x="12" y="0" flags="0x4"/>
    </TTGlyph>
    <TTGlyph name="Lcommaaccent.flat" xMin="55" yMin="-231" xMax="371" yMax="725">
      <component glyphName="L.flat" x="0" y="0" flags="0x204"/>
      <component glyphName="commaaccent.cap" x="12" y="0" flags="0x4"/>
    </TTGlyph>
    <TTGlyph name="Ldot" xMin="55" yMin="0" xMax="379" yMax="725">
      <contour>
        <pt x="302" y="328" on="1"/>
        <pt x="316" y="412" on="1"/>
        <pt x="379" y="412" on="1"/>
        <pt x="366" y="328" on="1"/>
      </contour>
      <contour>
        <pt x="55" y="0" on="1"/>
        <pt x="163" y="725" on="1"/>
        <pt x="216" y="725" on="1"/>
        <pt x="114" y="47" on="1"/>
        <pt x="367" y="47" on="1"/>
        <pt x="367" y="0" on="1"/>
      </contour>
    </TTGlyph>
    <TTGlyph name="Ldot.flat" xMin="55" yMin="0" xMax="379" yMax="725">
      <contour>
        <pt x="302" y="328" on="1"/>
        <pt x="316" y="412" on="1"/>
        <pt x="379" y="412" on="1"/>
        <pt x="366" y="328" on="1"/>
      </contour>
      <contour>
        <pt x="55" y="0" on="1"/>
        <pt x="163" y="725" on="1"/>
        <pt x="216" y="725" on="1"/>
        <pt x="114" y="47" on="1"/>
        <pt x="371" y="47" on="1"/>
        <pt x="364" y="0" on="1"/>
      </contour>
    </TTGlyph>
    <TTGlyph name="Lslash" xMin="30" yMin="0" xMax="377" yMax="725">
      <contour>
        <pt x="65" y="0" on="1"/>
        <pt x="111" y="306" on="1"/>
        <pt x="31" y="265" on="1"/>
        <pt x="30" y="313" on="1"/>
        <pt x="119" y="358" on="1"/>
        <pt x="174" y="725" on="1"/>
        <pt x="226" y="725" on="1"/>
        <pt x="175" y="386" on="1"/>
        <pt x="332" y="467" on="1"/>
        <pt x="323" y="415" on="1"/>
        <pt x="168" y="336" on="1"/>
        <pt x="124" y="46" on="1"/>
        <pt x="377" y="46" on="1"/>
        <pt x="377" y="0" on="1"/>
      </contour>
    </TTGlyph>
    <TTGlyph name="Lslash.flat" xMin="26" yMin="0" xMax="380" yMax="725">
      <contour>
        <pt x="65" y="0" on="1"/>
        <pt x="111" y="307" on="1"/>
        <pt x="26" y="263" on="1"/>
        <pt x="34" y="315" on="1"/>
        <pt x="119" y="358" on="1"/>
        <pt x="174" y="725" on="1"/>
        <pt x="226" y="725" on="1"/>
        <pt x="175" y="386" on="1"/>
        <pt x="332" y="467" on="1"/>
        <pt x="323" y="415" on="1"/>
        <pt x="168" y="336" on="1"/>
        <pt x="124" y="46" on="1"/>
        <pt x="380" y="46" on="1"/>
        <pt x="374" y="0" on="1"/>
      </contour>
    </TTGlyph>
    <TTGlyph name="M" xMin="40" yMin="-4" xMax="764" yMax="725">
      <contour>
        <pt x="700" y="0" on="1"/>
        <pt x="650" y="0" on="1"/>
        <pt x="710" y="637" on="1"/>
        <pt x="388" y="-4" on="1"/>
        <pt x="353" y="-4" on="1"/>
        <pt x="227" y="637" on="1"/>
        <pt x="88" y="0" on="1"/>
        <pt x="40" y="0" on="1"/>
        <pt x="201" y="725" on="1"/>
        <pt x="261" y="725" on="1"/>
        <pt x="384" y="81" on="1"/>
        <pt x="701" y="725" on="1"/>
        <pt x="764" y="725" on="1"/>
      </contour>
    </TTGlyph>
    <TTGlyph name="M.alt" xMin="55" yMin="-4" xMax="777" yMax="725">
      <contour>
        <pt x="619" y="0" on="1"/>
        <pt x="714" y="635" on="1"/>
        <pt x="378" y="-4" on="1"/>
        <pt x="341" y="-4" on="1"/>
        <pt x="198" y="635" on="1"/>
        <pt x="102" y="0" on="1"/>
        <pt x="55" y="0" on="1"/>
        <pt x="163" y="725" on="1"/>
        <pt x="228" y="725" on="1"/>
        <pt x="371" y="70" on="1"/>
        <pt x="712" y="725" on="1"/>
        <pt x="777" y="725" on="1"/>
        <pt x="669" y="0" on="1"/>
      </contour>
    </TTGlyph>
    <TTGlyph name="N" xMin="55" yMin="0" xMax="604" yMax="725">
      <contour>
        <pt x="495" y="0" on="1"/>
        <pt x="458" y="0" on="1"/>
        <pt x="197" y="634" on="1"/>
        <pt x="104" y="0" on="1"/>
        <pt x="55" y="0" on="1"/>
        <pt x="163" y="725" on="1"/>
        <pt x="213" y="725" on="1"/>
        <pt x="465" y="109" on="1"/>
        <pt x="555" y="725" on="1"/>
        <pt x="604" y="725" on="1"/>
      </contour>
    </TTGlyph>
    <TTGlyph name="Nacute" xMin="55" yMin="0" xMax="604" yMax="925">
      <component glyphName="acute.cap" x="176" y="214" flags="0x4"/>
      <component glyphName="N" x="0" y="0" flags="0x4"/>
    </TTGlyph>
    <TTGlyph name="Ncaron" xMin="55" yMin="0" xMax="604" yMax="923">
      <component glyphName="caron.cap" x="120" y="214" flags="0x4"/>
      <component glyphName="N" x="0" y="0" flags="0x4"/>
    </TTGlyph>
    <TTGlyph name="Ncommaaccent" xMin="55" yMin="-230" xMax="604" yMax="725">
      <component glyphName="commaaccent.cap" x="80" y="1" flags="0x4"/>
      <component glyphName="N" x="0" y="0" flags="0x4"/>
    </TTGlyph>
    <TTGlyph name="Ntilde" xMin="55" yMin="0" xMax="604" yMax="891">
      <component glyphName="tilde.cap" x="122" y="214" flags="0x4"/>
      <component glyphName="N" x="0" y="0" flags="0x4"/>
    </TTGlyph>
    <TTGlyph name="O" xMin="70" yMin="-12" xMax="615" yMax="736">
      <contour>
        <pt x="297" y="-12" on="1"/>
        <pt x="243" y="-12" on="0"/>
        <pt x="159" y="32" on="0"/>
        <pt x="101" y="110" on="0"/>
        <pt x="70" y="219" on="0"/>
        <pt x="70" y="284" on="1"/>
        <pt x="70" y="337" on="0"/>
        <pt x="89" y="443" on="0"/>
        <pt x="124" y="541" on="0"/>
        <pt x="174" y="626" on="0"/>
        <pt x="206" y="658" on="1"/>
        <pt x="244" y="696" on="0"/>
        <pt x="335" y="736" on="0"/>
        <pt x="388" y="736" on="1"/>
        <pt x="441" y="736" on="0"/>
        <pt x="525" y="692" on="0"/>
        <pt x="584" y="614" on="0"/>
        <pt x="615" y="506" on="0"/>
        <pt x="615" y="442" on="1"/>
        <pt x="615" y="389" on="0"/>
        <pt x="596" y="282" on="0"/>
        <pt x="561" y="185" on="0"/>
        <pt x="510" y="99" on="0"/>
        <pt x="478" y="67" on="1"/>
        <pt x="441" y="30" on="0"/>
        <pt x="349" y="-12" on="0"/>
      </contour>
      <contour>
        <pt x="298" y="35" on="1"/>
        <pt x="338" y="35" on="0"/>
        <pt x="410" y="68" on="0"/>
        <pt x="440" y="98" on="1"/>
        <pt x="468" y="125" on="0"/>
        <pt x="512" y="201" on="0"/>
        <pt x="544" y="291" on="0"/>
        <pt x="561" y="390" on="0"/>
        <pt x="561" y="441" on="1"/>
        <pt x="561" y="557" on="0"/>
        <pt x="467" y="690" on="0"/>
        <pt x="386" y="690" on="1"/>
        <pt x="347" y="690" on="0"/>
        <pt x="275" y="657" on="0"/>
        <pt x="245" y="627" on="1"/>
        <pt x="218" y="599" on="0"/>
        <pt x="173" y="523" on="0"/>
        <pt x="141" y="434" on="0"/>
        <pt x="124" y="336" on="0"/>
        <pt x="124" y="285" on="1"/>
        <pt x="124" y="168" on="0"/>
        <pt x="218" y="35" on="0"/>
      </contour>
    </TTGlyph>
    <TTGlyph name="OE" xMin="69" yMin="0" xMax="837" yMax="725">
      <contour>
        <pt x="123" y="294" on="1"/>
        <pt x="123" y="176" on="0"/>
        <pt x="236" y="46" on="0"/>
        <pt x="345" y="46" on="1"/>
        <pt x="415" y="46" on="1"/>
        <pt x="510" y="679" on="1"/>
        <pt x="439" y="679" on="1"/>
        <pt x="374" y="679" on="0"/>
        <pt x="270" y="634" on="0"/>
        <pt x="231" y="594" on="1"/>
        <pt x="179" y="540" on="0"/>
        <pt x="123" y="385" on="0"/>
      </contour>
      <contour>
        <pt x="837" y="725" on="1"/>
        <pt x="829" y="678" on="1"/>
        <pt x="562" y="678" on="1"/>
        <pt x="520" y="403" on="1"/>
        <pt x="733" y="403" on="1"/>
        <pt x="733" y="356" on="1"/>
        <pt x="514" y="356" on="1"/>
        <pt x="467" y="46" on="1"/>
        <pt x="746" y="46" on="1"/>
        <pt x="738" y="0" on="1"/>
        <pt x="338" y="0" on="1"/>
        <pt x="272" y="0" on="0"/>
        <pt x="172" y="42" on="0"/>
        <pt x="104" y="119" on="0"/>
        <pt x="69" y="228" on="0"/>
        <pt x="69" y="295" on="1"/>
        <pt x="69" y="392" on="0"/>
        <pt x="131" y="563" on="0"/>
        <pt x="190" y="623" on="1"/>
        <pt x="238" y="671" on="0"/>
        <pt x="361" y="725" on="0"/>
        <pt x="441" y="725" on="1"/>
      </contour>
    </TTGlyph>
    <TTGlyph name="OE.flat" xMin="69" yMin="0" xMax="837" yMax="725">
      <contour>
        <pt x="123" y="294" on="1"/>
        <pt x="123" y="176" on="0"/>
        <pt x="236" y="46" on="0"/>
        <pt x="345" y="46" on="1"/>
        <pt x="415" y="46" on="1"/>
        <pt x="510" y="679" on="1"/>
        <pt x="439" y="679" on="1"/>
        <pt x="374" y="678" on="0"/>
        <pt x="270" y="634" on="0"/>
        <pt x="231" y="594" on="1"/>
        <pt x="179" y="540" on="0"/>
        <pt x="123" y="385" on="0"/>
      </contour>
      <contour>
        <pt x="837" y="725" on="1"/>
        <pt x="829" y="678" on="1"/>
        <pt x="562" y="678" on="1"/>
        <pt x="520" y="403" on="1"/>
        <pt x="736" y="403" on="1"/>
        <pt x="729" y="356" on="1"/>
        <pt x="514" y="356" on="1"/>
        <pt x="467" y="46" on="1"/>
        <pt x="746" y="46" on="1"/>
        <pt x="738" y="0" on="1"/>
        <pt x="338" y="0" on="1"/>
        <pt x="272" y="0" on="0"/>
        <pt x="172" y="42" on="0"/>
        <pt x="104" y="119" on="0"/>
        <pt x="69" y="228" on="0"/>
        <pt x="69" y="295" on="1"/>
        <pt x="69" y="392" on="0"/>
        <pt x="131" y="563" on="0"/>
        <pt x="190" y="623" on="1"/>
        <pt x="238" y="671" on="0"/>
        <pt x="361" y="725" on="0"/>
        <pt x="441" y="725" on="1"/>
      </contour>
    </TTGlyph>
    <TTGlyph name="Oacute" xMin="70" yMin="-12" xMax="615" yMax="937">
      <component glyphName="acute.cap" x="197" y="226" flags="0x4"/>
      <component glyphName="O" x="0" y="0" flags="0x4"/>
    </TTGlyph>
    <TTGlyph name="Obreve" xMin="70" yMin="-12" xMax="615" yMax="912">
      <component glyphName="breve.cap" x="139" y="226" flags="0x4"/>
      <component glyphName="O" x="0" y="0" flags="0x4"/>
    </TTGlyph>
    <TTGlyph name="Ocircumflex" xMin="70" yMin="-12" xMax="615" yMax="935">
      <component glyphName="O" x="0" y="0" flags="0x204"/>
      <component glyphName="circumflex.cap" x="143" y="226" flags="0x4"/>
    </TTGlyph>
    <TTGlyph name="Odieresis" xMin="70" yMin="-12" xMax="615" yMax="880">
      <component glyphName="dieresis.cap" x="141" y="226" flags="0x4"/>
      <component glyphName="O" x="0" y="0" flags="0x4"/>
    </TTGlyph>
    <TTGlyph name="Ograve" xMin="70" yMin="-12" xMax="615" yMax="938">
      <component glyphName="grave.cap" x="83" y="226" flags="0x4"/>
      <component glyphName="O" x="0" y="0" flags="0x4"/>
    </TTGlyph>
    <TTGlyph name="Ohungarumlaut" xMin="70" yMin="-12" xMax="643" yMax="940">
      <component glyphName="O" x="0" y="0" flags="0x204"/>
      <component glyphName="hungarumlaut.cap" x="199" y="226" flags="0x4"/>
    </TTGlyph>
    <TTGlyph name="Omacron" xMin="70" yMin="-12" xMax="615" yMax="867">
      <component glyphName="macron.cap" x="141" y="226" flags="0x4"/>
      <component glyphName="O" x="0" y="0" flags="0x4"/>
    </TTGlyph>
    <TTGlyph name="Oslash" xMin="27" yMin="-12" xMax="658" yMax="735">
      <contour>
        <pt x="298" y="-12" on="1"/>
        <pt x="245" y="-12" on="0"/>
        <pt x="162" y="29" on="0"/>
        <pt x="133" y="66" on="1"/>
        <pt x="74" y="-8" on="1"/>
        <pt x="27" y="3" on="1"/>
        <pt x="109" y="105" on="1"/>
        <pt x="89" y="141" on="0"/>
        <pt x="70" y="232" on="0"/>
        <pt x="70" y="284" on="1"/>
        <pt x="70" y="339" on="0"/>
        <pt x="89" y="445" on="0"/>
        <pt x="124" y="541" on="0"/>
        <pt x="174" y="623" on="0"/>
        <pt x="206" y="655" on="1"/>
        <pt x="242" y="692" on="0"/>
        <pt x="333" y="735" on="0"/>
        <pt x="387" y="735" on="1"/>
        <pt x="439" y="735" on="0"/>
        <pt x="522" y="695" on="0"/>
        <pt x="551" y="658" on="1"/>
        <pt x="610" y="732" on="1"/>
        <pt x="658" y="722" on="1"/>
        <pt x="576" y="619" on="1"/>
        <pt x="595" y="583" on="0"/>
        <pt x="615" y="493" on="0"/>
        <pt x="615" y="441" on="1"/>
        <pt x="615" y="385" on="0"/>
        <pt x="596" y="279" on="0"/>
        <pt x="562" y="183" on="0"/>
        <pt x="511" y="100" on="0"/>
        <pt x="480" y="69" on="1"/>
        <pt x="443" y="32" on="0"/>
        <pt x="352" y="-12" on="0"/>
      </contour>
      <contour>
        <pt x="124" y="285" on="1"/>
        <pt x="124" y="246" on="0"/>
        <pt x="135" y="179" on="0"/>
        <pt x="146" y="150" on="1"/>
        <pt x="518" y="616" on="1"/>
        <pt x="472" y="690" on="0"/>
        <pt x="384" y="690" on="1"/>
        <pt x="345" y="690" on="0"/>
        <pt x="274" y="655" on="0"/>
        <pt x="244" y="625" on="1"/>
        <pt x="216" y="597" on="0"/>
        <pt x="172" y="523" on="0"/>
        <pt x="141" y="435" on="0"/>
        <pt x="124" y="336" on="0"/>
      </contour>
      <contour>
        <pt x="301" y="35" on="1"/>
        <pt x="341" y="35" on="0"/>
        <pt x="411" y="69" on="0"/>
        <pt x="441" y="99" on="1"/>
        <pt x="469" y="127" on="0"/>
        <pt x="513" y="202" on="0"/>
        <pt x="544" y="290" on="0"/>
        <pt x="561" y="389" on="0"/>
        <pt x="561" y="440" on="1"/>
        <pt x="561" y="519" on="0"/>
        <pt x="538" y="576" on="1"/>
        <pt x="167" y="109" on="1"/>
        <pt x="213" y="35" on="0"/>
      </contour>
    </TTGlyph>
    <TTGlyph name="Oslashacute" xMin="27" yMin="-12" xMax="658" yMax="937">
      <component glyphName="Oslash" x="0" y="0" flags="0x204"/>
      <component glyphName="acute.cap" x="194" y="226" flags="0x4"/>
    </TTGlyph>
    <TTGlyph name="Otilde" xMin="70" yMin="-12" xMax="615" yMax="903">
      <component glyphName="tilde.cap" x="143" y="226" flags="0x4"/>
      <component glyphName="O" x="0" y="0" flags="0x4"/>
    </TTGlyph>
    <TTGlyph name="P" xMin="55" yMin="0" xMax="495" yMax="725">
      <contour>
        <pt x="495" y="546" on="1"/>
        <pt x="495" y="493" on="0"/>
        <pt x="456" y="407" on="0"/>
        <pt x="385" y="346" on="0"/>
        <pt x="287" y="313" on="0"/>
        <pt x="229" y="313" on="1"/>
        <pt x="154" y="313" on="1"/>
        <pt x="107" y="0" on="1"/>
        <pt x="55" y="0" on="1"/>
        <pt x="163" y="725" on="1"/>
        <pt x="287" y="725" on="1"/>
        <pt x="388" y="725" on="0"/>
        <pt x="495" y="628" on="0"/>
      </contour>
      <contour>
        <pt x="442" y="542" on="1"/>
        <pt x="442" y="605" on="0"/>
        <pt x="364" y="679" on="0"/>
        <pt x="283" y="679" on="1"/>
        <pt x="208" y="679" on="1"/>
        <pt x="161" y="359" on="1"/>
        <pt x="229" y="359" on="1"/>
        <pt x="279" y="359" on="0"/>
        <pt x="358" y="386" on="0"/>
        <pt x="413" y="435" on="0"/>
        <pt x="442" y="502" on="0"/>
      </contour>
    </TTGlyph>
    <TTGlyph name="Q" xMin="70" yMin="-142" xMax="615" yMax="736">
      <contour>
        <pt x="230" y="-6" on="1"/>
        <pt x="149" y="33" on="0"/>
        <pt x="70" y="173" on="0"/>
        <pt x="70" y="284" on="1"/>
        <pt x="70" y="395" on="0"/>
        <pt x="142" y="593" on="0"/>
        <pt x="206" y="658" on="1"/>
        <pt x="244" y="696" on="0"/>
        <pt x="335" y="736" on="0"/>
        <pt x="388" y="736" on="1"/>
        <pt x="441" y="736" on="0"/>
        <pt x="525" y="692" on="0"/>
        <pt x="584" y="614" on="0"/>
        <pt x="615" y="506" on="0"/>
        <pt x="615" y="442" on="1"/>
        <pt x="615" y="329" on="0"/>
        <pt x="546" y="135" on="0"/>
        <pt x="483" y="72" on="1"/>
        <pt x="453" y="42" on="0"/>
        <pt x="382" y="2" on="0"/>
        <pt x="342" y="-6" on="1"/>
        <pt x="528" y="-88" on="1"/>
        <pt x="515" y="-142" on="1"/>
      </contour>
      <contour>
        <pt x="298" y="34" on="1"/>
        <pt x="338" y="34" on="0"/>
        <pt x="410" y="68" on="0"/>
        <pt x="440" y="98" on="1"/>
        <pt x="468" y="125" on="0"/>
        <pt x="512" y="201" on="0"/>
        <pt x="544" y="290" on="0"/>
        <pt x="561" y="389" on="0"/>
        <pt x="561" y="441" on="1"/>
        <pt x="561" y="557" on="0"/>
        <pt x="467" y="690" on="0"/>
        <pt x="386" y="690" on="1"/>
        <pt x="347" y="690" on="0"/>
        <pt x="275" y="657" on="0"/>
        <pt x="245" y="627" on="1"/>
        <pt x="218" y="599" on="0"/>
        <pt x="173" y="524" on="0"/>
        <pt x="141" y="436" on="0"/>
        <pt x="124" y="337" on="0"/>
        <pt x="124" y="285" on="1"/>
        <pt x="124" y="226" on="0"/>
        <pt x="149" y="133" on="0"/>
        <pt x="194" y="69" on="0"/>
        <pt x="258" y="34" on="0"/>
      </contour>
    </TTGlyph>
    <TTGlyph name="Q.alt" xMin="70" yMin="-15" xMax="615" yMax="736">
      <contour>
        <pt x="483" y="72" on="1"/>
        <pt x="478" y="67" on="1"/>
        <pt x="441" y="30" on="0"/>
        <pt x="349" y="-12" on="0"/>
        <pt x="297" y="-12" on="1"/>
        <pt x="243" y="-12" on="0"/>
        <pt x="159" y="32" on="0"/>
        <pt x="101" y="110" on="0"/>
        <pt x="70" y="219" on="0"/>
        <pt x="70" y="284" on="1"/>
        <pt x="70" y="337" on="0"/>
        <pt x="89" y="443" on="0"/>
        <pt x="124" y="541" on="0"/>
        <pt x="174" y="626" on="0"/>
        <pt x="206" y="658" on="1"/>
        <pt x="244" y="696" on="0"/>
        <pt x="335" y="736" on="0"/>
        <pt x="388" y="736" on="1"/>
        <pt x="441" y="736" on="0"/>
        <pt x="525" y="692" on="0"/>
        <pt x="584" y="614" on="0"/>
        <pt x="615" y="506" on="0"/>
        <pt x="615" y="442" on="1"/>
        <pt x="615" y="352" on="0"/>
        <pt x="562" y="176" on="0"/>
        <pt x="515" y="110" on="1"/>
        <pt x="583" y="42" on="1"/>
        <pt x="566" y="-15" on="1"/>
      </contour>
      <contour>
        <pt x="298" y="35" on="1"/>
        <pt x="338" y="35" on="0"/>
        <pt x="410" y="68" on="0"/>
        <pt x="440" y="98" on="1"/>
        <pt x="449" y="107" on="1"/>
        <pt x="305" y="250" on="1"/>
        <pt x="368" y="262" on="1"/>
        <pt x="479" y="146" on="1"/>
        <pt x="517" y="204" on="0"/>
        <pt x="561" y="359" on="0"/>
        <pt x="561" y="441" on="1"/>
        <pt x="561" y="557" on="0"/>
        <pt x="467" y="690" on="0"/>
        <pt x="386" y="690" on="1"/>
        <pt x="347" y="690" on="0"/>
        <pt x="275" y="657" on="0"/>
        <pt x="245" y="627" on="1"/>
        <pt x="218" y="599" on="0"/>
        <pt x="173" y="523" on="0"/>
        <pt x="141" y="434" on="0"/>
        <pt x="124" y="336" on="0"/>
        <pt x="124" y="285" on="1"/>
        <pt x="124" y="168" on="0"/>
        <pt x="218" y="35" on="0"/>
      </contour>
    </TTGlyph>
    <TTGlyph name="Q.alt_flat" xMin="70" yMin="-16" xMax="615" yMax="736">
      <contour>
        <pt x="483" y="73" on="1"/>
        <pt x="482" y="71" on="0"/>
        <pt x="478" y="67" on="1"/>
        <pt x="441" y="30" on="0"/>
        <pt x="349" y="-12" on="0"/>
        <pt x="297" y="-12" on="1"/>
        <pt x="243" y="-12" on="0"/>
        <pt x="159" y="32" on="0"/>
        <pt x="101" y="110" on="0"/>
        <pt x="70" y="219" on="0"/>
        <pt x="70" y="284" on="1"/>
        <pt x="70" y="337" on="0"/>
        <pt x="89" y="443" on="0"/>
        <pt x="124" y="541" on="0"/>
        <pt x="174" y="626" on="0"/>
        <pt x="206" y="658" on="1"/>
        <pt x="244" y="696" on="0"/>
        <pt x="335" y="736" on="0"/>
        <pt x="388" y="736" on="1"/>
        <pt x="441" y="736" on="0"/>
        <pt x="525" y="692" on="0"/>
        <pt x="584" y="614" on="0"/>
        <pt x="615" y="506" on="0"/>
        <pt x="615" y="442" on="1"/>
        <pt x="615" y="351" on="0"/>
        <pt x="562" y="176" on="0"/>
        <pt x="514" y="110" on="1"/>
        <pt x="583" y="42" on="1"/>
        <pt x="569" y="-16" on="1"/>
      </contour>
      <contour>
        <pt x="298" y="35" on="1"/>
        <pt x="338" y="35" on="0"/>
        <pt x="410" y="68" on="0"/>
        <pt x="440" y="98" on="1"/>
        <pt x="446" y="104" on="0"/>
        <pt x="449" y="108" on="1"/>
        <pt x="336" y="219" on="1"/>
        <pt x="350" y="276" on="1"/>
        <pt x="479" y="145" on="1"/>
        <pt x="517" y="203" on="0"/>
        <pt x="561" y="358" on="0"/>
        <pt x="561" y="441" on="1"/>
        <pt x="561" y="557" on="0"/>
        <pt x="467" y="690" on="0"/>
        <pt x="386" y="690" on="1"/>
        <pt x="347" y="690" on="0"/>
        <pt x="275" y="657" on="0"/>
        <pt x="245" y="627" on="1"/>
        <pt x="218" y="599" on="0"/>
        <pt x="173" y="523" on="0"/>
        <pt x="141" y="434" on="0"/>
        <pt x="124" y="336" on="0"/>
        <pt x="124" y="285" on="1"/>
        <pt x="124" y="168" on="0"/>
        <pt x="218" y="35" on="0"/>
      </contour>
    </TTGlyph>
    <TTGlyph name="R" xMin="55" yMin="-7" xMax="493" yMax="725">
      <contour>
        <pt x="493" y="549" on="1"/>
        <pt x="493" y="505" on="0"/>
        <pt x="463" y="433" on="0"/>
        <pt x="412" y="378" on="0"/>
        <pt x="344" y="342" on="0"/>
        <pt x="305" y="335" on="1"/>
        <pt x="470" y="5" on="1"/>
        <pt x="417" y="-7" on="1"/>
        <pt x="251" y="326" on="1"/>
        <pt x="156" y="326" on="1"/>
        <pt x="107" y="0" on="1"/>
        <pt x="55" y="0" on="1"/>
        <pt x="163" y="725" on="1"/>
        <pt x="285" y="725" on="1"/>
        <pt x="387" y="725" on="0"/>
        <pt x="493" y="628" on="0"/>
      </contour>
      <contour>
        <pt x="441" y="547" on="1"/>
        <pt x="441" y="610" on="0"/>
        <pt x="358" y="679" on="0"/>
        <pt x="282" y="679" on="1"/>
        <pt x="208" y="679" on="1"/>
        <pt x="164" y="372" on="1"/>
        <pt x="238" y="372" on="1"/>
        <pt x="284" y="372" on="0"/>
        <pt x="359" y="398" on="0"/>
        <pt x="412" y="445" on="0"/>
        <pt x="441" y="509" on="0"/>
      </contour>
    </TTGlyph>
    <TTGlyph name="R.flat" xMin="55" yMin="0" xMax="493" yMax="725">
      <contour>
        <pt x="493" y="549" on="1"/>
        <pt x="493" y="505" on="0"/>
        <pt x="463" y="433" on="0"/>
        <pt x="412" y="378" on="0"/>
        <pt x="344" y="342" on="0"/>
        <pt x="305" y="335" on="1"/>
        <pt x="472" y="0" on="1"/>
        <pt x="414" y="0" on="1"/>
        <pt x="251" y="326" on="1"/>
        <pt x="156" y="326" on="1"/>
        <pt x="107" y="0" on="1"/>
        <pt x="55" y="0" on="1"/>
        <pt x="163" y="725" on="1"/>
        <pt x="285" y="725" on="1"/>
        <pt x="387" y="725" on="0"/>
        <pt x="493" y="628" on="0"/>
      </contour>
      <contour>
        <pt x="441" y="547" on="1"/>
        <pt x="441" y="610" on="0"/>
        <pt x="358" y="679" on="0"/>
        <pt x="282" y="679" on="1"/>
        <pt x="208" y="679" on="1"/>
        <pt x="164" y="372" on="1"/>
        <pt x="238" y="372" on="1"/>
        <pt x="284" y="372" on="0"/>
        <pt x="359" y="398" on="0"/>
        <pt x="412" y="445" on="0"/>
        <pt x="441" y="509" on="0"/>
      </contour>
    </TTGlyph>
    <TTGlyph name="R_p" xMin="60" yMin="-190" xMax="910" yMax="717">
      <contour>
        <pt x="256" y="323" on="1"/>
        <pt x="161" y="323" on="1"/>
        <pt x="112" y="0" on="1"/>
        <pt x="60" y="0" on="1"/>
        <pt x="168" y="717" on="1"/>
        <pt x="289" y="717" on="1"/>
        <pt x="391" y="717" on="0"/>
        <pt x="497" y="621" on="0"/>
        <pt x="497" y="542" on="1"/>
        <pt x="497" y="499" on="0"/>
        <pt x="468" y="428" on="0"/>
        <pt x="417" y="374" on="0"/>
        <pt x="348" y="339" on="0"/>
        <pt x="309" y="332" on="1"/>
        <pt x="464" y="5" on="1"/>
        <pt x="412" y="-7" on="1"/>
      </contour>
      <contour>
        <pt x="445" y="540" on="1"/>
        <pt x="445" y="603" on="0"/>
        <pt x="363" y="672" on="0"/>
        <pt x="286" y="672" on="1"/>
        <pt x="213" y="672" on="1"/>
        <pt x="168" y="369" on="1"/>
        <pt x="243" y="369" on="1"/>
        <pt x="289" y="369" on="0"/>
        <pt x="363" y="394" on="0"/>
        <pt x="416" y="440" on="0"/>
        <pt x="445" y="502" on="0"/>
      </contour>
      <contour>
        <pt x="587" y="58" on="1"/>
        <pt x="607" y="49" on="0"/>
        <pt x="645" y="38" on="0"/>
        <pt x="670" y="38" on="1"/>
        <pt x="708" y="38" on="0"/>
        <pt x="776" y="78" on="0"/>
        <pt x="827" y="151" on="0"/>
        <pt x="857" y="253" on="0"/>
        <pt x="857" y="315" on="1"/>
        <pt x="857" y="384" on="0"/>
        <pt x="814" y="460" on="0"/>
        <pt x="777" y="460" on="1"/>
        <pt x="745" y="460" on="0"/>
        <pt x="675" y="401" on="0"/>
        <pt x="627" y="338" on="1"/>
      </contour>
      <contour>
        <pt x="579" y="341" on="1"/>
        <pt x="579" y="494" on="1"/>
        <pt x="622" y="494" on="1"/>
        <pt x="627" y="393" on="1"/>
        <pt x="670" y="450" on="0"/>
        <pt x="740" y="506" on="0"/>
        <pt x="783" y="506" on="1"/>
        <pt x="843" y="506" on="0"/>
        <pt x="910" y="408" on="0"/>
        <pt x="910" y="318" on="1"/>
        <pt x="910" y="249" on="0"/>
        <pt x="873" y="131" on="0"/>
        <pt x="807" y="44" on="0"/>
        <pt x="719" y="-6" on="0"/>
        <pt x="668" y="-6" on="1"/>
        <pt x="642" y="-6" on="0"/>
        <pt x="597" y="5" on="0"/>
        <pt x="579" y="12" on="1"/>
        <pt x="551" y="-180" on="1"/>
        <pt x="499" y="-190" on="1"/>
      </contour>
    </TTGlyph>
    <TTGlyph name="R_p.flat" xMin="60" yMin="-190" xMax="910" yMax="717">
      <contour>
        <pt x="256" y="323" on="1"/>
        <pt x="161" y="323" on="1"/>
        <pt x="112" y="0" on="1"/>
        <pt x="60" y="0" on="1"/>
        <pt x="168" y="717" on="1"/>
        <pt x="289" y="717" on="1"/>
        <pt x="391" y="717" on="0"/>
        <pt x="497" y="621" on="0"/>
        <pt x="497" y="542" on="1"/>
        <pt x="497" y="499" on="0"/>
        <pt x="468" y="428" on="0"/>
        <pt x="417" y="374" on="0"/>
        <pt x="348" y="339" on="0"/>
        <pt x="309" y="332" on="1"/>
        <pt x="466" y="0" on="1"/>
        <pt x="408" y="0" on="1"/>
      </contour>
      <contour>
        <pt x="579" y="341" on="1"/>
        <pt x="579" y="494" on="1"/>
        <pt x="622" y="494" on="1"/>
        <pt x="627" y="393" on="1"/>
        <pt x="670" y="450" on="0"/>
        <pt x="740" y="506" on="0"/>
        <pt x="783" y="506" on="1"/>
        <pt x="843" y="506" on="0"/>
        <pt x="910" y="408" on="0"/>
        <pt x="910" y="318" on="1"/>
        <pt x="910" y="249" on="0"/>
        <pt x="873" y="131" on="0"/>
        <pt x="807" y="44" on="0"/>
        <pt x="719" y="-6" on="0"/>
        <pt x="668" y="-6" on="1"/>
        <pt x="642" y="-6" on="0"/>
        <pt x="597" y="5" on="0"/>
        <pt x="579" y="12" on="1"/>
        <pt x="551" y="-180" on="1"/>
        <pt x="499" y="-190" on="1"/>
      </contour>
      <contour>
        <pt x="587" y="58" on="1"/>
        <pt x="607" y="49" on="0"/>
        <pt x="645" y="38" on="0"/>
        <pt x="670" y="38" on="1"/>
        <pt x="708" y="38" on="0"/>
        <pt x="776" y="78" on="0"/>
        <pt x="827" y="151" on="0"/>
        <pt x="857" y="253" on="0"/>
        <pt x="857" y="315" on="1"/>
        <pt x="857" y="384" on="0"/>
        <pt x="814" y="460" on="0"/>
        <pt x="777" y="460" on="1"/>
        <pt x="745" y="460" on="0"/>
        <pt x="675" y="401" on="0"/>
        <pt x="627" y="338" on="1"/>
      </contour>
      <contour>
        <pt x="445" y="540" on="1"/>
        <pt x="445" y="603" on="0"/>
        <pt x="363" y="672" on="0"/>
        <pt x="286" y="672" on="1"/>
        <pt x="213" y="672" on="1"/>
        <pt x="168" y="369" on="1"/>
        <pt x="243" y="369" on="1"/>
        <pt x="289" y="369" on="0"/>
        <pt x="363" y="394" on="0"/>
        <pt x="416" y="440" on="0"/>
        <pt x="445" y="502" on="0"/>
      </contour>
    </TTGlyph>
    <TTGlyph name="Racute" xMin="55" yMin="-7" xMax="493" yMax="926">
      <component glyphName="R" x="0" y="0" flags="0x204"/>
      <component glyphName="acute.cap" x="102" y="215" flags="0x4"/>
    </TTGlyph>
    <TTGlyph name="Racute.flat" xMin="55" yMin="0" xMax="493" yMax="926">
      <component glyphName="acute.cap" x="102" y="215" flags="0x4"/>
      <component glyphName="R.flat" x="0" y="0" flags="0x4"/>
    </TTGlyph>
    <TTGlyph name="Rcaron" xMin="55" yMin="-7" xMax="493" yMax="924">
      <component glyphName="caron.cap" x="47" y="215" flags="0x4"/>
      <component glyphName="R" x="0" y="0" flags="0x4"/>
    </TTGlyph>
    <TTGlyph name="Rcaron.flat" xMin="55" yMin="0" xMax="493" yMax="924">
      <component glyphName="caron.cap" x="47" y="215" flags="0x4"/>
      <component glyphName="R.flat" x="0" y="0" flags="0x4"/>
    </TTGlyph>
    <TTGlyph name="Rcommaaccent" xMin="55" yMin="-230" xMax="493" yMax="725">
      <component glyphName="R" x="0" y="0" flags="0x204"/>
      <component glyphName="commaaccent.cap" x="48" y="1" flags="0x4"/>
    </TTGlyph>
    <TTGlyph name="Rcommaaccent.flat" xMin="55" yMin="-230" xMax="493" yMax="725">
      <component glyphName="R.flat" x="0" y="0" flags="0x204"/>
      <component glyphName="commaaccent.cap" x="48" y="1" flags="0x4"/>
    </TTGlyph>
    <TTGlyph name="S" xMin="23" yMin="-9" xMax="447" yMax="733">
      <contour>
        <pt x="435" y="636" on="1"/>
        <pt x="407" y="657" on="0"/>
        <pt x="336" y="687" on="0"/>
        <pt x="296" y="687" on="1"/>
        <pt x="266" y="687" on="0"/>
        <pt x="217" y="667" on="0"/>
        <pt x="182" y="631" on="0"/>
        <pt x="162" y="584" on="0"/>
        <pt x="162" y="557" on="1"/>
        <pt x="162" y="511" on="0"/>
        <pt x="216" y="440" on="0"/>
        <pt x="272" y="398" on="1"/>
        <pt x="339" y="347" on="0"/>
        <pt x="408" y="253" on="0"/>
        <pt x="408" y="191" on="1"/>
        <pt x="408" y="146" on="0"/>
        <pt x="376" y="72" on="0"/>
        <pt x="319" y="20" on="0"/>
        <pt x="243" y="-9" on="0"/>
        <pt x="200" y="-9" on="1"/>
        <pt x="143" y="-9" on="0"/>
        <pt x="55" y="28" on="0"/>
        <pt x="23" y="51" on="1"/>
        <pt x="35" y="103" on="1"/>
        <pt x="70" y="74" on="0"/>
        <pt x="154" y="38" on="0"/>
        <pt x="203" y="38" on="1"/>
        <pt x="235" y="38" on="0"/>
        <pt x="290" y="60" on="0"/>
        <pt x="331" y="99" on="0"/>
        <pt x="355" y="153" on="0"/>
        <pt x="355" y="185" on="1"/>
        <pt x="355" y="210" on="0"/>
        <pt x="343" y="251" on="0"/>
        <pt x="318" y="290" on="0"/>
        <pt x="277" y="329" on="0"/>
        <pt x="248" y="350" on="1"/>
        <pt x="214" y="376" on="0"/>
        <pt x="162" y="422" on="0"/>
        <pt x="127" y="470" on="0"/>
        <pt x="109" y="521" on="0"/>
        <pt x="109" y="552" on="1"/>
        <pt x="109" y="591" on="0"/>
        <pt x="137" y="657" on="0"/>
        <pt x="188" y="706" on="0"/>
        <pt x="258" y="733" on="0"/>
        <pt x="300" y="733" on="1"/>
        <pt x="345" y="733" on="0"/>
        <pt x="421" y="705" on="0"/>
        <pt x="447" y="688" on="1"/>
      </contour>
    </TTGlyph>
    <TTGlyph name="Sacute" xMin="23" yMin="-9" xMax="471" yMax="937">
      <component glyphName="S" x="0" y="0" flags="0x204"/>
      <component glyphName="acute.cap" x="96" y="226" flags="0x4"/>
    </TTGlyph>
    <TTGlyph name="Scaron" xMin="23" yMin="-9" xMax="449" yMax="935">
      <component glyphName="S" x="0" y="0" flags="0x204"/>
      <component glyphName="caron.cap" x="40" y="226" flags="0x4"/>
    </TTGlyph>
    <TTGlyph name="Scedilla" xMin="23" yMin="-194" xMax="447" yMax="733">
      <component glyphName="S" x="0" y="0" flags="0x204"/>
      <component glyphName="cedilla.cap" x="-7" y="0" flags="0x4"/>
    </TTGlyph>
    <TTGlyph name="Scommaaccent" xMin="23" yMin="-232" xMax="447" yMax="733">
      <component glyphName="S" x="0" y="0" flags="0x204"/>
      <component glyphName="commaaccent.cap" x="-3" y="-1" flags="0x4"/>
    </TTGlyph>
    <TTGlyph name="T" xMin="96" yMin="0" xMax="541" yMax="725">
      <contour>
        <pt x="342" y="678" on="1"/>
        <pt x="240" y="0" on="1"/>
        <pt x="189" y="0" on="1"/>
        <pt x="290" y="678" on="1"/>
        <pt x="96" y="678" on="1"/>
        <pt x="104" y="725" on="1"/>
        <pt x="541" y="725" on="1"/>
        <pt x="541" y="678" on="1"/>
      </contour>
    </TTGlyph>
    <TTGlyph name="T.flat" xMin="96" yMin="0" xMax="543" yMax="725">
      <contour>
        <pt x="342" y="678" on="1"/>
        <pt x="240" y="0" on="1"/>
        <pt x="189" y="0" on="1"/>
        <pt x="290" y="678" on="1"/>
        <pt x="96" y="678" on="1"/>
        <pt x="104" y="725" on="1"/>
        <pt x="543" y="725" on="1"/>
        <pt x="536" y="678" on="1"/>
      </contour>
    </TTGlyph>
    <TTGlyph name="Tcaron" xMin="96" yMin="0" xMax="541" yMax="924">
      <component glyphName="caron.cap" x="60" y="215" flags="0x4"/>
      <component glyphName="T" x="0" y="0" flags="0x4"/>
    </TTGlyph>
    <TTGlyph name="Tcaron.flat" xMin="96" yMin="0" xMax="543" yMax="924">
      <component glyphName="caron.cap" x="60" y="215" flags="0x4"/>
      <component glyphName="T.flat" x="0" y="0" flags="0x4"/>
    </TTGlyph>
    <TTGlyph name="Tcommaaccent" xMin="96" yMin="-231" xMax="541" yMax="725">
      <component glyphName="T" x="0" y="0" flags="0x204"/>
      <component glyphName="commaaccent.cap" x="20" y="0" flags="0x4"/>
    </TTGlyph>
    <TTGlyph name="Tcommaaccent.flat" xMin="96" yMin="-231" xMax="543" yMax="725">
      <component glyphName="T.flat" x="0" y="0" flags="0x204"/>
      <component glyphName="commaaccent.cap" x="20" y="0" flags="0x4"/>
    </TTGlyph>
    <TTGlyph name="Thorn" xMin="55" yMin="0" xMax="470" yMax="725">
      <contour>
        <pt x="470" y="396" on="1"/>
        <pt x="470" y="344" on="0"/>
        <pt x="432" y="259" on="0"/>
        <pt x="363" y="198" on="0"/>
        <pt x="267" y="165" on="0"/>
        <pt x="209" y="165" on="1"/>
        <pt x="132" y="165" on="1"/>
        <pt x="107" y="0" on="1"/>
        <pt x="55" y="0" on="1"/>
        <pt x="163" y="725" on="1"/>
        <pt x="216" y="725" on="1"/>
        <pt x="194" y="576" on="1"/>
        <pt x="261" y="576" on="1"/>
        <pt x="364" y="576" on="0"/>
        <pt x="470" y="481" on="0"/>
      </contour>
      <contour>
        <pt x="418" y="391" on="1"/>
        <pt x="418" y="458" on="0"/>
        <pt x="338" y="530" on="0"/>
        <pt x="258" y="530" on="1"/>
        <pt x="187" y="530" on="1"/>
        <pt x="140" y="212" on="1"/>
        <pt x="212" y="212" on="1"/>
        <pt x="262" y="212" on="0"/>
        <pt x="339" y="241" on="0"/>
        <pt x="391" y="290" on="0"/>
        <pt x="418" y="355" on="0"/>
      </contour>
    </TTGlyph>
    <TTGlyph name="U" xMin="84" yMin="-9" xMax="613" yMax="725">
      <contour>
        <pt x="542" y="240" on="1"/>
        <pt x="525" y="126" on="0"/>
        <pt x="398" y="-9" on="0"/>
        <pt x="292" y="-9" on="1"/>
        <pt x="194" y="-9" on="0"/>
        <pt x="84" y="100" on="0"/>
        <pt x="84" y="194" on="1"/>
        <pt x="84" y="214" on="0"/>
        <pt x="88" y="255" on="0"/>
        <pt x="92" y="281" on="1"/>
        <pt x="156" y="725" on="1"/>
        <pt x="209" y="725" on="1"/>
        <pt x="142" y="273" on="1"/>
        <pt x="136" y="228" on="0"/>
        <pt x="136" y="196" on="1"/>
        <pt x="136" y="162" on="0"/>
        <pt x="156" y="104" on="0"/>
        <pt x="195" y="61" on="0"/>
        <pt x="255" y="37" on="0"/>
        <pt x="294" y="37" on="1"/>
        <pt x="376" y="37" on="0"/>
        <pt x="474" y="144" on="0"/>
        <pt x="488" y="238" on="1"/>
        <pt x="562" y="725" on="1"/>
        <pt x="613" y="725" on="1"/>
      </contour>
    </TTGlyph>
    <TTGlyph name="U.alt" xMin="83" yMin="-8" xMax="596" yMax="725">
      <contour>
        <pt x="486" y="0" on="1"/>
        <pt x="452" y="0" on="1"/>
        <pt x="451" y="81" on="1"/>
        <pt x="403" y="43" on="0"/>
        <pt x="296" y="-8" on="0"/>
        <pt x="242" y="-8" on="1"/>
        <pt x="167" y="-8" on="0"/>
        <pt x="83" y="71" on="0"/>
        <pt x="83" y="146" on="1"/>
        <pt x="83" y="157" on="0"/>
        <pt x="85" y="181" on="0"/>
        <pt x="87" y="193" on="1"/>
        <pt x="166" y="725" on="1"/>
        <pt x="219" y="725" on="1"/>
        <pt x="139" y="194" on="1"/>
        <pt x="136" y="173" on="0"/>
        <pt x="136" y="155" on="1"/>
        <pt x="136" y="99" on="0"/>
        <pt x="195" y="38" on="0"/>
        <pt x="249" y="38" on="1"/>
        <pt x="340" y="38" on="0"/>
        <pt x="455" y="132" on="1"/>
        <pt x="543" y="725" on="1"/>
        <pt x="596" y="725" on="1"/>
      </contour>
    </TTGlyph>
    <TTGlyph name="Uacute" xMin="84" yMin="-9" xMax="613" yMax="925">
      <component glyphName="acute.cap" x="176" y="214" flags="0x4"/>
      <component glyphName="U" x="0" y="0" flags="0x4"/>
    </TTGlyph>
    <TTGlyph name="Uacute.alt" xMin="83" yMin="-8" xMax="596" yMax="925">
      <component glyphName="acute.cap" x="174" y="214" flags="0x4"/>
      <component glyphName="U.alt" x="0" y="0" flags="0x4"/>
    </TTGlyph>
    <TTGlyph name="Ubreve" xMin="84" yMin="-9" xMax="613" yMax="893">
      <component glyphName="breve.cap" x="117" y="207" flags="0x4"/>
      <component glyphName="U" x="0" y="0" flags="0x4"/>
    </TTGlyph>
    <TTGlyph name="Ubreve.alt" xMin="83" yMin="-8" xMax="596" yMax="893">
      <component glyphName="breve.cap" x="115" y="207" flags="0x4"/>
      <component glyphName="U.alt" x="0" y="0" flags="0x4"/>
    </TTGlyph>
    <TTGlyph name="Ucircumflex" xMin="84" yMin="-9" xMax="613" yMax="923">
      <component glyphName="U" x="0" y="0" flags="0x204"/>
      <component glyphName="circumflex.cap" x="122" y="214" flags="0x4"/>
    </TTGlyph>
    <TTGlyph name="Ucircumflex.alt" xMin="83" yMin="-8" xMax="596" yMax="923">
      <component glyphName="circumflex.cap" x="120" y="214" flags="0x4"/>
      <component glyphName="U.alt" x="0" y="0" flags="0x4"/>
    </TTGlyph>
    <TTGlyph name="Udieresis" xMin="84" yMin="-9" xMax="613" yMax="868">
      <component glyphName="dieresis.cap" x="120" y="214" flags="0x4"/>
      <component glyphName="U" x="0" y="0" flags="0x4"/>
    </TTGlyph>
    <TTGlyph name="Udieresis.alt" xMin="83" yMin="-8" xMax="596" yMax="868">
      <component glyphName="dieresis.cap" x="118" y="214" flags="0x4"/>
      <component glyphName="U.alt" x="0" y="0" flags="0x4"/>
    </TTGlyph>
    <TTGlyph name="Ugrave" xMin="84" yMin="-9" xMax="613" yMax="926">
      <component glyphName="grave.cap" x="62" y="214" flags="0x4"/>
      <component glyphName="U" x="0" y="0" flags="0x4"/>
    </TTGlyph>
    <TTGlyph name="Ugrave.alt" xMin="83" yMin="-8" xMax="596" yMax="926">
      <component glyphName="grave.cap" x="60" y="214" flags="0x4"/>
      <component glyphName="U.alt" x="0" y="0" flags="0x4"/>
    </TTGlyph>
    <TTGlyph name="Uhungarumlaut" xMin="84" yMin="-9" xMax="621" yMax="928">
      <component glyphName="U" x="0" y="0" flags="0x204"/>
      <component glyphName="hungarumlaut.cap" x="177" y="214" flags="0x4"/>
    </TTGlyph>
    <TTGlyph name="Uhungarumlaut.alt" xMin="83" yMin="-8" xMax="620" yMax="928">
      <component glyphName="U.alt" x="0" y="0" flags="0x204"/>
      <component glyphName="hungarumlaut.cap" x="176" y="214" flags="0x4"/>
    </TTGlyph>
    <TTGlyph name="Umacron" xMin="84" yMin="-9" xMax="613" yMax="855">
      <component glyphName="macron.cap" x="119" y="214" flags="0x4"/>
      <component glyphName="U" x="0" y="0" flags="0x4"/>
    </TTGlyph>
    <TTGlyph name="Umacron.alt" xMin="83" yMin="-8" xMax="596" yMax="855">
      <component glyphName="macron.cap" x="118" y="214" flags="0x4"/>
      <component glyphName="U.alt" x="0" y="0" flags="0x4"/>
    </TTGlyph>
    <TTGlyph name="Uogonek" xMin="84" yMin="-171" xMax="613" yMax="725">
      <contour>
        <pt x="542" y="240" on="1"/>
        <pt x="525" y="130" on="0"/>
        <pt x="408" y="-3" on="0"/>
        <pt x="309" y="-9" on="1"/>
        <pt x="293" y="-25" on="1"/>
        <pt x="268" y="-50" on="0"/>
        <pt x="248" y="-87" on="0"/>
        <pt x="248" y="-103" on="1"/>
        <pt x="248" y="-117" on="0"/>
        <pt x="264" y="-134" on="0"/>
        <pt x="284" y="-134" on="1"/>
        <pt x="303" y="-134" on="0"/>
        <pt x="325" y="-126" on="1"/>
        <pt x="324" y="-161" on="1"/>
        <pt x="310" y="-166" on="0"/>
        <pt x="282" y="-171" on="0"/>
        <pt x="268" y="-171" on="1"/>
        <pt x="235" y="-171" on="0"/>
        <pt x="200" y="-141" on="0"/>
        <pt x="200" y="-114" on="1"/>
        <pt x="200" y="-68" on="0"/>
        <pt x="264" y="-8" on="1"/>
        <pt x="179" y="0" on="0"/>
        <pt x="84" y="107" on="0"/>
        <pt x="84" y="194" on="1"/>
        <pt x="84" y="214" on="0"/>
        <pt x="88" y="255" on="0"/>
        <pt x="92" y="281" on="1"/>
        <pt x="156" y="725" on="1"/>
        <pt x="209" y="725" on="1"/>
        <pt x="142" y="273" on="1"/>
        <pt x="136" y="228" on="0"/>
        <pt x="136" y="196" on="1"/>
        <pt x="136" y="162" on="0"/>
        <pt x="156" y="104" on="0"/>
        <pt x="195" y="61" on="0"/>
        <pt x="255" y="37" on="0"/>
        <pt x="294" y="37" on="1"/>
        <pt x="376" y="37" on="0"/>
        <pt x="474" y="144" on="0"/>
        <pt x="488" y="238" on="1"/>
        <pt x="562" y="725" on="1"/>
        <pt x="613" y="725" on="1"/>
      </contour>
    </TTGlyph>
    <TTGlyph name="Uogonek.alt" xMin="83" yMin="-171" xMax="596" yMax="725">
      <contour>
        <pt x="491" y="-161" on="1"/>
        <pt x="477" y="-166" on="0"/>
        <pt x="449" y="-171" on="0"/>
        <pt x="435" y="-171" on="1"/>
        <pt x="402" y="-171" on="0"/>
        <pt x="367" y="-141" on="0"/>
        <pt x="367" y="-114" on="1"/>
        <pt x="367" y="-68" on="0"/>
        <pt x="431" y="-8" on="1"/>
        <pt x="452" y="12" on="1"/>
        <pt x="451" y="81" on="1"/>
        <pt x="403" y="43" on="0"/>
        <pt x="296" y="-8" on="0"/>
        <pt x="242" y="-8" on="1"/>
        <pt x="167" y="-8" on="0"/>
        <pt x="83" y="71" on="0"/>
        <pt x="83" y="146" on="1"/>
        <pt x="83" y="157" on="0"/>
        <pt x="85" y="181" on="0"/>
        <pt x="87" y="193" on="1"/>
        <pt x="166" y="725" on="1"/>
        <pt x="219" y="725" on="1"/>
        <pt x="139" y="194" on="1"/>
        <pt x="136" y="173" on="0"/>
        <pt x="136" y="155" on="1"/>
        <pt x="136" y="99" on="0"/>
        <pt x="195" y="38" on="0"/>
        <pt x="249" y="38" on="1"/>
        <pt x="340" y="38" on="0"/>
        <pt x="455" y="132" on="1"/>
        <pt x="543" y="725" on="1"/>
        <pt x="596" y="725" on="1"/>
        <pt x="487" y="3" on="1"/>
        <pt x="486" y="2" on="1"/>
        <pt x="486" y="0" on="1"/>
        <pt x="484" y="0" on="1"/>
        <pt x="460" y="-25" on="1"/>
        <pt x="435" y="-50" on="0"/>
        <pt x="415" y="-87" on="0"/>
        <pt x="415" y="-103" on="1"/>
        <pt x="415" y="-117" on="0"/>
        <pt x="431" y="-134" on="0"/>
        <pt x="451" y="-134" on="1"/>
        <pt x="470" y="-134" on="0"/>
        <pt x="492" y="-126" on="1"/>
        <pt x="491" y="-161" on="1"/>
      </contour>
    </TTGlyph>
    <TTGlyph name="Uring" xMin="84" yMin="-9" xMax="613" yMax="952">
      <component glyphName="U" x="0" y="0" flags="0x4"/>
      <component glyphName="ring.cap" x="119" y="204" flags="0x4"/>
    </TTGlyph>
    <TTGlyph name="Uring.alt" xMin="83" yMin="-8" xMax="596" yMax="957">
      <component glyphName="ring.cap" x="119" y="209" flags="0x4"/>
      <component glyphName="U.alt" x="0" y="0" flags="0x4"/>
    </TTGlyph>
    <TTGlyph name="V" xMin="113" yMin="-4" xMax="627" yMax="731">
      <contour>
        <pt x="282" y="-4" on="1"/>
        <pt x="237" y="-4" on="1"/>
        <pt x="113" y="720" on="1"/>
        <pt x="164" y="731" on="1"/>
        <pt x="272" y="75" on="1"/>
        <pt x="571" y="725" on="1"/>
        <pt x="627" y="725" on="1"/>
      </contour>
    </TTGlyph>
    <TTGlyph name="V.flat" xMin="112" yMin="-4" xMax="627" yMax="725">
      <contour>
        <pt x="282" y="-4" on="1"/>
        <pt x="237" y="-4" on="1"/>
        <pt x="112" y="725" on="1"/>
        <pt x="165" y="725" on="1"/>
        <pt x="272" y="75" on="1"/>
        <pt x="571" y="725" on="1"/>
        <pt x="627" y="725" on="1"/>
      </contour>
    </TTGlyph>
    <TTGlyph name="W" xMin="122" yMin="-2" xMax="933" yMax="731">
      <contour>
        <pt x="642" y="-2" on="1"/>
        <pt x="598" y="-2" on="1"/>
        <pt x="514" y="639" on="1"/>
        <pt x="240" y="-2" on="1"/>
        <pt x="196" y="-2" on="1"/>
        <pt x="122" y="720" on="1"/>
        <pt x="173" y="731" on="1"/>
        <pt x="232" y="89" on="1"/>
        <pt x="501" y="725" on="1"/>
        <pt x="551" y="725" on="1"/>
        <pt x="632" y="89" on="1"/>
        <pt x="879" y="725" on="1"/>
        <pt x="933" y="725" on="1"/>
      </contour>
    </TTGlyph>
    <TTGlyph name="W.alt" xMin="112" yMin="-4" xMax="922" yMax="731">
      <contour>
        <pt x="579" y="77" on="1"/>
        <pt x="866" y="725" on="1"/>
        <pt x="922" y="725" on="1"/>
        <pt x="590" y="-4" on="1"/>
        <pt x="545" y="-4" on="1"/>
        <pt x="475" y="443" on="1"/>
        <pt x="270" y="-4" on="1"/>
        <pt x="227" y="-4" on="1"/>
        <pt x="112" y="720" on="1"/>
        <pt x="164" y="731" on="1"/>
        <pt x="260" y="77" on="1"/>
        <pt x="463" y="517" on="1"/>
        <pt x="430" y="720" on="1"/>
        <pt x="481" y="731" on="1"/>
      </contour>
    </TTGlyph>
    <TTGlyph name="W.alt_flat" xMin="111" yMin="-4" xMax="922" yMax="725">
      <contour>
        <pt x="579" y="77" on="1"/>
        <pt x="866" y="725" on="1"/>
        <pt x="922" y="725" on="1"/>
        <pt x="590" y="-4" on="1"/>
        <pt x="545" y="-4" on="1"/>
        <pt x="475" y="443" on="1"/>
        <pt x="270" y="-4" on="1"/>
        <pt x="227" y="-4" on="1"/>
        <pt x="111" y="725" on="1"/>
        <pt x="164" y="725" on="1"/>
        <pt x="260" y="77" on="1"/>
        <pt x="463" y="517" on="1"/>
        <pt x="429" y="725" on="1"/>
        <pt x="482" y="725" on="1"/>
      </contour>
    </TTGlyph>
    <TTGlyph name="W.flat" xMin="122" yMin="-2" xMax="933" yMax="725">
      <contour>
        <pt x="642" y="-2" on="1"/>
        <pt x="598" y="-2" on="1"/>
        <pt x="514" y="639" on="1"/>
        <pt x="240" y="-2" on="1"/>
        <pt x="196" y="-2" on="1"/>
        <pt x="122" y="725" on="1"/>
        <pt x="174" y="725" on="1"/>
        <pt x="232" y="89" on="1"/>
        <pt x="501" y="725" on="1"/>
        <pt x="551" y="725" on="1"/>
        <pt x="632" y="89" on="1"/>
        <pt x="879" y="725" on="1"/>
        <pt x="933" y="725" on="1"/>
      </contour>
    </TTGlyph>
    <TTGlyph name="Wacute" xMin="122" yMin="-2" xMax="933" yMax="926">
      <component glyphName="acute.cap" x="319" y="215" flags="0x4"/>
      <component glyphName="W" x="0" y="0" flags="0x4"/>
    </TTGlyph>
    <TTGlyph name="Wacute.alt" xMin="112" yMin="-4" xMax="922" yMax="926">
      <component glyphName="acute.cap" x="293" y="215" flags="0x4"/>
      <component glyphName="W.alt" x="0" y="0" flags="0x4"/>
    </TTGlyph>
    <TTGlyph name="Wacute.alt_flat" xMin="111" yMin="-4" xMax="922" yMax="926">
      <component glyphName="acute.cap" x="293" y="215" flags="0x4"/>
      <component glyphName="W.alt_flat" x="0" y="0" flags="0x4"/>
    </TTGlyph>
    <TTGlyph name="Wacute.flat" xMin="122" yMin="-2" xMax="933" yMax="926">
      <component glyphName="acute.cap" x="319" y="215" flags="0x4"/>
      <component glyphName="W.flat" x="0" y="0" flags="0x4"/>
    </TTGlyph>
    <TTGlyph name="Wcircumflex" xMin="122" yMin="-2" xMax="933" yMax="924">
      <component glyphName="W" x="0" y="0" flags="0x204"/>
      <component glyphName="circumflex.cap" x="265" y="215" flags="0x4"/>
    </TTGlyph>
    <TTGlyph name="Wcircumflex.alt" xMin="112" yMin="-4" xMax="922" yMax="924">
      <component glyphName="W.alt" x="0" y="0" flags="0x204"/>
      <component glyphName="circumflex.cap" x="237" y="215" flags="0x4"/>
    </TTGlyph>
    <TTGlyph name="Wcircumflex.alt_flat" xMin="111" yMin="-4" xMax="922" yMax="924">
      <component glyphName="W.alt_flat" x="0" y="0" flags="0x204"/>
      <component glyphName="circumflex.cap" x="237" y="215" flags="0x4"/>
    </TTGlyph>
    <TTGlyph name="Wcircumflex.flat" xMin="122" yMin="-2" xMax="933" yMax="924">
      <component glyphName="W.flat" x="0" y="0" flags="0x204"/>
      <component glyphName="circumflex.cap" x="265" y="215" flags="0x4"/>
    </TTGlyph>
    <TTGlyph name="Wdieresis" xMin="122" yMin="-2" xMax="933" yMax="869">
      <component glyphName="dieresis.cap" x="263" y="215" flags="0x4"/>
      <component glyphName="W" x="0" y="0" flags="0x4"/>
    </TTGlyph>
    <TTGlyph name="Wdieresis.alt" xMin="112" yMin="-4" xMax="922" yMax="869">
      <component glyphName="dieresis.cap" x="236" y="215" flags="0x4"/>
      <component glyphName="W.alt" x="0" y="0" flags="0x4"/>
    </TTGlyph>
    <TTGlyph name="Wdieresis.alt_flat" xMin="111" yMin="-4" xMax="922" yMax="869">
      <component glyphName="dieresis.cap" x="236" y="215" flags="0x4"/>
      <component glyphName="W.alt_flat" x="0" y="0" flags="0x4"/>
    </TTGlyph>
    <TTGlyph name="Wdieresis.flat" xMin="122" yMin="-2" xMax="933" yMax="869">
      <component glyphName="dieresis.cap" x="263" y="215" flags="0x4"/>
      <component glyphName="W.flat" x="0" y="0" flags="0x4"/>
    </TTGlyph>
    <TTGlyph name="Wgrave" xMin="122" yMin="-2" xMax="933" yMax="927">
      <component glyphName="grave.cap" x="204" y="215" flags="0x4"/>
      <component glyphName="W" x="0" y="0" flags="0x4"/>
    </TTGlyph>
    <TTGlyph name="Wgrave.alt" xMin="112" yMin="-4" xMax="922" yMax="927">
      <component glyphName="grave.cap" x="178" y="215" flags="0x4"/>
      <component glyphName="W.alt" x="0" y="0" flags="0x4"/>
    </TTGlyph>
    <TTGlyph name="Wgrave.alt_flat" xMin="111" yMin="-4" xMax="922" yMax="927">
      <component glyphName="grave.cap" x="178" y="215" flags="0x4"/>
      <component glyphName="W.alt_flat" x="0" y="0" flags="0x4"/>
    </TTGlyph>
    <TTGlyph name="Wgrave.flat" xMin="122" yMin="-2" xMax="933" yMax="927">
      <component glyphName="grave.cap" x="204" y="215" flags="0x4"/>
      <component glyphName="W.flat" x="0" y="0" flags="0x4"/>
    </TTGlyph>
    <TTGlyph name="X" xMin="2" yMin="-5" xMax="581" yMax="730">
      <contour>
        <pt x="331" y="375" on="1"/>
        <pt x="491" y="6" on="1"/>
        <pt x="438" y="-5" on="1"/>
        <pt x="297" y="335" on="1"/>
        <pt x="61" y="0" on="1"/>
        <pt x="2" y="0" on="1"/>
        <pt x="276" y="379" on="1"/>
        <pt x="129" y="719" on="1"/>
        <pt x="180" y="730" on="1"/>
        <pt x="311" y="421" on="1"/>
        <pt x="522" y="725" on="1"/>
        <pt x="581" y="725" on="1"/>
      </contour>
    </TTGlyph>
    <TTGlyph name="X.flat" xMin="2" yMin="0" xMax="581" yMax="725">
      <contour>
        <pt x="331" y="375" on="1"/>
        <pt x="493" y="0" on="1"/>
        <pt x="436" y="0" on="1"/>
        <pt x="297" y="335" on="1"/>
        <pt x="61" y="0" on="1"/>
        <pt x="2" y="0" on="1"/>
        <pt x="276" y="379" on="1"/>
        <pt x="126" y="725" on="1"/>
        <pt x="183" y="725" on="1"/>
        <pt x="310" y="420" on="1"/>
        <pt x="522" y="725" on="1"/>
        <pt x="581" y="725" on="1"/>
      </contour>
    </TTGlyph>
    <TTGlyph name="Y" xMin="105" yMin="0" xMax="590" yMax="731">
      <contour>
        <pt x="310" y="307" on="1"/>
        <pt x="264" y="0" on="1"/>
        <pt x="213" y="0" on="1"/>
        <pt x="259" y="306" on="1"/>
        <pt x="105" y="720" on="1"/>
        <pt x="157" y="731" on="1"/>
        <pt x="292" y="357" on="1"/>
        <pt x="531" y="725" on="1"/>
        <pt x="590" y="725" on="1"/>
      </contour>
    </TTGlyph>
    <TTGlyph name="Y.flat" xMin="103" yMin="0" xMax="590" yMax="725">
      <contour>
        <pt x="310" y="307" on="1"/>
        <pt x="264" y="0" on="1"/>
        <pt x="213" y="0" on="1"/>
        <pt x="259" y="306" on="1"/>
        <pt x="103" y="725" on="1"/>
        <pt x="159" y="725" on="1"/>
        <pt x="292" y="357" on="1"/>
        <pt x="531" y="725" on="1"/>
        <pt x="590" y="725" on="1"/>
      </contour>
    </TTGlyph>
    <TTGlyph name="Yacute" xMin="105" yMin="0" xMax="590" yMax="925">
      <component glyphName="Y" x="0" y="0" flags="0x204"/>
      <component glyphName="acute.cap" x="140" y="214" flags="0x4"/>
    </TTGlyph>
    <TTGlyph name="Yacute.flat" xMin="103" yMin="0" xMax="590" yMax="925">
      <component glyphName="acute.cap" x="140" y="214" flags="0x4"/>
      <component glyphName="Y.flat" x="0" y="0" flags="0x4"/>
    </TTGlyph>
    <TTGlyph name="Ycircumflex" xMin="105" yMin="0" xMax="590" yMax="923">
      <component glyphName="Y" x="0" y="0" flags="0x204"/>
      <component glyphName="circumflex.cap" x="84" y="214" flags="0x4"/>
    </TTGlyph>
    <TTGlyph name="Ycircumflex.flat" xMin="103" yMin="0" xMax="590" yMax="923">
      <component glyphName="Y.flat" x="0" y="0" flags="0x204"/>
      <component glyphName="circumflex.cap" x="84" y="214" flags="0x4"/>
    </TTGlyph>
    <TTGlyph name="Ydieresis" xMin="105" yMin="0" xMax="590" yMax="868">
      <component glyphName="Y" x="0" y="0" flags="0x204"/>
      <component glyphName="dieresis.cap" x="83" y="214" flags="0x4"/>
    </TTGlyph>
    <TTGlyph name="Ydieresis.flat" xMin="103" yMin="0" xMax="590" yMax="868">
      <component glyphName="dieresis.cap" x="83" y="214" flags="0x4"/>
      <component glyphName="Y.flat" x="0" y="0" flags="0x4"/>
    </TTGlyph>
    <TTGlyph name="Ygrave" xMin="105" yMin="0" xMax="590" yMax="926">
      <component glyphName="Y" x="0" y="0" flags="0x204"/>
      <component glyphName="grave.cap" x="25" y="214" flags="0x4"/>
    </TTGlyph>
    <TTGlyph name="Ygrave.flat" xMin="103" yMin="0" xMax="590" yMax="926">
      <component glyphName="grave.cap" x="25" y="214" flags="0x4"/>
      <component glyphName="Y.flat" x="0" y="0" flags="0x4"/>
    </TTGlyph>
    <TTGlyph name="Z" xMin="25" yMin="0" xMax="545" yMax="725">
      <contour>
        <pt x="541" y="690" on="1"/>
        <pt x="94" y="45" on="1"/>
        <pt x="448" y="45" on="1"/>
        <pt x="448" y="0" on="1"/>
        <pt x="25" y="0" on="1"/>
        <pt x="29" y="34" on="1"/>
        <pt x="477" y="680" on="1"/>
        <pt x="147" y="680" on="1"/>
        <pt x="147" y="725" on="1"/>
        <pt x="545" y="725" on="1"/>
      </contour>
    </TTGlyph>
    <TTGlyph name="Z.flat" xMin="25" yMin="0" xMax="545" yMax="725">
      <contour>
        <pt x="541" y="690" on="1"/>
        <pt x="94" y="45" on="1"/>
        <pt x="451" y="45" on="1"/>
        <pt x="444" y="0" on="1"/>
        <pt x="25" y="0" on="1"/>
        <pt x="29" y="34" on="1"/>
        <pt x="477" y="680" on="1"/>
        <pt x="144" y="680" on="1"/>
        <pt x="151" y="725" on="1"/>
        <pt x="545" y="725" on="1"/>
      </contour>
    </TTGlyph>
    <TTGlyph name="Zacute" xMin="25" yMin="0" xMax="545" yMax="926">
      <component glyphName="Z" x="0" y="0" flags="0x204"/>
      <component glyphName="acute.cap" x="131" y="215" flags="0x4"/>
    </TTGlyph>
    <TTGlyph name="Zacute.flat" xMin="25" yMin="0" xMax="545" yMax="926">
      <component glyphName="acute.cap" x="131" y="215" flags="0x4"/>
      <component glyphName="Z.flat" x="0" y="0" flags="0x4"/>
    </TTGlyph>
    <TTGlyph name="Zcaron" xMin="25" yMin="0" xMax="545" yMax="924">
      <component glyphName="caron.cap" x="75" y="215" flags="0x4"/>
      <component glyphName="Z" x="0" y="0" flags="0x4"/>
    </TTGlyph>
    <TTGlyph name="Zcaron.flat" xMin="25" yMin="0" xMax="545" yMax="924">
      <component glyphName="caron.cap" x="75" y="215" flags="0x4"/>
      <component glyphName="Z.flat" x="0" y="0" flags="0x4"/>
    </TTGlyph>
    <TTGlyph name="Zdotaccent" xMin="25" yMin="0" xMax="545" yMax="869">
      <component glyphName="dotaccent.cap" x="75" y="215" flags="0x4"/>
      <component glyphName="Z" x="0" y="0" flags="0x4"/>
    </TTGlyph>
    <TTGlyph name="Zdotaccent.flat" xMin="25" yMin="0" xMax="545" yMax="869">
      <component glyphName="dotaccent.cap" x="75" y="215" flags="0x4"/>
      <component glyphName="Z.flat" x="0" y="0" flags="0x4"/>
    </TTGlyph>
    <TTGlyph name="a" xMin="47" yMin="-11" xMax="453" yMax="533">
      <contour>
        <pt x="349" y="114" on="1"/>
        <pt x="298" y="55" on="0"/>
        <pt x="211" y="-11" on="0"/>
        <pt x="169" y="-11" on="1"/>
        <pt x="111" y="-11" on="0"/>
        <pt x="47" y="80" on="0"/>
        <pt x="47" y="165" on="1"/>
        <pt x="47" y="240" on="0"/>
        <pt x="87" y="374" on="0"/>
        <pt x="159" y="475" on="0"/>
        <pt x="257" y="533" on="0"/>
        <pt x="315" y="533" on="1"/>
        <pt x="384" y="533" on="0"/>
        <pt x="453" y="500" on="1"/>
        <pt x="398" y="146" on="1"/>
        <pt x="398" y="0" on="1"/>
        <pt x="354" y="0" on="1"/>
      </contour>
      <contour>
        <pt x="398" y="470" on="1"/>
        <pt x="376" y="480" on="0"/>
        <pt x="335" y="488" on="0"/>
        <pt x="309" y="488" on="1"/>
        <pt x="265" y="488" on="0"/>
        <pt x="189" y="440" on="0"/>
        <pt x="132" y="355" on="0"/>
        <pt x="99" y="238" on="0"/>
        <pt x="99" y="169" on="1"/>
        <pt x="99" y="100" on="0"/>
        <pt x="139" y="35" on="0"/>
        <pt x="175" y="35" on="1"/>
        <pt x="210" y="35" on="0"/>
        <pt x="291" y="103" on="0"/>
        <pt x="351" y="169" on="1"/>
      </contour>
    </TTGlyph>
    <TTGlyph name="a.alt" xMin="29" yMin="-10" xMax="411" yMax="538">
      <contour>
        <pt x="356" y="374" on="1"/>
        <pt x="358" y="383" on="0"/>
        <pt x="358" y="400" on="0"/>
        <pt x="358" y="408" on="1"/>
        <pt x="358" y="452" on="0"/>
        <pt x="318" y="492" on="0"/>
        <pt x="273" y="492" on="1"/>
        <pt x="236" y="492" on="0"/>
        <pt x="161" y="468" on="0"/>
        <pt x="118" y="446" on="1"/>
        <pt x="118" y="495" on="1"/>
        <pt x="153" y="512" on="0"/>
        <pt x="234" y="538" on="0"/>
        <pt x="279" y="538" on="1"/>
        <pt x="343" y="538" on="0"/>
        <pt x="411" y="474" on="0"/>
        <pt x="411" y="415" on="1"/>
        <pt x="411" y="398" on="0"/>
        <pt x="408" y="380" on="1"/>
        <pt x="370" y="134" on="1"/>
        <pt x="370" y="0" on="1"/>
        <pt x="326" y="0" on="1"/>
        <pt x="321" y="95" on="1"/>
        <pt x="285" y="53" on="0"/>
        <pt x="200" y="-10" on="0"/>
        <pt x="150" y="-10" on="1"/>
        <pt x="96" y="-10" on="0"/>
        <pt x="29" y="58" on="0"/>
        <pt x="29" y="113" on="1"/>
        <pt x="29" y="155" on="0"/>
        <pt x="64" y="228" on="0"/>
        <pt x="141" y="284" on="0"/>
        <pt x="262" y="323" on="0"/>
        <pt x="349" y="332" on="1"/>
      </contour>
      <contour>
        <pt x="155" y="35" on="1"/>
        <pt x="194" y="35" on="0"/>
        <pt x="276" y="95" on="0"/>
        <pt x="321" y="149" on="1"/>
        <pt x="343" y="289" on="1"/>
        <pt x="271" y="282" on="0"/>
        <pt x="171" y="251" on="0"/>
        <pt x="108" y="206" on="0"/>
        <pt x="80" y="149" on="0"/>
        <pt x="80" y="116" on="1"/>
        <pt x="80" y="82" on="0"/>
        <pt x="118" y="35" on="0"/>
      </contour>
    </TTGlyph>
    <TTGlyph name="aacute" xMin="47" yMin="-11" xMax="487" yMax="760">
      <component glyphName="a" x="0" y="0" flags="0x204"/>
      <component glyphName="acute" x="88" y="3" flags="0x4"/>
    </TTGlyph>
    <TTGlyph name="aacute.alt" xMin="29" yMin="-10" xMax="459" yMax="760">
      <component glyphName="acute" x="60" y="3" flags="0x4"/>
      <component glyphName="a.alt" x="0" y="0" flags="0x4"/>
    </TTGlyph>
    <TTGlyph name="abreve" xMin="47" yMin="-11" xMax="455" yMax="733">
      <component glyphName="a" x="0" y="0" flags="0x204"/>
      <component glyphName="breve" x="25" y="3" flags="0x4"/>
    </TTGlyph>
    <TTGlyph name="abreve.alt" xMin="29" yMin="-10" xMax="427" yMax="733">
      <component glyphName="a.alt" x="0" y="0" flags="0x204"/>
      <component glyphName="breve" x="-3" y="3" flags="0x4"/>
    </TTGlyph>
    <TTGlyph name="acircumflex" xMin="47" yMin="-11" xMax="453" yMax="759">
      <component glyphName="a" x="0" y="0" flags="0x204"/>
      <component glyphName="circumflex" x="29" y="3" flags="0x4"/>
    </TTGlyph>
    <TTGlyph name="acircumflex.alt" xMin="29" yMin="-10" xMax="411" yMax="759">
      <component glyphName="circumflex" x="1" y="3" flags="0x4"/>
      <component glyphName="a.alt" x="0" y="0" flags="0x4"/>
    </TTGlyph>
    <TTGlyph name="acute" xMin="203" yMin="601" xMax="399" yMax="757">
      <contour>
        <pt x="245" y="601" on="1"/>
        <pt x="203" y="601" on="1"/>
        <pt x="328" y="757" on="1"/>
        <pt x="399" y="739" on="1"/>
      </contour>
    </TTGlyph>
    <TTGlyph name="acute.cap" xMin="190" yMin="564" xMax="375" yMax="711">
      <contour>
        <pt x="232" y="564" on="1"/>
        <pt x="190" y="564" on="1"/>
        <pt x="306" y="711" on="1"/>
        <pt x="375" y="693" on="1"/>
      </contour>
    </TTGlyph>
    <TTGlyph name="adieresis" xMin="47" yMin="-11" xMax="453" yMax="699">
      <component glyphName="a" x="0" y="0" flags="0x204"/>
      <component glyphName="dieresis" x="28" y="3" flags="0x4"/>
    </TTGlyph>
    <TTGlyph name="adieresis.alt" xMin="29" yMin="-10" xMax="418" yMax="699">
      <component glyphName="dieresis" x="0" y="3" flags="0x4"/>
      <component glyphName="a.alt" x="0" y="0" flags="0x4"/>
    </TTGlyph>
    <TTGlyph name="ae" xMin="29" yMin="-10" xMax="713" yMax="538">
      <contour>
        <pt x="713" y="355" on="1"/>
        <pt x="713" y="329" on="0"/>
        <pt x="707" y="281" on="0"/>
        <pt x="703" y="261" on="1"/>
        <pt x="391" y="261" on="1"/>
        <pt x="388" y="235" on="0"/>
        <pt x="388" y="209" on="1"/>
        <pt x="388" y="126" on="0"/>
        <pt x="457" y="37" on="0"/>
        <pt x="514" y="37" on="1"/>
        <pt x="590" y="37" on="0"/>
        <pt x="668" y="97" on="1"/>
        <pt x="668" y="45" on="1"/>
        <pt x="633" y="20" on="0"/>
        <pt x="555" y="-10" on="0"/>
        <pt x="510" y="-10" on="1"/>
        <pt x="455" y="-10" on="0"/>
        <pt x="376" y="46" on="0"/>
        <pt x="355" y="97" on="1"/>
        <pt x="334" y="76" on="0"/>
        <pt x="288" y="37" on="0"/>
        <pt x="238" y="7" on="0"/>
        <pt x="187" y="-10" on="0"/>
        <pt x="160" y="-10" on="1"/>
        <pt x="103" y="-10" on="0"/>
        <pt x="29" y="58" on="0"/>
        <pt x="29" y="118" on="1"/>
        <pt x="29" y="158" on="0"/>
        <pt x="64" y="227" on="0"/>
        <pt x="141" y="283" on="0"/>
        <pt x="264" y="322" on="0"/>
        <pt x="351" y="332" on="1"/>
        <pt x="356" y="375" on="1"/>
        <pt x="357" y="383" on="0"/>
        <pt x="358" y="399" on="0"/>
        <pt x="358" y="406" on="1"/>
        <pt x="358" y="492" on="0"/>
        <pt x="272" y="492" on="1"/>
        <pt x="235" y="492" on="0"/>
        <pt x="160" y="467" on="0"/>
        <pt x="119" y="446" on="1"/>
        <pt x="119" y="495" on="1"/>
        <pt x="154" y="512" on="0"/>
        <pt x="232" y="538" on="0"/>
        <pt x="277" y="538" on="1"/>
        <pt x="335" y="538" on="0"/>
        <pt x="400" y="487" on="0"/>
        <pt x="405" y="438" on="1"/>
        <pt x="438" y="486" on="0"/>
        <pt x="520" y="538" on="0"/>
        <pt x="568" y="538" on="1"/>
        <pt x="604" y="538" on="0"/>
        <pt x="659" y="511" on="0"/>
        <pt x="695" y="462" on="0"/>
        <pt x="713" y="395" on="0"/>
      </contour>
      <contour>
        <pt x="659" y="302" on="1"/>
        <pt x="662" y="329" on="0"/>
        <pt x="662" y="353" on="1"/>
        <pt x="662" y="419" on="0"/>
        <pt x="614" y="493" on="0"/>
        <pt x="566" y="493" on="1"/>
        <pt x="538" y="493" on="0"/>
        <pt x="485" y="465" on="0"/>
        <pt x="441" y="414" on="0"/>
        <pt x="407" y="344" on="0"/>
        <pt x="398" y="302" on="1"/>
      </contour>
      <contour>
        <pt x="342" y="141" on="1"/>
        <pt x="339" y="156" on="0"/>
        <pt x="336" y="192" on="0"/>
        <pt x="336" y="209" on="1"/>
        <pt x="336" y="229" on="0"/>
        <pt x="340" y="273" on="0"/>
        <pt x="343" y="290" on="1"/>
        <pt x="271" y="282" on="0"/>
        <pt x="171" y="250" on="0"/>
        <pt x="108" y="207" on="0"/>
        <pt x="80" y="152" on="0"/>
        <pt x="80" y="121" on="1"/>
        <pt x="80" y="82" on="0"/>
        <pt x="124" y="36" on="0"/>
        <pt x="166" y="36" on="1"/>
        <pt x="211" y="36" on="0"/>
        <pt x="297" y="96" on="0"/>
      </contour>
    </TTGlyph>
    <TTGlyph name="aeacute" xMin="29" yMin="-10" xMax="713" yMax="760">
      <component glyphName="acute" x="200" y="3" flags="0x4"/>
      <component glyphName="ae" x="0" y="0" flags="0x4"/>
    </TTGlyph>
    <TTGlyph name="agrave" xMin="47" yMin="-11" xMax="453" yMax="761">
      <component glyphName="a" x="0" y="0" flags="0x204"/>
      <component glyphName="grave" x="-36" y="3" flags="0x4"/>
    </TTGlyph>
    <TTGlyph name="agrave.alt" xMin="29" yMin="-10" xMax="411" yMax="761">
      <component glyphName="a.alt" x="0" y="0" flags="0x204"/>
      <component glyphName="grave" x="-64" y="3" flags="0x4"/>
    </TTGlyph>
    <TTGlyph name="amacron" xMin="47" yMin="-11" xMax="454" yMax="685">
      <component glyphName="a" x="0" y="0" flags="0x204"/>
      <component glyphName="macron" x="27" y="3" flags="0x4"/>
    </TTGlyph>
    <TTGlyph name="amacron.alt" xMin="29" yMin="-10" xMax="426" yMax="685">
      <component glyphName="a.alt" x="0" y="0" flags="0x204"/>
      <component glyphName="macron" x="-1" y="3" flags="0x4"/>
    </TTGlyph>
    <TTGlyph name="ampersand" xMin="44" yMin="-11" xMax="575" yMax="735">
      <contour>
        <pt x="218" y="-11" on="1"/>
        <pt x="179" y="-11" on="0"/>
        <pt x="115" y="15" on="0"/>
        <pt x="69" y="61" on="0"/>
        <pt x="44" y="124" on="0"/>
        <pt x="44" y="162" on="1"/>
        <pt x="44" y="247" on="0"/>
        <pt x="152" y="373" on="0"/>
        <pt x="246" y="410" on="1"/>
        <pt x="218" y="455" on="0"/>
        <pt x="191" y="524" on="0"/>
        <pt x="191" y="565" on="1"/>
        <pt x="191" y="600" on="0"/>
        <pt x="216" y="662" on="0"/>
        <pt x="262" y="708" on="0"/>
        <pt x="326" y="735" on="0"/>
        <pt x="366" y="735" on="1"/>
        <pt x="406" y="735" on="0"/>
        <pt x="473" y="712" on="0"/>
        <pt x="502" y="693" on="1"/>
        <pt x="488" y="642" on="1"/>
        <pt x="459" y="663" on="0"/>
        <pt x="396" y="689" on="0"/>
        <pt x="364" y="689" on="1"/>
        <pt x="335" y="689" on="0"/>
        <pt x="291" y="670" on="0"/>
        <pt x="260" y="637" on="0"/>
        <pt x="244" y="592" on="0"/>
        <pt x="244" y="567" on="1"/>
        <pt x="244" y="535" on="0"/>
        <pt x="271" y="466" on="0"/>
        <pt x="300" y="421" on="1"/>
        <pt x="439" y="209" on="1"/>
        <pt x="463" y="251" on="0"/>
        <pt x="505" y="359" on="0"/>
        <pt x="524" y="424" on="1"/>
        <pt x="574" y="412" on="1"/>
        <pt x="551" y="337" on="0"/>
        <pt x="498" y="214" on="0"/>
        <pt x="468" y="165" on="1"/>
        <pt x="575" y="3" on="1"/>
        <pt x="520" y="-6" on="1"/>
        <pt x="438" y="119" on="1"/>
        <pt x="344" y="-10" on="0"/>
      </contour>
      <contour>
        <pt x="221" y="36" on="1"/>
        <pt x="273" y="36" on="0"/>
        <pt x="368" y="98" on="0"/>
        <pt x="410" y="161" on="1"/>
        <pt x="271" y="372" on="1"/>
        <pt x="183" y="338" on="0"/>
        <pt x="96" y="229" on="0"/>
        <pt x="96" y="164" on="1"/>
        <pt x="96" y="107" on="0"/>
        <pt x="164" y="36" on="0"/>
      </contour>
    </TTGlyph>
    <TTGlyph name="ampersand.flat" xMin="44" yMin="-11" xMax="576" yMax="735">
      <contour>
        <pt x="218" y="-11" on="1"/>
        <pt x="179" y="-11" on="0"/>
        <pt x="115" y="15" on="0"/>
        <pt x="69" y="61" on="0"/>
        <pt x="44" y="124" on="0"/>
        <pt x="44" y="162" on="1"/>
        <pt x="44" y="247" on="0"/>
        <pt x="152" y="373" on="0"/>
        <pt x="246" y="410" on="1"/>
        <pt x="218" y="455" on="0"/>
        <pt x="191" y="524" on="0"/>
        <pt x="191" y="566" on="1"/>
        <pt x="191" y="600" on="0"/>
        <pt x="216" y="662" on="0"/>
        <pt x="262" y="708" on="0"/>
        <pt x="326" y="735" on="0"/>
        <pt x="366" y="735" on="1"/>
        <pt x="406" y="735" on="0"/>
        <pt x="473" y="712" on="0"/>
        <pt x="502" y="693" on="1"/>
        <pt x="488" y="642" on="1"/>
        <pt x="459" y="663" on="0"/>
        <pt x="396" y="689" on="0"/>
        <pt x="364" y="689" on="1"/>
        <pt x="335" y="689" on="0"/>
        <pt x="291" y="669" on="0"/>
        <pt x="260" y="636" on="0"/>
        <pt x="244" y="592" on="0"/>
        <pt x="244" y="568" on="1"/>
        <pt x="244" y="534" on="0"/>
        <pt x="269" y="468" on="0"/>
        <pt x="300" y="421" on="1"/>
        <pt x="439" y="209" on="1"/>
        <pt x="463" y="251" on="0"/>
        <pt x="504" y="359" on="0"/>
        <pt x="524" y="424" on="1"/>
        <pt x="574" y="412" on="1"/>
        <pt x="550" y="337" on="0"/>
        <pt x="498" y="213" on="0"/>
        <pt x="468" y="165" on="1"/>
        <pt x="576" y="0" on="1"/>
        <pt x="515" y="0" on="1"/>
        <pt x="438" y="119" on="1"/>
        <pt x="344" y="-10" on="0"/>
      </contour>
      <contour>
        <pt x="221" y="36" on="1"/>
        <pt x="273" y="36" on="0"/>
        <pt x="368" y="98" on="0"/>
        <pt x="410" y="161" on="1"/>
        <pt x="271" y="372" on="1"/>
        <pt x="183" y="338" on="0"/>
        <pt x="96" y="229" on="0"/>
        <pt x="96" y="164" on="1"/>
        <pt x="96" y="107" on="0"/>
        <pt x="164" y="36" on="0"/>
      </contour>
    </TTGlyph>
    <TTGlyph name="aogonek" xMin="47" yMin="-181" xMax="453" yMax="533">
      <contour>
        <pt x="349" y="114" on="1"/>
        <pt x="298" y="55" on="0"/>
        <pt x="211" y="-11" on="0"/>
        <pt x="169" y="-11" on="1"/>
        <pt x="111" y="-11" on="0"/>
        <pt x="47" y="80" on="0"/>
        <pt x="47" y="165" on="1"/>
        <pt x="47" y="240" on="0"/>
        <pt x="87" y="374" on="0"/>
        <pt x="159" y="475" on="0"/>
        <pt x="257" y="533" on="0"/>
        <pt x="315" y="533" on="1"/>
        <pt x="384" y="533" on="0"/>
        <pt x="453" y="500" on="1"/>
        <pt x="398" y="146" on="1"/>
        <pt x="398" y="0" on="1"/>
        <pt x="389" y="0" on="1"/>
        <pt x="362" y="-27" on="1"/>
        <pt x="336" y="-53" on="0"/>
        <pt x="313" y="-93" on="0"/>
        <pt x="313" y="-110" on="1"/>
        <pt x="313" y="-143" on="0"/>
        <pt x="352" y="-143" on="1"/>
        <pt x="361" y="-143" on="0"/>
        <pt x="385" y="-139" on="0"/>
        <pt x="396" y="-134" on="1"/>
        <pt x="395" y="-170" on="1"/>
        <pt x="365" y="-181" on="0"/>
        <pt x="337" y="-181" on="1"/>
        <pt x="302" y="-181" on="0"/>
        <pt x="265" y="-150" on="0"/>
        <pt x="265" y="-121" on="1"/>
        <pt x="265" y="-72" on="0"/>
        <pt x="331" y="-9" on="1"/>
        <pt x="342" y="2" on="1"/>
        <pt x="353" y="12" on="1"/>
      </contour>
      <contour>
        <pt x="398" y="470" on="1"/>
        <pt x="376" y="480" on="0"/>
        <pt x="335" y="488" on="0"/>
        <pt x="309" y="488" on="1"/>
        <pt x="265" y="488" on="0"/>
        <pt x="189" y="440" on="0"/>
        <pt x="132" y="355" on="0"/>
        <pt x="99" y="238" on="0"/>
        <pt x="99" y="169" on="1"/>
        <pt x="99" y="100" on="0"/>
        <pt x="139" y="35" on="0"/>
        <pt x="175" y="35" on="1"/>
        <pt x="210" y="35" on="0"/>
        <pt x="291" y="103" on="0"/>
        <pt x="351" y="169" on="1"/>
      </contour>
    </TTGlyph>
    <TTGlyph name="aogonek.alt" xMin="29" yMin="-181" xMax="411" yMax="538">
      <contour>
        <pt x="356" y="374" on="1"/>
        <pt x="358" y="383" on="0"/>
        <pt x="358" y="400" on="0"/>
        <pt x="358" y="408" on="1"/>
        <pt x="358" y="452" on="0"/>
        <pt x="318" y="492" on="0"/>
        <pt x="273" y="492" on="1"/>
        <pt x="236" y="492" on="0"/>
        <pt x="161" y="468" on="0"/>
        <pt x="118" y="446" on="1"/>
        <pt x="118" y="495" on="1"/>
        <pt x="153" y="512" on="0"/>
        <pt x="234" y="538" on="0"/>
        <pt x="279" y="538" on="1"/>
        <pt x="343" y="538" on="0"/>
        <pt x="411" y="474" on="0"/>
        <pt x="411" y="415" on="1"/>
        <pt x="411" y="398" on="0"/>
        <pt x="408" y="380" on="1"/>
        <pt x="370" y="134" on="1"/>
        <pt x="370" y="0" on="1"/>
        <pt x="360" y="0" on="1"/>
        <pt x="333" y="-27" on="1"/>
        <pt x="307" y="-53" on="0"/>
        <pt x="284" y="-93" on="0"/>
        <pt x="284" y="-110" on="1"/>
        <pt x="284" y="-143" on="0"/>
        <pt x="323" y="-143" on="1"/>
        <pt x="332" y="-143" on="0"/>
        <pt x="356" y="-139" on="0"/>
        <pt x="367" y="-134" on="1"/>
        <pt x="366" y="-170" on="1"/>
        <pt x="336" y="-181" on="0"/>
        <pt x="308" y="-181" on="1"/>
        <pt x="273" y="-181" on="0"/>
        <pt x="236" y="-150" on="0"/>
        <pt x="236" y="-121" on="1"/>
        <pt x="236" y="-72" on="0"/>
        <pt x="302" y="-9" on="1"/>
        <pt x="325" y="13" on="1"/>
        <pt x="321" y="95" on="1"/>
        <pt x="285" y="53" on="0"/>
        <pt x="200" y="-10" on="0"/>
        <pt x="150" y="-10" on="1"/>
        <pt x="96" y="-10" on="0"/>
        <pt x="29" y="58" on="0"/>
        <pt x="29" y="113" on="1"/>
        <pt x="29" y="155" on="0"/>
        <pt x="64" y="228" on="0"/>
        <pt x="141" y="284" on="0"/>
        <pt x="262" y="323" on="0"/>
        <pt x="349" y="332" on="1"/>
      </contour>
      <contour>
        <pt x="155" y="35" on="1"/>
        <pt x="194" y="35" on="0"/>
        <pt x="276" y="95" on="0"/>
        <pt x="321" y="149" on="1"/>
        <pt x="343" y="289" on="1"/>
        <pt x="271" y="282" on="0"/>
        <pt x="171" y="251" on="0"/>
        <pt x="108" y="206" on="0"/>
        <pt x="80" y="149" on="0"/>
        <pt x="80" y="116" on="1"/>
        <pt x="80" y="82" on="0"/>
        <pt x="118" y="35" on="0"/>
      </contour>
    </TTGlyph>
    <TTGlyph name="aring" xMin="47" yMin="-11" xMax="453" yMax="799">
      <component glyphName="a" x="0" y="0" flags="0x204"/>
      <component glyphName="ring" x="29" y="3" flags="0x4"/>
    </TTGlyph>
    <TTGlyph name="aring.alt" xMin="29" yMin="-10" xMax="411" yMax="799">
      <component glyphName="ring" x="1" y="3" flags="0x4"/>
      <component glyphName="a.alt" x="0" y="0" flags="0x4"/>
    </TTGlyph>
    <TTGlyph name="aringacute" xMin="47" yMin="-11" xMax="522" yMax="996">
      <contour>
        <pt x="349" y="114" on="1"/>
        <pt x="298" y="55" on="0"/>
        <pt x="211" y="-11" on="0"/>
        <pt x="169" y="-11" on="1"/>
        <pt x="111" y="-11" on="0"/>
        <pt x="47" y="80" on="0"/>
        <pt x="47" y="165" on="1"/>
        <pt x="47" y="240" on="0"/>
        <pt x="87" y="374" on="0"/>
        <pt x="159" y="475" on="0"/>
        <pt x="257" y="533" on="0"/>
        <pt x="315" y="533" on="1"/>
        <pt x="384" y="533" on="0"/>
        <pt x="453" y="500" on="1"/>
        <pt x="398" y="146" on="1"/>
        <pt x="398" y="0" on="1"/>
        <pt x="354" y="0" on="1"/>
      </contour>
      <contour>
        <pt x="398" y="470" on="1"/>
        <pt x="376" y="480" on="0"/>
        <pt x="335" y="488" on="0"/>
        <pt x="309" y="488" on="1"/>
        <pt x="265" y="488" on="0"/>
        <pt x="189" y="440" on="0"/>
        <pt x="132" y="355" on="0"/>
        <pt x="99" y="238" on="0"/>
        <pt x="99" y="169" on="1"/>
        <pt x="99" y="100" on="0"/>
        <pt x="139" y="35" on="0"/>
        <pt x="175" y="35" on="1"/>
        <pt x="210" y="35" on="0"/>
        <pt x="291" y="103" on="0"/>
        <pt x="351" y="169" on="1"/>
      </contour>
      <contour>
        <pt x="368" y="840" on="1"/>
        <pt x="326" y="840" on="1"/>
        <pt x="451" y="996" on="1"/>
        <pt x="522" y="978" on="1"/>
      </contour>
      <contour>
        <pt x="331" y="638" on="1"/>
        <pt x="357" y="638" on="0"/>
        <pt x="392" y="674" on="0"/>
        <pt x="392" y="701" on="1"/>
        <pt x="392" y="728" on="0"/>
        <pt x="357" y="765" on="0"/>
        <pt x="331" y="765" on="1"/>
        <pt x="305" y="765" on="0"/>
        <pt x="271" y="728" on="0"/>
        <pt x="271" y="701" on="1"/>
        <pt x="271" y="674" on="0"/>
        <pt x="305" y="638" on="0"/>
      </contour>
      <contour>
        <pt x="331" y="603" on="1"/>
        <pt x="310" y="603" on="0"/>
        <pt x="274" y="618" on="0"/>
        <pt x="248" y="645" on="0"/>
        <pt x="233" y="680" on="0"/>
        <pt x="233" y="701" on="1"/>
        <pt x="233" y="722" on="0"/>
        <pt x="248" y="757" on="0"/>
        <pt x="274" y="784" on="0"/>
        <pt x="310" y="799" on="0"/>
        <pt x="331" y="799" on="1"/>
        <pt x="352" y="799" on="0"/>
        <pt x="388" y="784" on="0"/>
        <pt x="415" y="757" on="0"/>
        <pt x="430" y="722" on="0"/>
        <pt x="430" y="701" on="1"/>
        <pt x="430" y="680" on="0"/>
        <pt x="415" y="645" on="0"/>
        <pt x="388" y="618" on="0"/>
        <pt x="352" y="603" on="0"/>
      </contour>
    </TTGlyph>
    <TTGlyph name="aringacute.alt" xMin="29" yMin="-10" xMax="494" yMax="998">
      <contour>
        <pt x="340" y="842" on="1"/>
        <pt x="298" y="842" on="1"/>
        <pt x="423" y="998" on="1"/>
        <pt x="494" y="980" on="1"/>
      </contour>
      <contour>
        <pt x="303" y="638" on="1"/>
        <pt x="329" y="638" on="0"/>
        <pt x="364" y="674" on="0"/>
        <pt x="364" y="701" on="1"/>
        <pt x="364" y="728" on="0"/>
        <pt x="329" y="765" on="0"/>
        <pt x="303" y="765" on="1"/>
        <pt x="277" y="765" on="0"/>
        <pt x="243" y="728" on="0"/>
        <pt x="243" y="701" on="1"/>
        <pt x="243" y="674" on="0"/>
        <pt x="277" y="638" on="0"/>
      </contour>
      <contour>
        <pt x="303" y="603" on="1"/>
        <pt x="282" y="603" on="0"/>
        <pt x="246" y="618" on="0"/>
        <pt x="220" y="645" on="0"/>
        <pt x="205" y="680" on="0"/>
        <pt x="205" y="701" on="1"/>
        <pt x="205" y="722" on="0"/>
        <pt x="220" y="757" on="0"/>
        <pt x="246" y="784" on="0"/>
        <pt x="282" y="799" on="0"/>
        <pt x="303" y="799" on="1"/>
        <pt x="324" y="799" on="0"/>
        <pt x="360" y="784" on="0"/>
        <pt x="387" y="757" on="0"/>
        <pt x="402" y="722" on="0"/>
        <pt x="402" y="701" on="1"/>
        <pt x="402" y="680" on="0"/>
        <pt x="387" y="645" on="0"/>
        <pt x="360" y="618" on="0"/>
        <pt x="324" y="603" on="0"/>
      </contour>
      <contour>
        <pt x="356" y="374" on="1"/>
        <pt x="358" y="383" on="0"/>
        <pt x="358" y="400" on="0"/>
        <pt x="358" y="408" on="1"/>
        <pt x="358" y="452" on="0"/>
        <pt x="318" y="492" on="0"/>
        <pt x="273" y="492" on="1"/>
        <pt x="236" y="492" on="0"/>
        <pt x="161" y="468" on="0"/>
        <pt x="118" y="446" on="1"/>
        <pt x="118" y="495" on="1"/>
        <pt x="153" y="512" on="0"/>
        <pt x="234" y="538" on="0"/>
        <pt x="279" y="538" on="1"/>
        <pt x="343" y="538" on="0"/>
        <pt x="411" y="474" on="0"/>
        <pt x="411" y="415" on="1"/>
        <pt x="411" y="398" on="0"/>
        <pt x="408" y="380" on="1"/>
        <pt x="370" y="134" on="1"/>
        <pt x="370" y="0" on="1"/>
        <pt x="326" y="0" on="1"/>
        <pt x="321" y="95" on="1"/>
        <pt x="285" y="53" on="0"/>
        <pt x="200" y="-10" on="0"/>
        <pt x="150" y="-10" on="1"/>
        <pt x="96" y="-10" on="0"/>
        <pt x="29" y="58" on="0"/>
        <pt x="29" y="113" on="1"/>
        <pt x="29" y="155" on="0"/>
        <pt x="64" y="228" on="0"/>
        <pt x="141" y="284" on="0"/>
        <pt x="262" y="323" on="0"/>
        <pt x="349" y="332" on="1"/>
      </contour>
      <contour>
        <pt x="155" y="35" on="1"/>
        <pt x="194" y="35" on="0"/>
        <pt x="276" y="95" on="0"/>
        <pt x="321" y="149" on="1"/>
        <pt x="343" y="289" on="1"/>
        <pt x="271" y="282" on="0"/>
        <pt x="171" y="251" on="0"/>
        <pt x="108" y="206" on="0"/>
        <pt x="80" y="149" on="0"/>
        <pt x="80" y="116" on="1"/>
        <pt x="80" y="82" on="0"/>
        <pt x="118" y="35" on="0"/>
      </contour>
    </TTGlyph>
    <TTGlyph name="asciicircum" xMin="120" yMin="536" xMax="400" yMax="734">
      <contour>
        <pt x="361" y="536" on="1"/>
        <pt x="282" y="680" on="1"/>
        <pt x="163" y="536" on="1"/>
        <pt x="120" y="536" on="1"/>
        <pt x="268" y="734" on="1"/>
        <pt x="312" y="734" on="1"/>
        <pt x="400" y="536" on="1"/>
      </contour>
    </TTGlyph>
    <TTGlyph name="asciitilde" xMin="66" yMin="266" xMax="402" yMax="389">
      <contour>
        <pt x="402" y="380" on="1"/>
        <pt x="382" y="320" on="0"/>
        <pt x="335" y="268" on="0"/>
        <pt x="306" y="268" on="1"/>
        <pt x="286" y="268" on="0"/>
        <pt x="252" y="285" on="0"/>
        <pt x="222" y="305" on="1"/>
        <pt x="197" y="322" on="0"/>
        <pt x="170" y="338" on="0"/>
        <pt x="157" y="338" on="1"/>
        <pt x="130" y="338" on="0"/>
        <pt x="105" y="266" on="1"/>
        <pt x="66" y="275" on="1"/>
        <pt x="86" y="334" on="0"/>
        <pt x="134" y="387" on="0"/>
        <pt x="163" y="387" on="1"/>
        <pt x="183" y="387" on="0"/>
        <pt x="217" y="371" on="0"/>
        <pt x="247" y="350" on="1"/>
        <pt x="273" y="333" on="0"/>
        <pt x="299" y="317" on="0"/>
        <pt x="313" y="317" on="1"/>
        <pt x="338" y="317" on="0"/>
        <pt x="365" y="389" on="1"/>
      </contour>
    </TTGlyph>
    <TTGlyph name="asterisk" xMin="104" yMin="487" xMax="408" yMax="780">
      <contour>
        <pt x="287" y="610" on="1"/>
        <pt x="357" y="496" on="1"/>
        <pt x="342" y="487" on="1"/>
        <pt x="257" y="589" on="1"/>
        <pt x="170" y="487" on="1"/>
        <pt x="156" y="496" on="1"/>
        <pt x="225" y="610" on="1"/>
        <pt x="104" y="660" on="1"/>
        <pt x="110" y="678" on="1"/>
        <pt x="237" y="646" on="1"/>
        <pt x="246" y="780" on="1"/>
        <pt x="265" y="780" on="1"/>
        <pt x="276" y="646" on="1"/>
        <pt x="403" y="678" on="1"/>
        <pt x="408" y="660" on="1"/>
      </contour>
    </TTGlyph>
    <TTGlyph name="at" xMin="59" yMin="-156" xMax="812" yMax="701">
      <contour>
        <pt x="619" y="50" on="1"/>
        <pt x="567" y="50" on="0"/>
        <pt x="514" y="110" on="0"/>
        <pt x="513" y="156" on="1"/>
        <pt x="472" y="105" on="0"/>
        <pt x="401" y="54" on="0"/>
        <pt x="363" y="54" on="1"/>
        <pt x="315" y="54" on="0"/>
        <pt x="257" y="132" on="0"/>
        <pt x="257" y="199" on="1"/>
        <pt x="257" y="260" on="0"/>
        <pt x="295" y="369" on="0"/>
        <pt x="360" y="450" on="0"/>
        <pt x="446" y="497" on="0"/>
        <pt x="495" y="497" on="1"/>
        <pt x="527" y="497" on="0"/>
        <pt x="582" y="482" on="0"/>
        <pt x="604" y="472" on="1"/>
        <pt x="563" y="211" on="1"/>
        <pt x="561" y="198" on="0"/>
        <pt x="559" y="171" on="0"/>
        <pt x="559" y="158" on="1"/>
        <pt x="559" y="123" on="0"/>
        <pt x="589" y="83" on="0"/>
        <pt x="624" y="83" on="1"/>
        <pt x="654" y="83" on="0"/>
        <pt x="709" y="124" on="0"/>
        <pt x="751" y="200" on="0"/>
        <pt x="777" y="306" on="0"/>
        <pt x="777" y="372" on="1"/>
        <pt x="777" y="512" on="0"/>
        <pt x="634" y="668" on="0"/>
        <pt x="497" y="668" on="1"/>
        <pt x="411" y="668" on="0"/>
        <pt x="264" y="591" on="0"/>
        <pt x="156" y="461" on="0"/>
        <pt x="95" y="289" on="0"/>
        <pt x="95" y="195" on="1"/>
        <pt x="95" y="114" on="0"/>
        <pt x="138" y="-5" on="0"/>
        <pt x="216" y="-84" on="0"/>
        <pt x="325" y="-122" on="0"/>
        <pt x="392" y="-122" on="1"/>
        <pt x="449" y="-122" on="0"/>
        <pt x="562" y="-94" on="0"/>
        <pt x="608" y="-71" on="1"/>
        <pt x="613" y="-104" on="1"/>
        <pt x="570" y="-125" on="0"/>
        <pt x="452" y="-156" on="0"/>
        <pt x="389" y="-156" on="1"/>
        <pt x="315" y="-156" on="0"/>
        <pt x="194" y="-114" on="0"/>
        <pt x="107" y="-27" on="0"/>
        <pt x="59" y="105" on="0"/>
        <pt x="59" y="194" on="1"/>
        <pt x="59" y="298" on="0"/>
        <pt x="127" y="483" on="0"/>
        <pt x="245" y="621" on="0"/>
        <pt x="407" y="701" on="0"/>
        <pt x="500" y="701" on="1"/>
        <pt x="575" y="701" on="0"/>
        <pt x="691" y="656" on="0"/>
        <pt x="770" y="571" on="0"/>
        <pt x="812" y="449" on="0"/>
        <pt x="812" y="373" on="1"/>
        <pt x="812" y="301" on="0"/>
        <pt x="781" y="182" on="0"/>
        <pt x="729" y="97" on="0"/>
        <pt x="659" y="50" on="0"/>
      </contour>
      <contour>
        <pt x="371" y="96" on="1"/>
        <pt x="401" y="96" on="0"/>
        <pt x="467" y="150" on="0"/>
        <pt x="516" y="212" on="1"/>
        <pt x="553" y="441" on="1"/>
        <pt x="525" y="455" on="0"/>
        <pt x="493" y="455" on="1"/>
        <pt x="455" y="455" on="0"/>
        <pt x="387" y="416" on="0"/>
        <pt x="336" y="348" on="0"/>
        <pt x="306" y="256" on="0"/>
        <pt x="306" y="203" on="1"/>
        <pt x="306" y="149" on="0"/>
        <pt x="340" y="96" on="0"/>
      </contour>
    </TTGlyph>
    <TTGlyph name="atilde" xMin="47" yMin="-11" xMax="481" yMax="723">
      <component glyphName="a" x="0" y="0" flags="0x204"/>
      <component glyphName="tilde" x="30" y="3" flags="0x4"/>
    </TTGlyph>
    <TTGlyph name="atilde.alt" xMin="29" yMin="-10" xMax="453" yMax="723">
      <component glyphName="a.alt" x="0" y="0" flags="0x204"/>
      <component glyphName="tilde" x="2" y="3" flags="0x4"/>
    </TTGlyph>
    <TTGlyph name="b" xMin="49" yMin="-7" xMax="455" yMax="802">
      <contour>
        <pt x="162" y="790" on="1"/>
        <pt x="214" y="802" on="1"/>
        <pt x="158" y="432" on="1"/>
        <pt x="202" y="481" on="0"/>
        <pt x="277" y="538" on="0"/>
        <pt x="319" y="538" on="1"/>
        <pt x="382" y="538" on="0"/>
        <pt x="455" y="438" on="0"/>
        <pt x="455" y="346" on="1"/>
        <pt x="455" y="272" on="0"/>
        <pt x="416" y="144" on="0"/>
        <pt x="347" y="48" on="0"/>
        <pt x="251" y="-7" on="0"/>
        <pt x="193" y="-7" on="1"/>
        <pt x="155" y="-7" on="0"/>
        <pt x="83" y="15" on="0"/>
        <pt x="49" y="32" on="1"/>
      </contour>
      <contour>
        <pt x="104" y="59" on="1"/>
        <pt x="127" y="49" on="0"/>
        <pt x="172" y="38" on="0"/>
        <pt x="197" y="38" on="1"/>
        <pt x="241" y="38" on="0"/>
        <pt x="316" y="83" on="0"/>
        <pt x="372" y="164" on="0"/>
        <pt x="403" y="275" on="0"/>
        <pt x="403" y="342" on="1"/>
        <pt x="403" y="415" on="0"/>
        <pt x="356" y="492" on="0"/>
        <pt x="314" y="492" on="1"/>
        <pt x="279" y="492" on="0"/>
        <pt x="201" y="427" on="0"/>
        <pt x="150" y="370" on="1"/>
      </contour>
    </TTGlyph>
    <TTGlyph name="backslash" xMin="55" yMin="-137" xMax="454" yMax="778">
      <contour>
        <pt x="408" y="-137" on="1"/>
        <pt x="55" y="769" on="1"/>
        <pt x="102" y="778" on="1"/>
        <pt x="454" y="-127" on="1"/>
      </contour>
    </TTGlyph>
    <TTGlyph name="baht" xMin="-38" yMin="-133" xMax="553" yMax="784">
      <contour>
        <pt x="302" y="717" on="1"/>
        <pt x="347" y="717" on="0"/>
        <pt x="418" y="693" on="0"/>
        <pt x="443" y="671" on="1"/>
        <pt x="513" y="784" on="1"/>
        <pt x="553" y="775" on="1"/>
        <pt x="468" y="641" on="1"/>
        <pt x="491" y="603" on="0"/>
        <pt x="491" y="554" on="1"/>
        <pt x="491" y="520" on="0"/>
        <pt x="467" y="463" on="0"/>
        <pt x="427" y="418" on="0"/>
        <pt x="375" y="386" on="0"/>
        <pt x="347" y="377" on="1"/>
        <pt x="400" y="359" on="0"/>
        <pt x="470" y="277" on="0"/>
        <pt x="470" y="214" on="1"/>
        <pt x="470" y="162" on="0"/>
        <pt x="430" y="82" on="0"/>
        <pt x="359" y="28" on="0"/>
        <pt x="263" y="0" on="0"/>
        <pt x="207" y="0" on="1"/>
        <pt x="85" y="0" on="1"/>
        <pt x="74" y="-17" on="0"/>
        <pt x="46" y="-64" on="0"/>
        <pt x="33" y="-84" on="1"/>
        <pt x="18" y="-109" on="0"/>
        <pt x="2" y="-133" on="1"/>
        <pt x="-38" y="-124" on="1"/>
        <pt x="59" y="32" on="1"/>
        <pt x="161" y="717" on="1"/>
      </contour>
      <contour>
        <pt x="420" y="214" on="1"/>
        <pt x="420" y="280" on="0"/>
        <pt x="325" y="356" on="0"/>
        <pt x="245" y="356" on="1"/>
        <pt x="156" y="356" on="1"/>
        <pt x="109" y="44" on="1"/>
        <pt x="212" y="44" on="1"/>
        <pt x="257" y="44" on="0"/>
        <pt x="333" y="66" on="0"/>
        <pt x="389" y="110" on="0"/>
        <pt x="420" y="173" on="0"/>
      </contour>
      <contour>
        <pt x="440" y="554" on="1"/>
        <pt x="440" y="612" on="0"/>
        <pt x="363" y="674" on="0"/>
        <pt x="297" y="674" on="1"/>
        <pt x="203" y="674" on="1"/>
        <pt x="163" y="397" on="1"/>
        <pt x="253" y="397" on="1"/>
        <pt x="292" y="397" on="0"/>
        <pt x="360" y="421" on="0"/>
        <pt x="411" y="463" on="0"/>
        <pt x="440" y="520" on="0"/>
      </contour>
    </TTGlyph>
    <TTGlyph name="bar" xMin="45" yMin="-214" xMax="251" yMax="846">
      <contour>
        <pt x="45" y="-214" on="1"/>
        <pt x="202" y="838" on="1"/>
        <pt x="251" y="846" on="1"/>
        <pt x="93" y="-206" on="1"/>
      </contour>
    </TTGlyph>
    <TTGlyph name="bar.tab" xMin="45" yMin="-147" xMax="251" yMax="913">
      <contour>
        <pt x="45" y="-147" on="1"/>
        <pt x="202" y="905" on="1"/>
        <pt x="251" y="913" on="1"/>
        <pt x="93" y="-139" on="1"/>
      </contour>
    </TTGlyph>
    <TTGlyph name="braceleft" xMin="64" yMin="-119" xMax="474" yMax="773">
      <contour>
        <pt x="468" y="732" on="1"/>
        <pt x="413" y="732" on="1"/>
        <pt x="345" y="732" on="0"/>
        <pt x="291" y="662" on="0"/>
        <pt x="291" y="601" on="1"/>
        <pt x="291" y="512" on="1"/>
        <pt x="291" y="466" on="0"/>
        <pt x="270" y="400" on="0"/>
        <pt x="231" y="356" on="0"/>
        <pt x="178" y="332" on="0"/>
        <pt x="147" y="327" on="1"/>
        <pt x="147" y="325" on="1"/>
        <pt x="191" y="317" on="0"/>
        <pt x="243" y="266" on="0"/>
        <pt x="243" y="218" on="1"/>
        <pt x="243" y="191" on="0"/>
        <pt x="230" y="132" on="0"/>
        <pt x="215" y="74" on="0"/>
        <pt x="202" y="19" on="0"/>
        <pt x="202" y="-4" on="1"/>
        <pt x="202" y="-40" on="0"/>
        <pt x="247" y="-78" on="0"/>
        <pt x="295" y="-78" on="1"/>
        <pt x="349" y="-78" on="1"/>
        <pt x="349" y="-119" on="1"/>
        <pt x="291" y="-119" on="1"/>
        <pt x="223" y="-119" on="0"/>
        <pt x="152" y="-65" on="0"/>
        <pt x="152" y="-8" on="1"/>
        <pt x="152" y="17" on="0"/>
        <pt x="165" y="74" on="0"/>
        <pt x="182" y="133" on="0"/>
        <pt x="195" y="190" on="0"/>
        <pt x="195" y="216" on="1"/>
        <pt x="195" y="264" on="0"/>
        <pt x="136" y="307" on="0"/>
        <pt x="78" y="307" on="1"/>
        <pt x="64" y="307" on="1"/>
        <pt x="64" y="346" on="1"/>
        <pt x="83" y="346" on="1"/>
        <pt x="154" y="346" on="0"/>
        <pt x="242" y="423" on="0"/>
        <pt x="242" y="510" on="1"/>
        <pt x="242" y="595" on="1"/>
        <pt x="242" y="683" on="0"/>
        <pt x="327" y="773" on="0"/>
        <pt x="420" y="773" on="1"/>
        <pt x="474" y="773" on="1"/>
      </contour>
    </TTGlyph>
    <TTGlyph name="braceleft.flat" xMin="61" yMin="-119" xMax="474" yMax="773">
      <contour>
        <pt x="468" y="732" on="1"/>
        <pt x="413" y="732" on="1"/>
        <pt x="345" y="732" on="0"/>
        <pt x="291" y="662" on="0"/>
        <pt x="291" y="601" on="1"/>
        <pt x="291" y="512" on="1"/>
        <pt x="291" y="466" on="0"/>
        <pt x="270" y="400" on="0"/>
        <pt x="231" y="356" on="0"/>
        <pt x="178" y="332" on="0"/>
        <pt x="147" y="327" on="1"/>
        <pt x="147" y="325" on="1"/>
        <pt x="191" y="317" on="0"/>
        <pt x="243" y="266" on="0"/>
        <pt x="243" y="218" on="1"/>
        <pt x="243" y="191" on="0"/>
        <pt x="230" y="132" on="0"/>
        <pt x="215" y="74" on="0"/>
        <pt x="202" y="19" on="0"/>
        <pt x="202" y="-4" on="1"/>
        <pt x="202" y="-40" on="0"/>
        <pt x="247" y="-78" on="0"/>
        <pt x="295" y="-78" on="1"/>
        <pt x="352" y="-78" on="1"/>
        <pt x="345" y="-119" on="1"/>
        <pt x="291" y="-119" on="1"/>
        <pt x="223" y="-119" on="0"/>
        <pt x="152" y="-65" on="0"/>
        <pt x="152" y="-8" on="1"/>
        <pt x="152" y="17" on="0"/>
        <pt x="165" y="74" on="0"/>
        <pt x="182" y="133" on="0"/>
        <pt x="195" y="190" on="0"/>
        <pt x="195" y="216" on="1"/>
        <pt x="195" y="264" on="0"/>
        <pt x="136" y="307" on="0"/>
        <pt x="78" y="307" on="1"/>
        <pt x="61" y="307" on="1"/>
        <pt x="66" y="346" on="1"/>
        <pt x="83" y="346" on="1"/>
        <pt x="154" y="346" on="0"/>
        <pt x="242" y="423" on="0"/>
        <pt x="242" y="510" on="1"/>
        <pt x="242" y="595" on="1"/>
        <pt x="242" y="683" on="0"/>
        <pt x="327" y="773" on="0"/>
        <pt x="420" y="773" on="1"/>
        <pt x="474" y="773" on="1"/>
      </contour>
    </TTGlyph>
    <TTGlyph name="braceright" xMin="3" yMin="-119" xMax="414" yMax="774">
      <contour>
        <pt x="10" y="-77" on="1"/>
        <pt x="64" y="-77" on="1"/>
        <pt x="132" y="-77" on="0"/>
        <pt x="187" y="-7" on="0"/>
        <pt x="187" y="54" on="1"/>
        <pt x="187" y="143" on="1"/>
        <pt x="187" y="189" on="0"/>
        <pt x="208" y="255" on="0"/>
        <pt x="246" y="299" on="0"/>
        <pt x="300" y="323" on="0"/>
        <pt x="332" y="328" on="1"/>
        <pt x="332" y="330" on="1"/>
        <pt x="287" y="339" on="0"/>
        <pt x="234" y="389" on="0"/>
        <pt x="234" y="437" on="1"/>
        <pt x="234" y="464" on="0"/>
        <pt x="247" y="523" on="0"/>
        <pt x="263" y="582" on="0"/>
        <pt x="276" y="637" on="0"/>
        <pt x="276" y="660" on="1"/>
        <pt x="276" y="695" on="0"/>
        <pt x="232" y="732" on="0"/>
        <pt x="184" y="732" on="1"/>
        <pt x="129" y="732" on="1"/>
        <pt x="129" y="774" on="1"/>
        <pt x="186" y="774" on="1"/>
        <pt x="325" y="774" on="0"/>
        <pt x="325" y="663" on="1"/>
        <pt x="325" y="637" on="0"/>
        <pt x="312" y="581" on="0"/>
        <pt x="295" y="522" on="0"/>
        <pt x="282" y="465" on="0"/>
        <pt x="282" y="439" on="1"/>
        <pt x="282" y="391" on="0"/>
        <pt x="342" y="348" on="0"/>
        <pt x="399" y="348" on="1"/>
        <pt x="414" y="348" on="1"/>
        <pt x="414" y="309" on="1"/>
        <pt x="395" y="309" on="1"/>
        <pt x="323" y="309" on="0"/>
        <pt x="236" y="232" on="0"/>
        <pt x="236" y="146" on="1"/>
        <pt x="236" y="60" on="1"/>
        <pt x="236" y="-28" on="0"/>
        <pt x="150" y="-119" on="0"/>
        <pt x="58" y="-119" on="1"/>
        <pt x="3" y="-119" on="1"/>
      </contour>
    </TTGlyph>
    <TTGlyph name="braceright.flat" xMin="3" yMin="-119" xMax="417" yMax="774">
      <contour>
        <pt x="10" y="-77" on="1"/>
        <pt x="64" y="-77" on="1"/>
        <pt x="132" y="-77" on="0"/>
        <pt x="187" y="-7" on="0"/>
        <pt x="187" y="54" on="1"/>
        <pt x="187" y="143" on="1"/>
        <pt x="187" y="189" on="0"/>
        <pt x="208" y="255" on="0"/>
        <pt x="246" y="299" on="0"/>
        <pt x="300" y="323" on="0"/>
        <pt x="332" y="328" on="1"/>
        <pt x="332" y="330" on="1"/>
        <pt x="287" y="339" on="0"/>
        <pt x="234" y="389" on="0"/>
        <pt x="234" y="437" on="1"/>
        <pt x="234" y="464" on="0"/>
        <pt x="247" y="523" on="0"/>
        <pt x="263" y="582" on="0"/>
        <pt x="276" y="637" on="0"/>
        <pt x="276" y="660" on="1"/>
        <pt x="276" y="695" on="0"/>
        <pt x="232" y="732" on="0"/>
        <pt x="184" y="732" on="1"/>
        <pt x="125" y="732" on="1"/>
        <pt x="132" y="774" on="1"/>
        <pt x="186" y="774" on="1"/>
        <pt x="325" y="774" on="0"/>
        <pt x="325" y="663" on="1"/>
        <pt x="325" y="637" on="0"/>
        <pt x="312" y="581" on="0"/>
        <pt x="295" y="522" on="0"/>
        <pt x="282" y="465" on="0"/>
        <pt x="282" y="439" on="1"/>
        <pt x="282" y="391" on="0"/>
        <pt x="342" y="348" on="0"/>
        <pt x="399" y="348" on="1"/>
        <pt x="417" y="348" on="1"/>
        <pt x="411" y="309" on="1"/>
        <pt x="395" y="309" on="1"/>
        <pt x="323" y="309" on="0"/>
        <pt x="236" y="232" on="0"/>
        <pt x="236" y="146" on="1"/>
        <pt x="236" y="60" on="1"/>
        <pt x="236" y="-28" on="0"/>
        <pt x="150" y="-119" on="0"/>
        <pt x="58" y="-119" on="1"/>
        <pt x="3" y="-119" on="1"/>
      </contour>
    </TTGlyph>
    <TTGlyph name="bracketleft" xMin="52" yMin="-119" xMax="419" yMax="773">
      <contour>
        <pt x="412" y="732" on="1"/>
        <pt x="227" y="732" on="1"/>
        <pt x="106" y="-78" on="1"/>
        <pt x="289" y="-78" on="1"/>
        <pt x="290" y="-119" on="1"/>
        <pt x="52" y="-119" on="1"/>
        <pt x="185" y="773" on="1"/>
        <pt x="419" y="773" on="1"/>
      </contour>
    </TTGlyph>
    <TTGlyph name="bracketleft.flat" xMin="52" yMin="-119" xMax="419" yMax="773">
      <contour>
        <pt x="412" y="732" on="1"/>
        <pt x="227" y="732" on="1"/>
        <pt x="106" y="-78" on="1"/>
        <pt x="291" y="-78" on="1"/>
        <pt x="285" y="-119" on="1"/>
        <pt x="52" y="-119" on="1"/>
        <pt x="185" y="773" on="1"/>
        <pt x="419" y="773" on="1"/>
      </contour>
    </TTGlyph>
    <TTGlyph name="bracketright" xMin="-22" yMin="-119" xMax="345" yMax="773">
      <contour>
        <pt x="212" y="-119" on="1"/>
        <pt x="-22" y="-119" on="1"/>
        <pt x="-17" y="-78" on="1"/>
        <pt x="169" y="-78" on="1"/>
        <pt x="290" y="732" on="1"/>
        <pt x="108" y="732" on="1"/>
        <pt x="106" y="773" on="1"/>
        <pt x="345" y="773" on="1"/>
      </contour>
    </TTGlyph>
    <TTGlyph name="bracketright.flat" xMin="-22" yMin="-119" xMax="345" yMax="773">
      <contour>
        <pt x="-17" y="-78" on="1"/>
        <pt x="169" y="-78" on="1"/>
        <pt x="290" y="732" on="1"/>
        <pt x="105" y="732" on="1"/>
        <pt x="112" y="773" on="1"/>
        <pt x="345" y="773" on="1"/>
        <pt x="212" y="-119" on="1"/>
        <pt x="-22" y="-119" on="1"/>
      </contour>
    </TTGlyph>
    <TTGlyph name="breve" xMin="186" yMin="605" xMax="430" yMax="730">
      <contour>
        <pt x="430" y="725" on="1"/>
        <pt x="417" y="671" on="0"/>
        <pt x="348" y="605" on="0"/>
        <pt x="293" y="605" on="1"/>
        <pt x="236" y="605" on="0"/>
        <pt x="186" y="672" on="0"/>
        <pt x="188" y="725" on="1"/>
        <pt x="226" y="730" on="1"/>
        <pt x="231" y="654" on="0"/>
        <pt x="299" y="654" on="1"/>
        <pt x="365" y="654" on="0"/>
        <pt x="394" y="730" on="1"/>
      </contour>
    </TTGlyph>
    <TTGlyph name="breve.cap" xMin="174" yMin="567" xMax="405" yMax="686">
      <contour>
        <pt x="405" y="680" on="1"/>
        <pt x="393" y="629" on="0"/>
        <pt x="327" y="567" on="0"/>
        <pt x="276" y="567" on="1"/>
        <pt x="222" y="567" on="0"/>
        <pt x="174" y="630" on="0"/>
        <pt x="176" y="680" on="1"/>
        <pt x="214" y="686" on="1"/>
        <pt x="216" y="651" on="0"/>
        <pt x="251" y="615" on="0"/>
        <pt x="281" y="615" on="1"/>
        <pt x="343" y="615" on="0"/>
        <pt x="370" y="686" on="1"/>
      </contour>
    </TTGlyph>
    <TTGlyph name="bullet" xMin="109" yMin="248" xMax="316" yMax="485">
      <contour>
        <pt x="300" y="265" on="1"/>
        <pt x="212" y="248" on="1"/>
        <pt x="125" y="265" on="1"/>
        <pt x="109" y="367" on="1"/>
        <pt x="125" y="469" on="1"/>
        <pt x="212" y="485" on="1"/>
        <pt x="300" y="469" on="1"/>
        <pt x="316" y="367" on="1"/>
      </contour>
    </TTGlyph>
    <TTGlyph name="c" xMin="48" yMin="-10" xMax="414" yMax="538">
      <contour>
        <pt x="403" y="439" on="1"/>
        <pt x="376" y="464" on="0"/>
        <pt x="323" y="491" on="0"/>
        <pt x="291" y="491" on="1"/>
        <pt x="249" y="491" on="0"/>
        <pt x="179" y="443" on="0"/>
        <pt x="128" y="364" on="0"/>
        <pt x="100" y="262" on="0"/>
        <pt x="100" y="208" on="1"/>
        <pt x="100" y="127" on="0"/>
        <pt x="169" y="37" on="0"/>
        <pt x="226" y="37" on="1"/>
        <pt x="291" y="37" on="0"/>
        <pt x="362" y="90" on="1"/>
        <pt x="362" y="38" on="1"/>
        <pt x="333" y="17" on="0"/>
        <pt x="263" y="-10" on="0"/>
        <pt x="223" y="-10" on="1"/>
        <pt x="185" y="-10" on="0"/>
        <pt x="121" y="19" on="0"/>
        <pt x="74" y="74" on="0"/>
        <pt x="48" y="155" on="0"/>
        <pt x="48" y="207" on="1"/>
        <pt x="48" y="273" on="0"/>
        <pt x="85" y="393" on="0"/>
        <pt x="151" y="484" on="0"/>
        <pt x="240" y="538" on="0"/>
        <pt x="292" y="538" on="1"/>
        <pt x="332" y="538" on="0"/>
        <pt x="392" y="510" on="0"/>
        <pt x="414" y="492" on="1"/>
      </contour>
    </TTGlyph>
    <TTGlyph name="cacute" xMin="48" yMin="-10" xMax="473" yMax="760">
      <component glyphName="acute" x="74" y="3" flags="0x4"/>
      <component glyphName="c" x="0" y="0" flags="0x4"/>
    </TTGlyph>
    <TTGlyph name="caron" xMin="188" yMin="601" xMax="435" yMax="756">
      <contour>
        <pt x="220" y="756" on="1"/>
        <pt x="296" y="660" on="1"/>
        <pt x="397" y="756" on="1"/>
        <pt x="435" y="756" on="1"/>
        <pt x="308" y="601" on="1"/>
        <pt x="268" y="601" on="1"/>
        <pt x="188" y="756" on="1"/>
      </contour>
    </TTGlyph>
    <TTGlyph name="caron.alt" xMin="209" yMin="598" xMax="316" yMax="799">
      <contour>
        <pt x="305" y="799" on="1"/>
        <pt x="316" y="770" on="0"/>
        <pt x="316" y="744" on="1"/>
        <pt x="316" y="703" on="0"/>
        <pt x="268" y="627" on="0"/>
        <pt x="234" y="598" on="1"/>
        <pt x="209" y="605" on="1"/>
        <pt x="238" y="639" on="0"/>
        <pt x="265" y="697" on="0"/>
        <pt x="265" y="728" on="1"/>
        <pt x="265" y="742" on="0"/>
        <pt x="259" y="770" on="0"/>
        <pt x="254" y="786" on="1"/>
      </contour>
    </TTGlyph>
    <TTGlyph name="caron.alt.cap" xMin="198" yMin="561" xMax="300" yMax="749">
      <contour>
        <pt x="290" y="749" on="1"/>
        <pt x="300" y="722" on="0"/>
        <pt x="300" y="698" on="1"/>
        <pt x="300" y="660" on="0"/>
        <pt x="255" y="589" on="0"/>
        <pt x="223" y="561" on="1"/>
        <pt x="198" y="567" on="1"/>
        <pt x="225" y="599" on="0"/>
        <pt x="251" y="653" on="0"/>
        <pt x="251" y="682" on="1"/>
        <pt x="251" y="696" on="0"/>
        <pt x="245" y="722" on="0"/>
        <pt x="240" y="738" on="1"/>
      </contour>
    </TTGlyph>
    <TTGlyph name="caron.cap" xMin="176" yMin="564" xMax="409" yMax="709">
      <contour>
        <pt x="207" y="709" on="1"/>
        <pt x="278" y="620" on="1"/>
        <pt x="372" y="709" on="1"/>
        <pt x="409" y="709" on="1"/>
        <pt x="291" y="564" on="1"/>
        <pt x="250" y="564" on="1"/>
        <pt x="176" y="709" on="1"/>
      </contour>
    </TTGlyph>
    <TTGlyph name="ccaron" xMin="48" yMin="-10" xMax="448" yMax="759">
      <component glyphName="caron" x="13" y="3" flags="0x4"/>
      <component glyphName="c" x="0" y="0" flags="0x4"/>
    </TTGlyph>
    <TTGlyph name="ccedilla" xMin="48" yMin="-206" xMax="414" yMax="538">
      <component glyphName="c" x="0" y="0" flags="0x204"/>
      <component glyphName="cedilla" x="-1" y="0" flags="0x4"/>
    </TTGlyph>
    <TTGlyph name="cdotaccent" xMin="48" yMin="-10" xMax="414" yMax="699">
      <component glyphName="c" x="0" y="0" flags="0x204"/>
      <component glyphName="dotaccent" x="13" y="3" flags="0x4"/>
    </TTGlyph>
    <TTGlyph name="cedilla" xMin="67" yMin="-206" xMax="246" yMax="-64">
      <contour>
        <pt x="106" y="-206" on="1"/>
        <pt x="67" y="-206" on="1"/>
        <pt x="181" y="-64" on="1"/>
        <pt x="246" y="-84" on="1"/>
      </contour>
    </TTGlyph>
    <TTGlyph name="cedilla.cap" xMin="63" yMin="-194" xMax="233" yMax="-60">
      <contour>
        <pt x="101" y="-194" on="1"/>
        <pt x="63" y="-194" on="1"/>
        <pt x="169" y="-60" on="1"/>
        <pt x="233" y="-79" on="1"/>
      </contour>
    </TTGlyph>
    <TTGlyph name="cent" xMin="68" yMin="-12" xMax="434" yMax="727">
      <contour>
        <pt x="358" y="607" on="1"/>
        <pt x="381" y="600" on="0"/>
        <pt x="420" y="578" on="0"/>
        <pt x="434" y="564" on="1"/>
        <pt x="419" y="521" on="1"/>
        <pt x="402" y="538" on="0"/>
        <pt x="366" y="561" on="0"/>
        <pt x="345" y="567" on="1"/>
        <pt x="217" y="144" on="1"/>
        <pt x="232" y="141" on="0"/>
        <pt x="246" y="141" on="1"/>
        <pt x="284" y="141" on="0"/>
        <pt x="352" y="171" on="0"/>
        <pt x="385" y="196" on="1"/>
        <pt x="385" y="148" on="1"/>
        <pt x="355" y="127" on="0"/>
        <pt x="284" y="100" on="0"/>
        <pt x="244" y="100" on="1"/>
        <pt x="222" y="100" on="0"/>
        <pt x="206" y="104" on="1"/>
        <pt x="170" y="-12" on="1"/>
        <pt x="133" y="-4" on="1"/>
        <pt x="169" y="116" on="1"/>
        <pt x="124" y="138" on="0"/>
        <pt x="68" y="233" on="0"/>
        <pt x="68" y="306" on="1"/>
        <pt x="68" y="369" on="0"/>
        <pt x="103" y="481" on="0"/>
        <pt x="166" y="566" on="0"/>
        <pt x="250" y="615" on="0"/>
        <pt x="300" y="615" on="1"/>
        <pt x="305" y="615" on="0"/>
        <pt x="315" y="615" on="0"/>
        <pt x="320" y="614" on="1"/>
        <pt x="354" y="727" on="1"/>
        <pt x="392" y="719" on="1"/>
      </contour>
      <contour>
        <pt x="117" y="307" on="1"/>
        <pt x="117" y="253" on="0"/>
        <pt x="153" y="179" on="0"/>
        <pt x="182" y="160" on="1"/>
        <pt x="308" y="574" on="1"/>
        <pt x="297" y="574" on="1"/>
        <pt x="257" y="574" on="0"/>
        <pt x="191" y="529" on="0"/>
        <pt x="143" y="454" on="0"/>
        <pt x="117" y="358" on="0"/>
      </contour>
    </TTGlyph>
    <TTGlyph name="cent.tab" xMin="99" yMin="-12" xMax="484" yMax="727">
      <contour>
        <pt x="396" y="609" on="1"/>
        <pt x="422" y="602" on="0"/>
        <pt x="467" y="579" on="0"/>
        <pt x="484" y="564" on="1"/>
        <pt x="469" y="521" on="1"/>
        <pt x="430" y="557" on="0"/>
        <pt x="384" y="569" on="1"/>
        <pt x="255" y="145" on="1"/>
        <pt x="270" y="141" on="0"/>
        <pt x="289" y="141" on="1"/>
        <pt x="327" y="141" on="0"/>
        <pt x="394" y="167" on="0"/>
        <pt x="427" y="189" on="1"/>
        <pt x="430" y="145" on="1"/>
        <pt x="402" y="127" on="0"/>
        <pt x="329" y="100" on="0"/>
        <pt x="284" y="100" on="1"/>
        <pt x="261" y="100" on="0"/>
        <pt x="245" y="104" on="1"/>
        <pt x="208" y="-12" on="1"/>
        <pt x="170" y="-4" on="1"/>
        <pt x="207" y="116" on="1"/>
        <pt x="159" y="137" on="0"/>
        <pt x="99" y="233" on="0"/>
        <pt x="99" y="308" on="1"/>
        <pt x="99" y="370" on="0"/>
        <pt x="137" y="482" on="0"/>
        <pt x="203" y="566" on="0"/>
        <pt x="292" y="615" on="0"/>
        <pt x="344" y="615" on="1"/>
        <pt x="358" y="615" on="1"/>
        <pt x="392" y="727" on="1"/>
        <pt x="430" y="719" on="1"/>
      </contour>
      <contour>
        <pt x="148" y="311" on="1"/>
        <pt x="148" y="254" on="0"/>
        <pt x="188" y="177" on="0"/>
        <pt x="221" y="158" on="1"/>
        <pt x="346" y="574" on="1"/>
        <pt x="340" y="574" on="1"/>
        <pt x="297" y="574" on="0"/>
        <pt x="226" y="529" on="0"/>
        <pt x="176" y="455" on="0"/>
        <pt x="148" y="360" on="0"/>
      </contour>
    </TTGlyph>
    <TTGlyph name="circumflex" xMin="164" yMin="601" xMax="410" yMax="756">
      <contour>
        <pt x="379" y="601" on="1"/>
        <pt x="304" y="698" on="1"/>
        <pt x="202" y="601" on="1"/>
        <pt x="164" y="601" on="1"/>
        <pt x="291" y="756" on="1"/>
        <pt x="332" y="756" on="1"/>
        <pt x="410" y="601" on="1"/>
      </contour>
    </TTGlyph>
    <TTGlyph name="circumflex.cap" xMin="153" yMin="564" xMax="386" yMax="709">
      <contour>
        <pt x="355" y="564" on="1"/>
        <pt x="285" y="653" on="1"/>
        <pt x="190" y="564" on="1"/>
        <pt x="153" y="564" on="1"/>
        <pt x="272" y="709" on="1"/>
        <pt x="313" y="709" on="1"/>
        <pt x="386" y="564" on="1"/>
      </contour>
    </TTGlyph>
    <TTGlyph name="colon" xMin="36" yMin="0" xMax="178" yMax="526">
      <contour>
        <pt x="165" y="437" on="1"/>
        <pt x="100" y="437" on="1"/>
        <pt x="113" y="526" on="1"/>
        <pt x="178" y="526" on="1"/>
      </contour>
      <contour>
        <pt x="101" y="0" on="1"/>
        <pt x="36" y="0" on="1"/>
        <pt x="49" y="91" on="1"/>
        <pt x="114" y="91" on="1"/>
      </contour>
    </TTGlyph>
    <TTGlyph name="colon.tab" xMin="61" yMin="0" xMax="204" yMax="526">
      <contour>
        <pt x="126" y="436" on="1"/>
        <pt x="139" y="526" on="1"/>
        <pt x="204" y="526" on="1"/>
        <pt x="191" y="436" on="1"/>
      </contour>
      <contour>
        <pt x="61" y="0" on="1"/>
        <pt x="74" y="91" on="1"/>
        <pt x="139" y="91" on="1"/>
        <pt x="126" y="0" on="1"/>
      </contour>
    </TTGlyph>
    <TTGlyph name="colonmonetary" xMin="57" yMin="-125" xMax="560" yMax="800">
      <contour>
        <pt x="393" y="719" on="1"/>
        <pt x="421" y="717" on="0"/>
        <pt x="470" y="703" on="0"/>
        <pt x="491" y="692" on="1"/>
        <pt x="522" y="796" on="1"/>
        <pt x="560" y="786" on="1"/>
        <pt x="340" y="44" on="1"/>
        <pt x="370" y="49" on="0"/>
        <pt x="426" y="75" on="0"/>
        <pt x="455" y="95" on="1"/>
        <pt x="455" y="47" on="1"/>
        <pt x="426" y="28" on="0"/>
        <pt x="362" y="3" on="0"/>
        <pt x="327" y="-2" on="1"/>
        <pt x="290" y="-125" on="1"/>
        <pt x="252" y="-114" on="1"/>
        <pt x="285" y="-4" on="1"/>
        <pt x="229" y="-2" on="0"/>
        <pt x="186" y="20" on="1"/>
        <pt x="144" y="-120" on="1"/>
        <pt x="106" y="-109" on="1"/>
        <pt x="151" y="43" on="1"/>
        <pt x="106" y="80" on="0"/>
        <pt x="57" y="204" on="0"/>
        <pt x="57" y="286" on="1"/>
        <pt x="57" y="365" on="0"/>
        <pt x="96" y="510" on="0"/>
        <pt x="167" y="626" on="0"/>
        <pt x="269" y="704" on="0"/>
        <pt x="332" y="715" on="1"/>
        <pt x="337" y="716" on="0"/>
        <pt x="346" y="717" on="0"/>
        <pt x="351" y="718" on="1"/>
        <pt x="376" y="800" on="1"/>
        <pt x="414" y="790" on="1"/>
      </contour>
      <contour>
        <pt x="105" y="282" on="1"/>
        <pt x="105" y="218" on="0"/>
        <pt x="137" y="122" on="0"/>
        <pt x="166" y="91" on="1"/>
        <pt x="338" y="674" on="1"/>
        <pt x="284" y="664" on="0"/>
        <pt x="198" y="593" on="0"/>
        <pt x="137" y="487" on="0"/>
        <pt x="105" y="354" on="0"/>
      </contour>
      <contour>
        <pt x="299" y="39" on="1"/>
        <pt x="480" y="648" on="1"/>
        <pt x="457" y="662" on="0"/>
        <pt x="404" y="677" on="0"/>
        <pt x="381" y="677" on="1"/>
        <pt x="198" y="64" on="1"/>
        <pt x="240" y="39" on="0"/>
        <pt x="292" y="39" on="1"/>
      </contour>
    </TTGlyph>
    <TTGlyph name="comma" xMin="-20" yMin="-147" xMax="123" yMax="91">
      <contour>
        <pt x="6" y="-147" on="1"/>
        <pt x="-20" y="-140" on="1"/>
        <pt x="56" y="91" on="1"/>
        <pt x="123" y="91" on="1"/>
      </contour>
    </TTGlyph>
    <TTGlyph name="comma.alt" xMin="-27" yMin="-148" xMax="113" yMax="91">
      <contour>
        <pt x="112" y="91" on="1"/>
        <pt x="113" y="85" on="0"/>
        <pt x="113" y="74" on="0"/>
        <pt x="113" y="69" on="1"/>
        <pt x="113" y="16" on="0"/>
        <pt x="56" y="-91" on="0"/>
        <pt x="-6" y="-148" on="1"/>
        <pt x="-27" y="-133" on="1"/>
        <pt x="22" y="-70" on="0"/>
        <pt x="53" y="33" on="0"/>
        <pt x="54" y="76" on="1"/>
        <pt x="54" y="81" on="0"/>
        <pt x="54" y="86" on="0"/>
        <pt x="53" y="91" on="1"/>
      </contour>
    </TTGlyph>
    <TTGlyph name="comma.tab" xMin="24" yMin="-162" xMax="153" yMax="91">
      <contour>
        <pt x="50" y="-162" on="1"/>
        <pt x="24" y="-156" on="1"/>
        <pt x="87" y="91" on="1"/>
        <pt x="153" y="91" on="1"/>
      </contour>
    </TTGlyph>
    <TTGlyph name="comma.tab_alt" xMin="-3" yMin="-161" xMax="143" yMax="91">
      <contour>
        <pt x="142" y="91" on="1"/>
        <pt x="143" y="87" on="0"/>
        <pt x="143" y="79" on="0"/>
        <pt x="143" y="76" on="1"/>
        <pt x="142" y="16" on="0"/>
        <pt x="85" y="-98" on="0"/>
        <pt x="17" y="-161" on="1"/>
        <pt x="-3" y="-148" on="1"/>
        <pt x="49" y="-81" on="0"/>
        <pt x="83" y="32" on="0"/>
        <pt x="83" y="78" on="1"/>
        <pt x="83" y="91" on="1"/>
      </contour>
    </TTGlyph>
    <TTGlyph name="commaaccent" xMin="111" yMin="-245" xMax="232" yMax="-67">
      <contour>
        <pt x="202" y="-67" on="1"/>
        <pt x="219" y="-83" on="0"/>
        <pt x="232" y="-113" on="0"/>
        <pt x="232" y="-130" on="1"/>
        <pt x="232" y="-162" on="0"/>
        <pt x="183" y="-218" on="0"/>
        <pt x="145" y="-245" on="1"/>
        <pt x="111" y="-240" on="1"/>
        <pt x="147" y="-208" on="0"/>
        <pt x="180" y="-161" on="0"/>
        <pt x="180" y="-140" on="1"/>
        <pt x="180" y="-114" on="0"/>
        <pt x="151" y="-85" on="1"/>
      </contour>
    </TTGlyph>
    <TTGlyph name="commaaccent.cap" xMin="105" yMin="-231" xMax="220" yMax="-63">
      <contour>
        <pt x="192" y="-63" on="1"/>
        <pt x="208" y="-78" on="0"/>
        <pt x="220" y="-106" on="0"/>
        <pt x="220" y="-122" on="1"/>
        <pt x="220" y="-152" on="0"/>
        <pt x="175" y="-205" on="0"/>
        <pt x="138" y="-231" on="1"/>
        <pt x="105" y="-226" on="1"/>
        <pt x="138" y="-195" on="0"/>
        <pt x="169" y="-152" on="0"/>
        <pt x="169" y="-132" on="1"/>
        <pt x="169" y="-107" on="0"/>
        <pt x="142" y="-80" on="1"/>
      </contour>
    </TTGlyph>
    <TTGlyph name="commaaccent.rot" xMin="285" yMin="609" xMax="405" yMax="787">
      <contour>
        <pt x="315" y="609" on="1"/>
        <pt x="298" y="626" on="0"/>
        <pt x="285" y="655" on="0"/>
        <pt x="285" y="672" on="1"/>
        <pt x="285" y="705" on="0"/>
        <pt x="333" y="761" on="0"/>
        <pt x="372" y="787" on="1"/>
        <pt x="405" y="783" on="1"/>
        <pt x="369" y="751" on="0"/>
        <pt x="336" y="704" on="0"/>
        <pt x="336" y="683" on="1"/>
        <pt x="336" y="657" on="0"/>
        <pt x="365" y="627" on="1"/>
      </contour>
    </TTGlyph>
    <TTGlyph name="copyright" xMin="87" yMin="-17" xMax="735" yMax="741">
      <contour>
        <pt x="735" y="362" on="1"/>
        <pt x="735" y="280" on="0"/>
        <pt x="689" y="141" on="0"/>
        <pt x="605" y="40" on="0"/>
        <pt x="486" y="-17" on="0"/>
        <pt x="413" y="-17" on="1"/>
        <pt x="340" y="-17" on="0"/>
        <pt x="220" y="40" on="0"/>
        <pt x="134" y="141" on="0"/>
        <pt x="87" y="280" on="0"/>
        <pt x="87" y="362" on="1"/>
        <pt x="87" y="444" on="0"/>
        <pt x="133" y="583" on="0"/>
        <pt x="218" y="684" on="0"/>
        <pt x="338" y="741" on="0"/>
        <pt x="411" y="741" on="1"/>
        <pt x="484" y="741" on="0"/>
        <pt x="603" y="684" on="0"/>
        <pt x="688" y="583" on="0"/>
        <pt x="735" y="444" on="0"/>
      </contour>
      <contour>
        <pt x="705" y="362" on="1"/>
        <pt x="705" y="440" on="0"/>
        <pt x="663" y="569" on="0"/>
        <pt x="585" y="662" on="0"/>
        <pt x="476" y="714" on="0"/>
        <pt x="410" y="714" on="1"/>
        <pt x="344" y="714" on="0"/>
        <pt x="236" y="662" on="0"/>
        <pt x="159" y="569" on="0"/>
        <pt x="118" y="439" on="0"/>
        <pt x="118" y="362" on="1"/>
        <pt x="118" y="285" on="0"/>
        <pt x="160" y="156" on="0"/>
        <pt x="238" y="63" on="0"/>
        <pt x="347" y="11" on="0"/>
        <pt x="414" y="11" on="1"/>
        <pt x="480" y="11" on="0"/>
        <pt x="587" y="63" on="0"/>
        <pt x="664" y="157" on="0"/>
        <pt x="705" y="285" on="0"/>
      </contour>
      <contour>
        <pt x="531" y="191" on="1"/>
        <pt x="508" y="174" on="0"/>
        <pt x="453" y="151" on="0"/>
        <pt x="417" y="151" on="1"/>
        <pt x="381" y="151" on="0"/>
        <pt x="322" y="182" on="0"/>
        <pt x="281" y="239" on="0"/>
        <pt x="258" y="318" on="0"/>
        <pt x="258" y="365" on="1"/>
        <pt x="258" y="413" on="0"/>
        <pt x="281" y="492" on="0"/>
        <pt x="323" y="549" on="0"/>
        <pt x="383" y="581" on="0"/>
        <pt x="420" y="581" on="1"/>
        <pt x="451" y="581" on="0"/>
        <pt x="502" y="563" on="0"/>
        <pt x="524" y="547" on="1"/>
        <pt x="517" y="502" on="1"/>
        <pt x="491" y="522" on="0"/>
        <pt x="446" y="540" on="0"/>
        <pt x="418" y="540" on="1"/>
        <pt x="391" y="540" on="0"/>
        <pt x="349" y="514" on="0"/>
        <pt x="319" y="468" on="0"/>
        <pt x="303" y="404" on="0"/>
        <pt x="303" y="366" on="1"/>
        <pt x="303" y="287" on="0"/>
        <pt x="366" y="191" on="0"/>
        <pt x="420" y="191" on="1"/>
        <pt x="451" y="191" on="0"/>
        <pt x="500" y="212" on="0"/>
        <pt x="526" y="235" on="1"/>
      </contour>
    </TTGlyph>
    <TTGlyph name="d" xMin="47" yMin="-11" xMax="498" yMax="801">
      <contour>
        <pt x="401" y="147" on="1"/>
        <pt x="401" y="0" on="1"/>
        <pt x="356" y="0" on="1"/>
        <pt x="352" y="104" on="1"/>
        <pt x="304" y="50" on="0"/>
        <pt x="227" y="-11" on="0"/>
        <pt x="183" y="-11" on="1"/>
        <pt x="120" y="-11" on="0"/>
        <pt x="47" y="89" on="0"/>
        <pt x="47" y="181" on="1"/>
        <pt x="47" y="254" on="0"/>
        <pt x="86" y="382" on="0"/>
        <pt x="155" y="478" on="0"/>
        <pt x="251" y="533" on="0"/>
        <pt x="308" y="533" on="1"/>
        <pt x="335" y="533" on="0"/>
        <pt x="383" y="523" on="0"/>
        <pt x="405" y="515" on="1"/>
        <pt x="446" y="790" on="1"/>
        <pt x="498" y="801" on="1"/>
      </contour>
      <contour>
        <pt x="398" y="468" on="1"/>
        <pt x="375" y="479" on="0"/>
        <pt x="332" y="488" on="0"/>
        <pt x="306" y="488" on="1"/>
        <pt x="261" y="488" on="0"/>
        <pt x="186" y="443" on="0"/>
        <pt x="130" y="363" on="0"/>
        <pt x="99" y="251" on="0"/>
        <pt x="99" y="185" on="1"/>
        <pt x="99" y="111" on="0"/>
        <pt x="146" y="35" on="0"/>
        <pt x="188" y="35" on="1"/>
        <pt x="223" y="35" on="0"/>
        <pt x="300" y="101" on="0"/>
        <pt x="352" y="158" on="1"/>
      </contour>
    </TTGlyph>
    <TTGlyph name="dagger" xMin="91" yMin="-102" xMax="470" yMax="725">
      <contour>
        <pt x="291" y="517" on="1"/>
        <pt x="276" y="517" on="1"/>
        <pt x="276" y="627" on="1"/>
        <pt x="292" y="725" on="1"/>
        <pt x="338" y="725" on="1"/>
        <pt x="323" y="630" on="1"/>
      </contour>
      <contour>
        <pt x="405" y="468" on="1"/>
        <pt x="302" y="485" on="1"/>
        <pt x="303" y="499" on="1"/>
        <pt x="413" y="516" on="1"/>
        <pt x="470" y="516" on="1"/>
        <pt x="462" y="468" on="1"/>
      </contour>
      <contour>
        <pt x="148" y="468" on="1"/>
        <pt x="91" y="468" on="1"/>
        <pt x="97" y="516" on="1"/>
        <pt x="155" y="516" on="1"/>
        <pt x="258" y="499" on="1"/>
        <pt x="256" y="485" on="1"/>
      </contour>
      <contour>
        <pt x="197" y="-102" on="1"/>
        <pt x="186" y="-102" on="1"/>
        <pt x="188" y="19" on="1"/>
        <pt x="239" y="357" on="1"/>
        <pt x="269" y="467" on="1"/>
        <pt x="284" y="467" on="1"/>
        <pt x="282" y="357" on="1"/>
        <pt x="231" y="19" on="1"/>
      </contour>
    </TTGlyph>
    <TTGlyph name="daggerdbl" xMin="31" yMin="-174" xMax="475" yMax="725">
      <contour>
        <pt x="296" y="517" on="1"/>
        <pt x="281" y="517" on="1"/>
        <pt x="281" y="627" on="1"/>
        <pt x="297" y="725" on="1"/>
        <pt x="343" y="725" on="1"/>
        <pt x="329" y="630" on="1"/>
      </contour>
      <contour>
        <pt x="410" y="468" on="1"/>
        <pt x="307" y="485" on="1"/>
        <pt x="309" y="499" on="1"/>
        <pt x="418" y="516" on="1"/>
        <pt x="475" y="516" on="1"/>
        <pt x="467" y="468" on="1"/>
      </contour>
      <contour>
        <pt x="152" y="468" on="1"/>
        <pt x="95" y="468" on="1"/>
        <pt x="103" y="516" on="1"/>
        <pt x="160" y="516" on="1"/>
        <pt x="263" y="499" on="1"/>
        <pt x="261" y="485" on="1"/>
      </contour>
      <contour>
        <pt x="232" y="85" on="1"/>
        <pt x="217" y="85" on="1"/>
        <pt x="220" y="192" on="1"/>
        <pt x="243" y="357" on="1"/>
        <pt x="274" y="467" on="1"/>
        <pt x="289" y="467" on="1"/>
        <pt x="287" y="359" on="1"/>
        <pt x="263" y="194" on="1"/>
      </contour>
      <contour>
        <pt x="345" y="36" on="1"/>
        <pt x="242" y="53" on="1"/>
        <pt x="245" y="67" on="1"/>
        <pt x="353" y="84" on="1"/>
        <pt x="410" y="84" on="1"/>
        <pt x="403" y="36" on="1"/>
      </contour>
      <contour>
        <pt x="89" y="36" on="1"/>
        <pt x="31" y="36" on="1"/>
        <pt x="38" y="84" on="1"/>
        <pt x="95" y="84" on="1"/>
        <pt x="199" y="67" on="1"/>
        <pt x="197" y="53" on="1"/>
      </contour>
      <contour>
        <pt x="162" y="-174" on="1"/>
        <pt x="176" y="-79" on="1"/>
        <pt x="210" y="35" on="1"/>
        <pt x="224" y="35" on="1"/>
        <pt x="223" y="-76" on="1"/>
        <pt x="209" y="-174" on="1"/>
      </contour>
    </TTGlyph>
    <TTGlyph name="dcaron" xMin="47" yMin="-11" xMax="631" yMax="808">
      <component glyphName="caron.alt" x="315" y="9" flags="0x4"/>
      <component glyphName="d" x="0" y="0" flags="0x4"/>
    </TTGlyph>
    <TTGlyph name="dcroat" xMin="47" yMin="-11" xMax="557" yMax="801">
      <contour>
        <pt x="483" y="699" on="1"/>
        <pt x="557" y="699" on="1"/>
        <pt x="551" y="656" on="1"/>
        <pt x="476" y="656" on="1"/>
        <pt x="401" y="147" on="1"/>
        <pt x="401" y="0" on="1"/>
        <pt x="356" y="0" on="1"/>
        <pt x="352" y="104" on="1"/>
        <pt x="304" y="50" on="0"/>
        <pt x="227" y="-11" on="0"/>
        <pt x="183" y="-11" on="1"/>
        <pt x="120" y="-11" on="0"/>
        <pt x="47" y="89" on="0"/>
        <pt x="47" y="181" on="1"/>
        <pt x="47" y="254" on="0"/>
        <pt x="86" y="382" on="0"/>
        <pt x="155" y="478" on="0"/>
        <pt x="251" y="533" on="0"/>
        <pt x="308" y="533" on="1"/>
        <pt x="335" y="533" on="0"/>
        <pt x="383" y="523" on="0"/>
        <pt x="405" y="515" on="1"/>
        <pt x="426" y="656" on="1"/>
        <pt x="290" y="656" on="1"/>
        <pt x="289" y="699" on="1"/>
        <pt x="432" y="699" on="1"/>
        <pt x="446" y="790" on="1"/>
        <pt x="498" y="801" on="1"/>
      </contour>
      <contour>
        <pt x="398" y="468" on="1"/>
        <pt x="375" y="479" on="0"/>
        <pt x="332" y="488" on="0"/>
        <pt x="306" y="488" on="1"/>
        <pt x="261" y="488" on="0"/>
        <pt x="186" y="443" on="0"/>
        <pt x="130" y="363" on="0"/>
        <pt x="99" y="251" on="0"/>
        <pt x="99" y="185" on="1"/>
        <pt x="99" y="111" on="0"/>
        <pt x="146" y="35" on="0"/>
        <pt x="188" y="35" on="1"/>
        <pt x="223" y="35" on="0"/>
        <pt x="300" y="101" on="0"/>
        <pt x="352" y="158" on="1"/>
      </contour>
    </TTGlyph>
    <TTGlyph name="dcroat.flat" xMin="47" yMin="-11" xMax="557" yMax="801">
      <contour>
        <pt x="483" y="699" on="1"/>
        <pt x="557" y="699" on="1"/>
        <pt x="551" y="656" on="1"/>
        <pt x="476" y="656" on="1"/>
        <pt x="401" y="147" on="1"/>
        <pt x="401" y="0" on="1"/>
        <pt x="356" y="0" on="1"/>
        <pt x="352" y="104" on="1"/>
        <pt x="304" y="50" on="0"/>
        <pt x="227" y="-11" on="0"/>
        <pt x="183" y="-11" on="1"/>
        <pt x="120" y="-11" on="0"/>
        <pt x="47" y="89" on="0"/>
        <pt x="47" y="181" on="1"/>
        <pt x="47" y="254" on="0"/>
        <pt x="86" y="382" on="0"/>
        <pt x="155" y="478" on="0"/>
        <pt x="251" y="533" on="0"/>
        <pt x="308" y="533" on="1"/>
        <pt x="335" y="533" on="0"/>
        <pt x="383" y="523" on="0"/>
        <pt x="405" y="515" on="1"/>
        <pt x="426" y="656" on="1"/>
        <pt x="285" y="656" on="1"/>
        <pt x="292" y="699" on="1"/>
        <pt x="432" y="699" on="1"/>
        <pt x="446" y="790" on="1"/>
        <pt x="498" y="801" on="1"/>
      </contour>
      <contour>
        <pt x="398" y="468" on="1"/>
        <pt x="375" y="479" on="0"/>
        <pt x="332" y="488" on="0"/>
        <pt x="306" y="488" on="1"/>
        <pt x="261" y="488" on="0"/>
        <pt x="186" y="443" on="0"/>
        <pt x="130" y="363" on="0"/>
        <pt x="99" y="251" on="0"/>
        <pt x="99" y="185" on="1"/>
        <pt x="99" y="111" on="0"/>
        <pt x="146" y="35" on="0"/>
        <pt x="188" y="35" on="1"/>
        <pt x="223" y="35" on="0"/>
        <pt x="300" y="101" on="0"/>
        <pt x="352" y="158" on="1"/>
      </contour>
    </TTGlyph>
    <TTGlyph name="degree" xMin="114" yMin="441" xMax="397" yMax="723">
      <contour>
        <pt x="397" y="582" on="1"/>
        <pt x="397" y="552" on="0"/>
        <pt x="375" y="500" on="0"/>
        <pt x="337" y="463" on="0"/>
        <pt x="286" y="441" on="0"/>
        <pt x="256" y="441" on="1"/>
        <pt x="226" y="441" on="0"/>
        <pt x="174" y="463" on="0"/>
        <pt x="136" y="500" on="0"/>
        <pt x="114" y="552" on="0"/>
        <pt x="114" y="582" on="1"/>
        <pt x="114" y="612" on="0"/>
        <pt x="136" y="663" on="0"/>
        <pt x="174" y="701" on="0"/>
        <pt x="226" y="723" on="0"/>
        <pt x="256" y="723" on="1"/>
        <pt x="286" y="723" on="0"/>
        <pt x="337" y="701" on="0"/>
        <pt x="375" y="663" on="0"/>
        <pt x="397" y="612" on="0"/>
      </contour>
      <contour>
        <pt x="353" y="582" on="1"/>
        <pt x="353" y="625" on="0"/>
        <pt x="298" y="686" on="0"/>
        <pt x="255" y="686" on="1"/>
        <pt x="212" y="686" on="0"/>
        <pt x="158" y="625" on="0"/>
        <pt x="158" y="582" on="1"/>
        <pt x="158" y="538" on="0"/>
        <pt x="213" y="477" on="0"/>
        <pt x="256" y="477" on="1"/>
        <pt x="299" y="477" on="0"/>
        <pt x="353" y="538" on="0"/>
      </contour>
    </TTGlyph>
    <TTGlyph name="degree.tab" xMin="140" yMin="398" xMax="471" yMax="726">
      <contour>
        <pt x="305" y="398" on="1"/>
        <pt x="270" y="398" on="0"/>
        <pt x="210" y="423" on="0"/>
        <pt x="165" y="467" on="0"/>
        <pt x="140" y="527" on="0"/>
        <pt x="140" y="562" on="1"/>
        <pt x="140" y="597" on="0"/>
        <pt x="165" y="657" on="0"/>
        <pt x="210" y="701" on="0"/>
        <pt x="270" y="726" on="0"/>
        <pt x="305" y="726" on="1"/>
        <pt x="341" y="726" on="0"/>
        <pt x="401" y="701" on="0"/>
        <pt x="446" y="657" on="0"/>
        <pt x="471" y="597" on="0"/>
        <pt x="471" y="562" on="1"/>
        <pt x="471" y="527" on="0"/>
        <pt x="446" y="467" on="0"/>
        <pt x="401" y="423" on="0"/>
        <pt x="340" y="398" on="0"/>
      </contour>
      <contour>
        <pt x="305" y="687" on="1"/>
        <pt x="279" y="687" on="0"/>
        <pt x="235" y="668" on="0"/>
        <pt x="203" y="634" on="0"/>
        <pt x="185" y="588" on="0"/>
        <pt x="185" y="562" on="1"/>
        <pt x="185" y="536" on="0"/>
        <pt x="203" y="490" on="0"/>
        <pt x="235" y="456" on="0"/>
        <pt x="280" y="437" on="0"/>
        <pt x="306" y="437" on="1"/>
        <pt x="332" y="437" on="0"/>
        <pt x="376" y="456" on="0"/>
        <pt x="407" y="490" on="0"/>
        <pt x="425" y="535" on="0"/>
        <pt x="425" y="562" on="1"/>
        <pt x="425" y="588" on="0"/>
        <pt x="407" y="634" on="0"/>
        <pt x="375" y="668" on="0"/>
        <pt x="331" y="687" on="0"/>
      </contour>
    </TTGlyph>
    <TTGlyph name="dieresis" xMin="176" yMin="612" xMax="418" yMax="696">
      <contour>
        <pt x="337" y="612" on="1"/>
        <pt x="349" y="696" on="1"/>
        <pt x="418" y="696" on="1"/>
        <pt x="405" y="612" on="1"/>
      </contour>
      <contour>
        <pt x="176" y="612" on="1"/>
        <pt x="189" y="696" on="1"/>
        <pt x="257" y="696" on="1"/>
        <pt x="244" y="612" on="1"/>
      </contour>
    </TTGlyph>
    <TTGlyph name="dieresis.cap" xMin="164" yMin="573" xMax="394" yMax="654">
      <contour>
        <pt x="316" y="573" on="1"/>
        <pt x="328" y="654" on="1"/>
        <pt x="394" y="654" on="1"/>
        <pt x="382" y="573" on="1"/>
      </contour>
      <contour>
        <pt x="164" y="573" on="1"/>
        <pt x="177" y="654" on="1"/>
        <pt x="242" y="654" on="1"/>
        <pt x="230" y="573" on="1"/>
      </contour>
    </TTGlyph>
    <TTGlyph name="divide" xMin="75" yMin="141" xMax="497" yMax="577">
      <contour>
        <pt x="276" y="496" on="1"/>
        <pt x="288" y="577" on="1"/>
        <pt x="348" y="577" on="1"/>
        <pt x="337" y="496" on="1"/>
      </contour>
      <contour>
        <pt x="75" y="337" on="1"/>
        <pt x="81" y="380" on="1"/>
        <pt x="497" y="380" on="1"/>
        <pt x="490" y="337" on="1"/>
      </contour>
      <contour>
        <pt x="223" y="141" on="1"/>
        <pt x="235" y="222" on="1"/>
        <pt x="296" y="222" on="1"/>
        <pt x="284" y="141" on="1"/>
      </contour>
    </TTGlyph>
    <TTGlyph name="divide.tab" xMin="70" yMin="141" xMax="493" yMax="578">
      <contour>
        <pt x="272" y="497" on="1"/>
        <pt x="284" y="578" on="1"/>
        <pt x="344" y="578" on="1"/>
        <pt x="332" y="497" on="1"/>
      </contour>
      <contour>
        <pt x="70" y="337" on="1"/>
        <pt x="77" y="380" on="1"/>
        <pt x="493" y="380" on="1"/>
        <pt x="486" y="337" on="1"/>
      </contour>
      <contour>
        <pt x="219" y="141" on="1"/>
        <pt x="230" y="221" on="1"/>
        <pt x="292" y="221" on="1"/>
        <pt x="280" y="141" on="1"/>
      </contour>
    </TTGlyph>
    <TTGlyph name="dollar" xMin="15" yMin="-132" xMax="489" yMax="801">
      <contour>
        <pt x="395" y="709" on="1"/>
        <pt x="422" y="702" on="0"/>
        <pt x="469" y="683" on="0"/>
        <pt x="489" y="672" on="1"/>
        <pt x="477" y="624" on="1"/>
        <pt x="457" y="637" on="0"/>
        <pt x="409" y="660" on="0"/>
        <pt x="382" y="668" on="1"/>
        <pt x="297" y="386" on="1"/>
        <pt x="366" y="341" on="0"/>
        <pt x="438" y="253" on="0"/>
        <pt x="438" y="192" on="1"/>
        <pt x="438" y="147" on="0"/>
        <pt x="405" y="75" on="0"/>
        <pt x="348" y="24" on="0"/>
        <pt x="268" y="-3" on="0"/>
        <pt x="222" y="-3" on="1"/>
        <pt x="200" y="-3" on="0"/>
        <pt x="179" y="0" on="1"/>
        <pt x="138" y="-132" on="1"/>
        <pt x="100" y="-122" on="1"/>
        <pt x="140" y="6" on="1"/>
        <pt x="103" y="14" on="0"/>
        <pt x="40" y="41" on="0"/>
        <pt x="15" y="56" on="1"/>
        <pt x="28" y="104" on="1"/>
        <pt x="55" y="86" on="0"/>
        <pt x="117" y="56" on="0"/>
        <pt x="152" y="47" on="1"/>
        <pt x="248" y="362" on="1"/>
        <pt x="188" y="402" on="0"/>
        <pt x="115" y="488" on="0"/>
        <pt x="115" y="548" on="1"/>
        <pt x="115" y="585" on="0"/>
        <pt x="143" y="648" on="0"/>
        <pt x="194" y="694" on="0"/>
        <pt x="265" y="720" on="0"/>
        <pt x="309" y="720" on="1"/>
        <pt x="334" y="720" on="0"/>
        <pt x="357" y="717" on="1"/>
        <pt x="381" y="801" on="1"/>
        <pt x="421" y="792" on="1"/>
      </contour>
      <contour>
        <pt x="391" y="189" on="1"/>
        <pt x="391" y="233" on="0"/>
        <pt x="339" y="301" on="0"/>
        <pt x="282" y="339" on="1"/>
        <pt x="191" y="40" on="1"/>
        <pt x="200" y="39" on="0"/>
        <pt x="217" y="38" on="0"/>
        <pt x="226" y="38" on="1"/>
        <pt x="262" y="38" on="0"/>
        <pt x="323" y="60" on="0"/>
        <pt x="367" y="100" on="0"/>
        <pt x="391" y="155" on="0"/>
      </contour>
      <contour>
        <pt x="162" y="550" on="1"/>
        <pt x="162" y="509" on="0"/>
        <pt x="211" y="445" on="0"/>
        <pt x="262" y="409" on="1"/>
        <pt x="344" y="676" on="1"/>
        <pt x="326" y="679" on="0"/>
        <pt x="307" y="679" on="1"/>
        <pt x="274" y="679" on="0"/>
        <pt x="221" y="660" on="0"/>
        <pt x="183" y="626" on="0"/>
        <pt x="162" y="578" on="0"/>
      </contour>
    </TTGlyph>
    <TTGlyph name="dollar.tab" xMin="15" yMin="-127" xMax="514" yMax="796">
      <contour>
        <pt x="412" y="705" on="1"/>
        <pt x="442" y="697" on="0"/>
        <pt x="494" y="673" on="0"/>
        <pt x="514" y="659" on="1"/>
        <pt x="499" y="614" on="1"/>
        <pt x="479" y="628" on="0"/>
        <pt x="428" y="655" on="0"/>
        <pt x="399" y="664" on="1"/>
        <pt x="314" y="386" on="1"/>
        <pt x="344" y="367" on="0"/>
        <pt x="397" y="328" on="0"/>
        <pt x="436" y="283" on="0"/>
        <pt x="459" y="229" on="0"/>
        <pt x="459" y="195" on="1"/>
        <pt x="459" y="148" on="0"/>
        <pt x="426" y="75" on="0"/>
        <pt x="367" y="24" on="0"/>
        <pt x="289" y="-2" on="0"/>
        <pt x="244" y="-2" on="1"/>
        <pt x="218" y="-2" on="0"/>
        <pt x="196" y="1" on="1"/>
        <pt x="155" y="-127" on="1"/>
        <pt x="117" y="-117" on="1"/>
        <pt x="155" y="8" on="1"/>
        <pt x="112" y="19" on="0"/>
        <pt x="41" y="52" on="0"/>
        <pt x="15" y="69" on="1"/>
        <pt x="31" y="115" on="1"/>
        <pt x="59" y="95" on="0"/>
        <pt x="127" y="60" on="0"/>
        <pt x="169" y="49" on="1"/>
        <pt x="265" y="362" on="1"/>
        <pt x="237" y="380" on="0"/>
        <pt x="185" y="418" on="0"/>
        <pt x="146" y="461" on="0"/>
        <pt x="123" y="513" on="0"/>
        <pt x="123" y="546" on="1"/>
        <pt x="123" y="584" on="0"/>
        <pt x="151" y="647" on="0"/>
        <pt x="204" y="693" on="0"/>
        <pt x="278" y="718" on="0"/>
        <pt x="323" y="718" on="1"/>
        <pt x="351" y="718" on="0"/>
        <pt x="374" y="714" on="1"/>
        <pt x="399" y="796" on="1"/>
        <pt x="438" y="786" on="1"/>
      </contour>
      <contour>
        <pt x="410" y="191" on="1"/>
        <pt x="410" y="216" on="0"/>
        <pt x="394" y="257" on="0"/>
        <pt x="365" y="293" on="0"/>
        <pt x="324" y="324" on="0"/>
        <pt x="299" y="340" on="1"/>
        <pt x="208" y="42" on="1"/>
        <pt x="218" y="41" on="0"/>
        <pt x="237" y="40" on="0"/>
        <pt x="247" y="40" on="1"/>
        <pt x="320" y="40" on="0"/>
        <pt x="410" y="122" on="0"/>
      </contour>
      <contour>
        <pt x="173" y="549" on="1"/>
        <pt x="173" y="502" on="0"/>
        <pt x="232" y="439" on="0"/>
        <pt x="279" y="408" on="1"/>
        <pt x="361" y="673" on="1"/>
        <pt x="344" y="677" on="0"/>
        <pt x="321" y="677" on="1"/>
        <pt x="254" y="677" on="0"/>
        <pt x="173" y="607" on="0"/>
      </contour>
    </TTGlyph>
    <TTGlyph name="dotaccent" xMin="253" yMin="608" xMax="339" yMax="696">
      <contour>
        <pt x="253" y="608" on="1"/>
        <pt x="267" y="696" on="1"/>
        <pt x="339" y="696" on="1"/>
        <pt x="326" y="608" on="1"/>
      </contour>
    </TTGlyph>
    <TTGlyph name="dotaccent.cap" xMin="237" yMin="570" xMax="320" yMax="654">
      <contour>
        <pt x="237" y="570" on="1"/>
        <pt x="250" y="654" on="1"/>
        <pt x="320" y="654" on="1"/>
        <pt x="307" y="570" on="1"/>
      </contour>
    </TTGlyph>
    <TTGlyph name="dotlessi" xMin="52" yMin="0" xMax="183" yMax="526">
      <contour>
        <pt x="103" y="0" on="1"/>
        <pt x="52" y="0" on="1"/>
        <pt x="131" y="526" on="1"/>
        <pt x="183" y="526" on="1"/>
      </contour>
    </TTGlyph>
    <TTGlyph name="e" xMin="48" yMin="-10" xMax="426" yMax="538">
      <contour>
        <pt x="225" y="37" on="1"/>
        <pt x="302" y="37" on="0"/>
        <pt x="380" y="97" on="1"/>
        <pt x="380" y="45" on="1"/>
        <pt x="345" y="20" on="0"/>
        <pt x="268" y="-10" on="0"/>
        <pt x="222" y="-10" on="1"/>
        <pt x="141" y="-10" on="0"/>
        <pt x="48" y="107" on="0"/>
        <pt x="48" y="206" on="1"/>
        <pt x="48" y="274" on="0"/>
        <pt x="85" y="395" on="0"/>
        <pt x="148" y="485" on="0"/>
        <pt x="232" y="538" on="0"/>
        <pt x="280" y="538" on="1"/>
        <pt x="316" y="538" on="0"/>
        <pt x="371" y="511" on="0"/>
        <pt x="408" y="462" on="0"/>
        <pt x="426" y="395" on="0"/>
        <pt x="426" y="355" on="1"/>
        <pt x="426" y="329" on="0"/>
        <pt x="419" y="281" on="0"/>
        <pt x="416" y="261" on="1"/>
        <pt x="104" y="261" on="1"/>
        <pt x="104" y="257" on="0"/>
        <pt x="100" y="220" on="0"/>
        <pt x="100" y="207" on="1"/>
        <pt x="100" y="126" on="0"/>
        <pt x="168" y="37" on="0"/>
      </contour>
      <contour>
        <pt x="278" y="493" on="1"/>
        <pt x="250" y="493" on="0"/>
        <pt x="198" y="466" on="0"/>
        <pt x="154" y="416" on="0"/>
        <pt x="120" y="345" on="0"/>
        <pt x="111" y="302" on="1"/>
        <pt x="371" y="302" on="1"/>
        <pt x="374" y="329" on="0"/>
        <pt x="374" y="353" on="1"/>
        <pt x="374" y="419" on="0"/>
        <pt x="326" y="493" on="0"/>
      </contour>
    </TTGlyph>
    <TTGlyph name="eacute" xMin="48" yMin="-10" xMax="467" yMax="760">
      <component glyphName="acute" x="68" y="3" flags="0x4"/>
      <component glyphName="e" x="0" y="0" flags="0x4"/>
    </TTGlyph>
    <TTGlyph name="ebreve" xMin="48" yMin="-10" xMax="436" yMax="733">
      <component glyphName="e" x="0" y="0" flags="0x204"/>
      <component glyphName="breve" x="6" y="3" flags="0x4"/>
    </TTGlyph>
    <TTGlyph name="ecaron" xMin="48" yMin="-10" xMax="444" yMax="759">
      <component glyphName="caron" x="9" y="3" flags="0x4"/>
      <component glyphName="e" x="0" y="0" flags="0x4"/>
    </TTGlyph>
    <TTGlyph name="ecircumflex" xMin="48" yMin="-10" xMax="426" yMax="759">
      <component glyphName="circumflex" x="9" y="3" flags="0x4"/>
      <component glyphName="e" x="0" y="0" flags="0x4"/>
    </TTGlyph>
    <TTGlyph name="edieresis" xMin="48" yMin="-10" xMax="426" yMax="699">
      <component glyphName="dieresis" x="8" y="3" flags="0x4"/>
      <component glyphName="e" x="0" y="0" flags="0x4"/>
    </TTGlyph>
    <TTGlyph name="edotaccent" xMin="48" yMin="-10" xMax="426" yMax="699">
      <component glyphName="e" x="0" y="0" flags="0x204"/>
      <component glyphName="dotaccent" x="9" y="3" flags="0x4"/>
    </TTGlyph>
    <TTGlyph name="egrave" xMin="48" yMin="-10" xMax="426" yMax="761">
      <component glyphName="e" x="0" y="0" flags="0x204"/>
      <component glyphName="grave" x="-56" y="3" flags="0x4"/>
    </TTGlyph>
</ttFont>
